<?xml version="1.0" encoding="UTF-8"?>
<!DOCTYPE svg PUBLIC "-//W3C//DTD SVG 1.1//EN" "http://www.w3.org/Graphics/SVG/1.1/DTD/svg11.dtd">
<!-- Creator: CorelDRAW 2021 (64-Bit) -->
<svg xmlns="http://www.w3.org/2000/svg" xml:space="preserve" width="1376px" height="1074px" version="1.1" style="shape-rendering:geometricPrecision; text-rendering:geometricPrecision; image-rendering:optimizeQuality; fill-rule:evenodd; clip-rule:evenodd"
viewBox="0 0 465.19 363.02"
 xmlns:xlink="http://www.w3.org/1999/xlink"
 xmlns:xodm="http://www.corel.com/coreldraw/odm/2003">
 <defs>
  <style type="text/css">
   <![CDATA[
    .fil1 {fill:#9461C9}
    .fil2 {fill:#261A40}
    .fil3 {fill:#8F7DCF}
    .fil0 {fill:#4012A6}
   ]]>
  </style>
 </defs>
 <g id="Layer_x0020_1">
  <metadata id="CorelCorpID_0Corel-Layer"/>
  <path class="fil0" d="M45.83 71.23l0 0c1.66,0 3.02,1.36 3.02,3.02l0 4.32 4.31 0c1.67,0 3.03,1.36 3.03,3.02l0 0c0,1.66 -1.36,3.02 -3.03,3.02l-4.31 0 0 4.32c0,1.66 -1.36,3.02 -3.02,3.02l0 0c-1.66,0 -3.02,-1.36 -3.02,-3.02l0 -4.32 -4.32 0c-1.66,0 -3.02,-1.36 -3.02,-3.02l0 0c0,-1.66 1.36,-3.02 3.02,-3.02l4.32 0 0 -4.32c0,-1.66 1.36,-3.02 3.02,-3.02z"/>
  <circle class="fil1" cx="45.83" cy="81.59" r="3.02"/>
  <path class="fil0" d="M16.9 96.99c2.71,0 4.93,2.22 4.93,4.93l0 7.04 7.04 0c2.72,0 4.93,2.22 4.93,4.93 0,2.71 -2.21,4.93 -4.93,4.93l-7.04 0 0 7.04c0,2.71 -2.22,4.93 -4.93,4.93 -2.71,0 -4.93,-2.22 -4.93,-4.93l0 -7.04 -7.04 0c-2.71,0 -4.93,-2.22 -4.93,-4.93 0,-2.71 2.22,-4.93 4.93,-4.93l7.04 0 0 -7.04c0,-2.71 2.22,-4.93 4.93,-4.93z"/>
  <circle class="fil1" cx="16.9" cy="113.89" r="4.93"/>
  <path class="fil2" d="M297.51 344.06l7.26 1.82c19.4,0 21.57,-28.35 -1.39,-28.35 -12.07,0 -16.88,7.13 -22.18,14.44 -3.51,4.85 -3.48,7.77 -6.23,12.09 -4.23,6.62 -11.03,7.23 -11.03,3.05 0,-9.66 9.86,-13.68 9.86,-22.54 0,-7.36 -7.27,-4.99 -14.07,-5.65 -8.85,-0.85 -4.78,-5.62 -14.1,-5.62 -8.21,0 -4.22,9.05 -4.22,14.09 0,0.55 -5.76,18.84 -11.27,22.53 0,-5.9 -0.46,-13.92 0.25,-19.55 1.24,-9.87 2.66,-12.84 -7.29,-12.84 -6.78,0 0.73,1.69 -5.48,1.83 -1.65,0.04 -11.89,-5.82 -22.13,5.78 -10.54,11.95 -7.48,37.46 9.3,37.46 6.61,0 11.39,-4.29 15.49,-7.04 3.36,12.6 21.55,9.21 27.86,-15.81 1.64,-6.51 0.42,-8.07 5.94,-9.55 3.61,7.81 -4.22,1.37 -4.22,21.13 0,7.32 14.48,15.92 26.23,7.92 1.97,-1.34 2.23,-1.74 3.56,-3.48l2.6 -4.44c20.02,13.41 17.81,16.5 43.67,2.82 0.53,6.43 2.72,7.12 8.45,8.45 5.78,-5.02 5.51,-6.28 5.6,-16.93 0.07,-8.64 1.58,-13.62 8.48,-15.47 0,4.69 -6.6,37.01 14.35,31.34 6.02,-1.63 7.13,-4.14 9.6,-8.8 2.15,1.58 12.3,18.88 27.63,3.69 0.21,-0.2 0.49,-0.51 0.69,-0.72 4.17,-4.41 9.7,-12.89 9.7,-19.87 0,-3.16 -1.11,-3.09 -2.81,-5.64 -11.15,0.93 -8.88,15.03 -15.39,18.76 -9.92,5.68 -4.33,-16.26 -4.33,-25.8 6.55,0 11.27,1.02 11.27,-7.04 0,-4.67 -4.04,-5.27 -8.45,-5.63l0 -15.5c-12.75,-2.97 -14.09,-2.77 -14.09,14.09 -4.21,0.98 -7.92,2.53 -6.44,7.73 1.7,5.97 8.17,2.3 0.66,16.05 -3.76,6.88 -3.98,12.09 -8.3,17.06 0,-10.28 5.34,-32.94 -11.11,-32.02 -4.92,0.28 -6.63,2.99 -10.02,5.26 -5.2,-7.76 -5.11,-5.99 -12.68,-4.22 -0.81,3.5 -0.94,7.06 -1.87,10.81 -2.29,9.24 -10.45,20.17 -22.07,20.17 -3.32,0 -6.27,-2.76 -8.45,-4.22l1.17 -1.64zm120.34 -271.99c-30.69,-26.89 -57.82,-4.05 -78.9,-8.35 -19.93,-4.07 -49.83,-79.52 -39.04,-13.15 0.95,5.86 1.42,8.79 2.96,13.94 1.41,4.71 2.91,8.56 3.33,13.58 -10.9,-12.54 -30.34,-32.68 -47.5,-37.01 -25.38,-6.41 -45.87,14.44 -55.32,28.56 3.93,2.08 8.09,2.94 11.68,5.63 12.71,10.51 15.8,12.08 24.02,29.08 5.79,11.97 9.47,28.29 9.4,45.54 -0.13,32.04 -3.55,63.08 -21.2,88.76l-1.37 1.6 -0.77 1.22c-5.62,20.04 21.5,33.17 37.99,28.77 21.55,-5.74 20.39,-32.01 34.62,-35.81 13.51,-0.22 4.16,30.04 24.12,43.48 3.87,2.62 12.21,5.71 17.65,5.26 17.31,-1.43 34.44,-22.28 45.03,-35.22 11.05,-13.33 24.62,-37.17 31.92,-51.94 0.07,-0.13 0.14,-0.27 0.2,-0.41 12.94,-31.36 32.68,-95.93 1.18,-123.53zm-159.54 80.67c0,-11.74 24.26,8.45 67.61,8.45 10.16,0 14.65,-3.25 22.53,-1.41 -2.07,24.86 -43.07,48.82 -73.62,21.5 -5.97,-5.34 -6.63,-4.29 -10.86,-11.67 -2.53,-4.42 -5.66,-10.09 -5.66,-16.87zm64.75 -26.82c-0.28,-4.14 2.93,-8.14 6.41,-10.48 11.92,-8.03 29.5,-6.94 32.59,8.34 0.78,3.84 -0.17,5.89 -2.45,4.75 -5.19,-2.6 -3.4,-8.78 -15.89,-10.48 -7.38,-1.01 -12.66,5.41 -17.33,9.31 -1.99,1.66 -3.2,0.45 -3.33,-1.44zm-71.56 -10.79c2.75,-15.09 28.02,-16.6 37,1.76 1.8,3.69 2.54,7.41 -1.8,4.42 -6.11,-4.2 -8.17,-11.8 -24.6,-5.56 -4.94,1.88 -5.12,2.69 -8.01,2.3 -1.81,-0.24 -3.1,-0.1 -2.59,-2.92zm75.82 -84.93c0,25.52 22.54,35.6 22.54,22.53 0,-4.18 -9.27,-12.06 -11.56,-15.2 -5.39,-7.37 -2,-15.85 -5.34,-22.82 -4.29,3.13 -5.64,9.85 -5.64,15.49zm-246.48 290.15c0.69,8.29 2.82,2.93 2.82,8.45 0,3.98 -7.95,18.9 -11.27,21.12 1.17,-15.52 5.57,-30.02 -7.51,-31.92 -6.09,-0.88 -8.6,2.75 -12.21,5.16 -5.2,-7.76 -5.11,-5.99 -12.68,-4.22 -2.7,11.61 -2.81,23.81 -2.81,36.62 0,4.86 4.43,6.1 8.45,7.04 5.78,-5.02 5.51,-6.28 5.6,-16.93 0.07,-8.64 1.59,-13.62 8.48,-15.47 0,10.27 -3.63,22.03 1.77,27.83 6.32,6.79 16.48,3.93 20.77,-2.47 6.89,4.61 15.39,11.36 23.94,-1.41 6.46,4.73 1.38,7.04 15.5,7.04 5.77,0 10.74,-9.86 12.51,-14.25 3.23,-7.99 8.24,-14.2 -2.65,-16.74 -9.04,8.58 -2.79,15.67 -12.68,18.32 0,-27.04 6.92,-33.82 -11.27,-29.58 -1.3,5.56 -1.87,10.61 -2.96,16.75 -2.1,11.77 -2.83,12.37 -8.31,12.83l1.71 -25.33c-0.13,-2.09 -6.77,-7.07 -10.16,-7.07 -3.27,0 -4.28,2.31 -7.04,4.23zm47.89 -5.64c0,6.94 4.61,7.04 8.45,7.04 9.86,0 1.23,-21.12 22.54,-21.12 22.9,0 18.83,28.17 7.04,28.17l-7.04 0c0,-10.56 1.51,-15.66 -3.32,-20.64l-1.52 -1.29c-0.16,-0.13 -0.55,-0.39 -0.8,-0.61 -3.21,0.75 -3.24,1.09 -7.04,1.41 -2.1,9 -0.48,16.56 -1.96,26.21 -1.14,7.53 -3.51,17.3 -3.67,24.49 7.17,4.81 2.91,5.43 14.08,2.82 1.13,-4.86 2.82,-13.98 2.82,-19.72 23.19,11.13 45.15,-27.54 24.35,-45.48 -17.38,-15 -53.93,-8.24 -53.93,18.72zm173.24 15.49l4.23 0 0 5.64c-6.45,1.5 -3.41,1.5 -9.86,0 0.85,-3.19 1.35,-5.64 5.63,-5.64zm-92.96 19.72c-12.42,0 -1.76,-26.58 6.7,-18.12 3.56,3.56 -0.98,18.12 -6.7,18.12z"/>
  <path class="fil0" d="M147.03 196.44c-22.98,-1.2 -29.21,-17.01 -20.71,-15.98 34.71,15 48.14,-1.87 65.24,-17.37 1.39,-1.39 11.14,-8.78 3.59,5.38 -9.08,17 -28.62,28.99 -48.12,27.97zm39.79 -125.4c-9.31,3.4 -14.44,4.89 -21.15,11.59l-15.81 17.99c7.1,-85.34 -20.1,-13.88 -35.32,-8.55 -16.12,5.64 -58.44,-5.69 -68.37,48.53 -3.93,21.45 7.81,53.56 17.77,68.48l11.03 18.55c13.41,18.24 25.61,31.67 46.23,41.09 6.87,3.14 15.81,6.04 24.52,2.42 8.32,-3.47 12.38,-7.73 14.35,-15.23 4.35,-16.54 -0.1,-26.52 8.4,-24.64 3.71,0.82 3.7,2.26 7.17,8.31 6.87,11.96 17.44,31.46 36.46,16.24 11.69,-9.35 25.03,-39.96 28.96,-56.95 5.93,-25.61 8.58,-49.28 1.79,-75.74 -5.63,-21.93 -9.63,-27.02 -22.92,-40.47 -12.42,-12.56 -16.6,-11.62 -33.11,-11.62zm40.46 167.61l-1.37 1.6 1.37 -1.6zm-125.31 -183.1c3.06,4.58 7.04,6.2 7.04,14.09 0,6.27 -7.69,21.12 2.82,21.12 17.14,0 4.61,-49.36 -9.86,-35.21zm32.37 87.46c6.73,4.14 7.21,4.9 6.99,8.43 -0.17,2.7 -0.01,2.86 -3.07,3.3 -7.6,1.11 -9.83,-7.71 -18.58,-4.29 -7.81,3.04 -3.57,8.77 -11.7,12.18 -1.52,0.64 -3.53,-0.1 -4.71,-1.02 -8.31,-6.45 9.44,-31.91 31.07,-18.6zm28.26 -4.65c6.2,-21.46 32.8,-25.52 39.07,-6.21 0.64,1.96 0.12,3.72 -2.54,4.3 -4.66,1.03 -8.47,-7.7 -15.35,-5.34 -15.87,5.68 -5.16,19.03 -19.03,14.41 -2.06,-0.69 -3.49,-2.53 -2.15,-7.16z"/>
  <path class="fil2" d="M402.97 20.28c0,-3.25 2.66,-5.91 5.92,-5.91l8.45 0 0 -8.45c0,-3.26 2.66,-5.92 5.91,-5.92 3.26,0 5.92,2.66 5.92,5.92l0 8.45 8.45 0c3.25,0 5.92,2.66 5.92,5.91 0,3.26 -2.67,5.92 -5.92,5.92l-8.45 0 0 8.45c0,3.25 -2.66,5.91 -5.92,5.91 -3.25,0 -5.91,-2.66 -5.91,-5.91l0 -8.45 -8.45 0c-3.26,0 -5.92,-2.66 -5.92,-5.92z"/>
  <circle class="fil3" cx="423.25" cy="20.28" r="5.92"/>
  <path class="fil2" d="M451.67 35.85l0 0c2.17,0 3.95,1.78 3.95,3.95l0 5.63 5.63 0c2.17,0 3.94,1.78 3.94,3.94l0 0.01c0,2.16 -1.77,3.94 -3.94,3.94l-5.63 0 0 5.63c0,2.17 -1.78,3.95 -3.95,3.95l0 0c-2.17,0 -3.94,-1.78 -3.94,-3.95l0 -5.63 -5.64 0c-2.17,0 -3.94,-1.78 -3.94,-3.94l0 -0.01c0,-2.16 1.77,-3.94 3.94,-3.94l5.64 0 0 -5.63c0,-2.17 1.77,-3.95 3.94,-3.95z"/>
  <circle class="fil3" cx="451.67" cy="49.37" r="3.94"/>
  <path class="fil2" d="M436.42 90.91l0 0c0,-1.63 1.33,-2.96 2.96,-2.96l4.22 0 0 -4.22c0,-1.63 1.33,-2.96 2.96,-2.96l0 0c1.63,0 2.96,1.33 2.96,2.96l0 4.22 4.23 0c1.62,0 2.95,1.33 2.95,2.96l0 0c0,1.63 -1.33,2.96 -2.95,2.96l-4.23 0 0 4.22c0,1.63 -1.33,2.96 -2.96,2.96l0 0c-1.63,0 -2.96,-1.33 -2.96,-2.96l0 -4.22 -4.22 0c-1.63,0 -2.96,-1.33 -2.96,-2.96z"/>
  <circle class="fil3" cx="446.56" cy="90.91" r="2.96"/>
 </g>
</svg>
