<?xml version="1.0" encoding="UTF-8"?>
<!DOCTYPE svg PUBLIC "-//W3C//DTD SVG 1.1//EN" "http://www.w3.org/Graphics/SVG/1.1/DTD/svg11.dtd">
<!-- Creator: CorelDRAW 2021 (64-Bit) -->
<svg xmlns="http://www.w3.org/2000/svg" xml:space="preserve" width="1582px" height="2336px" version="1.1" style="shape-rendering:geometricPrecision; text-rendering:geometricPrecision; image-rendering:optimizeQuality; fill-rule:evenodd; clip-rule:evenodd"
viewBox="0 0 1405.18 2074.94"
 xmlns:xlink="http://www.w3.org/1999/xlink"
 xmlns:xodm="http://www.corel.com/coreldraw/odm/2003">
 <defs>
  <style type="text/css">
   <![CDATA[
    .fil1 {fill:#FDFEFE}
    .fil2 {fill:#FDFEFE}
    .fil3 {fill:#FCFDFE}
    .fil4 {fill:#FBFDFE}
    .fil5 {fill:#FAFDFE}
    .fil6 {fill:#F9FCFE}
    .fil7 {fill:#F9FCFE}
    .fil8 {fill:#F9FBFE}
    .fil9 {fill:#F8FBFE}
    .fil10 {fill:#F8FBFD}
    .fil11 {fill:#F7FBFD}
    .fil12 {fill:#F6FAFD}
    .fil13 {fill:#F5FAFD}
    .fil14 {fill:#F5FAFD}
    .fil15 {fill:#F4F9FD}
    .fil16 {fill:#F4F9FC}
    .fil17 {fill:#F3F8FC}
    .fil18 {fill:#F2F8FC}
    .fil19 {fill:#F1F8FC}
    .fil20 {fill:#F0F7FB}
    .fil21 {fill:#F0F6FB}
    .fil22 {fill:#EFF6FB}
    .fil23 {fill:#EEF6FB}
    .fil24 {fill:#EEF5FB}
    .fil25 {fill:#EDF5FB}
    .fil26 {fill:#ECF4FA}
    .fil27 {fill:#EBF4FA}
    .fil28 {fill:#EBF3F9}
    .fil29 {fill:#EAF3F9}
    .fil30 {fill:#E9F2F9}
    .fil31 {fill:#E9F2F9}
    .fil32 {fill:#E8F1F8}
    .fil33 {fill:#E7F1F8}
    .fil34 {fill:#E6F1F8}
    .fil35 {fill:#E6F0F8}
    .fil36 {fill:#E6F0F7}
    .fil37 {fill:#E5EFF7}
    .fil38 {fill:#E4EEF7}
    .fil39 {fill:#E3EEF6}
    .fil40 {fill:#E2EDF6}
    .fil41 {fill:#E2EDF5}
    .fil42 {fill:#E1ECF5}
    .fil43 {fill:#E1ECF5}
    .fil44 {fill:#E0ECF5}
    .fil45 {fill:#E0EBF4}
    .fil46 {fill:#DFEBF4}
    .fil47 {fill:#DEEAF4}
    .fil48 {fill:#DDE9F2}
    .fil49 {fill:#DCE8F2}
    .fil50 {fill:#DBE7F2}
    .fil51 {fill:#DBE7F1}
    .fil52 {fill:#DAE6F1}
    .fil53 {fill:#D9E6F1}
    .fil54 {fill:#D8E5F0}
    .fil55 {fill:#D7E4F0}
    .fil56 {fill:#D6E3EE}
    .fil57 {fill:#D5E2EE}
    .fil58 {fill:#D5E2EE}
    .fil59 {fill:#D5E1ED}
    .fil60 {fill:#D4E1ED}
    .fil61 {fill:#D3E0EC}
    .fil62 {fill:#D3E0EC}
    .fil63 {fill:#D2DFEB}
    .fil64 {fill:#D1DFEB}
    .fil65 {fill:#D1DEEA}
    .fil66 {fill:#D0DEEA}
    .fil67 {fill:#D0DDE9}
    .fil68 {fill:#CFDCE9}
    .fil69 {fill:#CEDBE8}
    .fil70 {fill:#CDD9E6}
    .fil71 {fill:#CCD8E5}
    .fil72 {fill:#CAD7E4}
    .fil73 {fill:#C8D6E3}
    .fil74 {fill:#C8D5E2}
    .fil75 {fill:#C6D3E0}
    .fil76 {fill:#C5D2DE}
    .fil77 {fill:#C3D0DC}
    .fil78 {fill:#C2CEDA}
    .fil79 {fill:#C0CDD9}
    .fil80 {fill:#BFCBD7}
    .fil81 {fill:#BEC9D5}
    .fil82 {fill:#BBC7D3}
    .fil83 {fill:#BAC5D1}
    .fil84 {fill:#B8C3CE}
    .fil85 {fill:#B7C2CC}
    .fil86 {fill:#B4BFCA}
    .fil87 {fill:#B3BDC8}
    .fil88 {fill:#B1BBC6}
    .fil89 {fill:#B0B9C3}
    .fil90 {fill:#ADB6C0}
    .fil91 {fill:#ABB4BE}
    .fil92 {fill:#AAB2BC}
    .fil93 {fill:#A8B0BA}
    .fil94 {fill:#A5AEB7}
    .fil95 {fill:#A4ACB4}
    .fil96 {fill:#A2AAB2}
    .fil97 {fill:#9FA7AF}
    .fil98 {fill:#9EA5AD}
    .fil99 {fill:#9CA3AB}
    .fil100 {fill:#99A0A8}
    .fil101 {fill:#989EA5}
    .fil102 {fill:#969CA3}
    .fil103 {fill:#949AA1}
    .fil104 {fill:#92989E}
    .fil105 {fill:#90969C}
    .fil106 {fill:#8E9399}
    .fil107 {fill:#8D9297}
    .fil108 {fill:#8A8F94}
    .fil109 {fill:#888D92}
    .fil110 {fill:#878B90}
    .fil111 {fill:#85898D}
    .fil112 {fill:#83878B}
    .fil113 {fill:#818488}
    .fil114 {fill:#7F8386}
    .fil115 {fill:#7E8084}
    .fil116 {fill:#7C7E81}
    .fil117 {fill:#7B7D7F}
    .fil118 {fill:#797B7D}
    .fil119 {fill:#78797B}
    .fil120 {fill:#767779}
    .fil121 {fill:#757577}
    .fil122 {fill:#737476}
    .fil123 {fill:#727274}
    .fil124 {fill:#707072}
    .fil125 {fill:#6F6E70}
    .fil126 {fill:#6E6D6E}
    .fil127 {fill:#6C6B6D}
    .fil128 {fill:#6B6A6B}
    .fil129 {fill:#6A6969}
    .fil130 {fill:#696768}
    .fil131 {fill:#676666}
    .fil132 {fill:#666565}
    .fil133 {fill:#656364}
    .fil134 {fill:#656262}
    .fil135 {fill:#646161}
    .fil136 {fill:#636060}
    .fil137 {fill:#625F5F}
    .fil138 {fill:#615E5E}
    .fil139 {fill:#605D5D}
    .fil140 {fill:#5F5C5C}
    .fil141 {fill:#5F5C5B}
    .fil142 {fill:#5E5B5A}
    .fil143 {fill:#5D5A59}
    .fil144 {fill:#5D5959}
    .fil145 {fill:#5C5958}
    .fil146 {fill:#5C5958}
    .fil147 {fill:#5C5857}
    .fil148 {fill:#5B5857}
    .fil149 {fill:#5B5756}
    .fil150 {fill:#5B5756}
    .fil151 {fill:#5A5756}
    .fil0 {fill:#5A5655}
    .fil153 {fill:#003AAD}
    .fil152 {fill:url(#id1)}
    .fil154 {fill:url(#id2)}
   ]]>
  </style>
     <clipPath id="id0">
      <path d="M833.35 2074.94l571.83 0 0 -2074.94c-100.32,0 -252.9,0 -353.22,0 114.99,629.67 491.34,1026.92 -218.61,2074.94z"/>
     </clipPath>
  <linearGradient id="id1" gradientUnits="userSpaceOnUse" x1="985.86" y1="2067.14" x2="794.41" y2="7.8">
   <stop offset="0" style="stop-opacity:1; stop-color:#000066"/>
   <stop offset="0.490196" style="stop-opacity:1; stop-color:#022AAC"/>
   <stop offset="1" style="stop-opacity:1; stop-color:#0554F2"/>
  </linearGradient>
  <linearGradient id="id2" gradientUnits="userSpaceOnUse" x1="697.82" y1="1644.4" x2="741.48" y2="2083.5">
   <stop offset="0" style="stop-opacity:1; stop-color:#000066"/>
   <stop offset="0.768627" style="stop-opacity:1; stop-color:#00239E"/>
   <stop offset="1" style="stop-opacity:1; stop-color:#0047D6"/>
  </linearGradient>
 </defs>
 <g id="Layer_x0020_1">
  <metadata id="CorelCorpID_0Corel-Layer"/>
  <g id="_2126115197264">
   <g>
    <g style="clip-path:url(#id0)">
     <polygon class="fil0" points="1185.76,3369.84 751.4,1773.81 1187.5,-799.86 1621.86,796.18 "/>
     <path id="_1" class="fil1" d="M1534.37 1312.59c65.81,-388.35 186.76,-454.75 270.15,-148.32 83.4,306.43 97.66,869.67 31.86,1258.02 -65.81,388.35 -186.76,454.76 -270.16,148.32 -83.39,-306.43 -97.65,-869.66 -31.85,-1258.02zm-3.71 -13.64c-67.42,397.9 -52.81,974.99 32.63,1288.96 85.45,313.97 209.38,245.92 276.8,-151.98 67.42,-397.9 52.81,-974.98 -32.64,-1288.95 -85.44,-313.97 -209.37,-245.93 -276.79,151.97z"/>
     <path id="_2" class="fil1" d="M1531.9 1303.5c66.88,-394.72 189.81,-462.22 274.58,-150.76 84.76,311.46 99.25,883.93 32.37,1278.65 -66.88,394.71 -189.82,462.21 -274.58,150.75 -84.76,-311.46 -99.26,-883.92 -32.37,-1278.64zm-3.72 -13.64c-68.5,404.26 -53.65,990.58 33.16,1309.57 86.81,319 212.72,249.87 281.22,-154.4 68.51,-404.27 53.66,-990.59 -33.15,-1309.58 -86.82,-318.99 -212.73,-249.86 -281.23,154.41z"/>
     <path id="_3" class="fil2" d="M1529.42 1294.4c67.96,-401.08 192.88,-469.67 279.01,-153.19 86.13,316.49 100.86,898.19 32.9,1299.27 -67.97,401.09 -192.88,469.67 -279.01,153.19 -86.13,-316.48 -100.86,-898.18 -32.9,-1299.27zm-3.71 -13.64c-69.58,410.63 -54.5,1006.19 33.68,1330.2 88.18,324.02 216.07,253.8 285.65,-156.84 69.58,-410.63 54.5,-1006.18 -33.68,-1330.2 -88.18,-324.01 -216.07,-253.8 -285.65,156.84z"/>
     <path id="_4" class="fil2" d="M1526.95 1285.31c69.04,-407.45 195.94,-477.13 283.43,-155.62 87.5,321.5 102.46,912.44 33.42,1319.89 -69.04,407.45 -195.94,477.12 -283.44,155.62 -87.49,-321.51 -102.46,-912.44 -33.41,-1319.89zm-3.72 -13.65c-70.66,417 -55.34,1021.79 34.2,1350.83 89.55,329.04 219.43,257.73 290.09,-159.27 70.65,-417 55.34,-1021.78 -34.21,-1350.82 -89.55,-329.04 -219.42,-257.74 -290.08,159.26z"/>
     <path id="_5" class="fil2" d="M1524.47 1276.21c70.12,-413.82 199,-484.58 287.87,-158.05 88.86,326.53 104.06,926.7 33.94,1340.51 -70.12,413.82 -199,484.58 -287.87,158.05 -88.86,-326.52 -104.06,-926.69 -33.94,-1340.51zm-3.71 -13.64c-71.74,423.36 -56.2,1037.38 34.72,1371.45 90.92,334.06 222.77,261.66 294.51,-161.7 71.74,-423.37 56.19,-1037.39 -34.72,-1371.45 -90.92,-334.06 -222.78,-261.67 -294.51,161.7z"/>
     <path id="_6" class="fil2" d="M1521.99 1267.12c71.2,-420.19 202.07,-492.04 292.3,-160.49 90.23,331.55 105.66,940.95 34.46,1361.14 -71.19,420.18 -202.06,492.03 -292.29,160.48 -90.23,-331.55 -105.66,-940.95 -34.47,-1361.13zm-3.71 -13.65c-72.82,429.74 -57.04,1052.99 35.25,1392.07 92.28,339.09 226.12,265.61 298.94,-164.13 72.81,-429.73 57.03,-1052.98 -35.25,-1392.07 -92.28,-339.09 -226.12,-265.6 -298.94,164.13z"/>
     <path id="_7" class="fil2" d="M1519.52 1258.02c72.28,-426.55 205.13,-499.49 296.72,-162.92 91.6,336.58 107.27,955.21 34.99,1381.76 -72.28,426.56 -205.13,499.49 -296.73,162.92 -91.59,-336.58 -107.26,-955.21 -34.98,-1381.76zm-3.71 -13.64c-73.9,436.1 -57.89,1068.58 35.76,1412.69 93.65,344.11 229.48,269.54 303.37,-166.56 73.9,-436.1 57.88,-1068.59 -35.77,-1412.7 -93.65,-344.11 -229.47,-269.53 -303.36,166.57z"/>
     <path id="_8" class="fil3" d="M1517.04 1248.92c73.36,-432.91 208.19,-506.94 301.16,-165.34 92.96,341.6 108.86,969.46 35.5,1402.38 -73.35,432.92 -208.18,506.94 -301.15,165.35 -92.97,-341.6 -108.86,-969.47 -35.51,-1402.39zm-3.71 -13.64c-74.97,442.47 -58.73,1084.18 36.29,1433.32 95.02,349.13 232.82,273.47 307.8,-169 74.97,-442.46 58.72,-1084.18 -36.29,-1433.31 -95.02,-349.14 -232.83,-273.48 -307.8,168.99z"/>
     <path id="_9" class="fil3" d="M1514.57 1239.83c74.43,-439.28 211.25,-514.4 305.58,-167.78 94.33,346.62 110.47,983.72 36.03,1423.01 -74.43,439.28 -211.25,514.4 -305.58,167.77 -94.34,-346.62 -110.47,-983.72 -36.03,-1423zm-3.71 -13.65c-76.06,448.84 -59.58,1099.79 36.81,1453.95 96.38,354.15 236.17,277.4 312.22,-171.43 76.06,-448.83 59.57,-1099.78 -36.81,-1453.94 -96.38,-354.16 -236.17,-277.41 -312.22,171.42z"/>
     <path id="_10" class="fil3" d="M1512.09 1230.73c75.52,-445.65 214.31,-521.85 310.01,-170.21 95.7,351.65 112.07,997.98 36.56,1443.63 -75.52,445.65 -214.32,521.86 -310.02,170.21 -95.7,-351.64 -112.06,-997.98 -36.55,-1443.63zm-3.71 -13.64c-77.13,455.2 -60.42,1115.38 37.33,1474.56 97.76,359.18 239.53,281.34 316.66,-173.85 77.13,-455.2 60.42,-1115.39 -37.34,-1474.57 -97.75,-359.18 -239.52,-281.34 -316.65,173.86z"/>
     <path id="_11" class="fil3" d="M1509.62 1221.64c76.59,-452.02 217.37,-529.31 314.44,-172.65 97.06,356.67 113.66,1012.24 37.07,1464.26 -76.59,452.01 -217.37,529.31 -314.44,172.64 -97.07,-356.67 -113.67,-1012.24 -37.07,-1464.25zm-3.72 -13.65c-78.21,461.57 -61.26,1130.99 37.86,1495.19 99.12,364.2 242.87,285.28 321.08,-176.29 78.21,-461.56 61.27,-1130.98 -37.85,-1495.19 -99.12,-364.2 -242.88,-285.27 -321.09,176.29z"/>
     <path id="_12" class="fil4" d="M1507.14 1212.54c77.67,-458.38 220.44,-536.76 318.87,-175.07 98.43,361.69 115.27,1026.49 37.6,1484.87 -77.68,458.39 -220.44,536.77 -318.87,175.08 -98.44,-361.7 -115.27,-1026.5 -37.6,-1484.88zm-3.71 -13.64c-79.29,467.93 -62.11,1146.58 38.38,1515.81 100.48,369.23 246.22,289.21 325.51,-178.72 79.29,-467.93 62.11,-1146.59 -38.38,-1515.81 -100.49,-369.23 -246.22,-289.22 -325.51,178.72z"/>
     <path id="_13" class="fil4" d="M1504.67 1203.44c78.75,-464.74 223.49,-544.22 323.29,-177.5 99.81,366.72 116.87,1040.75 38.12,1505.5 -78.75,464.75 -223.49,544.22 -323.3,177.5 -99.8,-366.71 -116.86,-1040.75 -38.11,-1505.5zm-3.72 -13.64c-80.36,474.3 -62.95,1162.18 38.9,1536.44 101.86,374.25 249.58,293.14 329.94,-181.16 80.37,-474.29 62.96,-1162.18 -38.9,-1536.43 -101.85,-374.25 -249.57,-293.15 -329.94,181.15z"/>
     <path id="_14" class="fil4" d="M1502.19 1194.35c79.83,-471.12 226.56,-551.68 327.73,-179.94 101.17,371.74 118.47,1055.01 38.64,1526.13 -79.83,471.11 -226.56,551.67 -327.73,179.93 -101.17,-371.74 -118.47,-1055.01 -38.64,-1526.12zm-3.71 -13.65c-81.45,480.67 -63.8,1177.79 39.42,1557.06 103.22,379.28 252.92,297.08 334.37,-183.58 81.45,-480.67 63.8,-1177.78 -39.42,-1557.06 -103.22,-379.27 -252.93,-297.08 -334.37,183.58z"/>
     <path id="_15" class="fil4" d="M1499.72 1185.25c80.9,-477.48 229.61,-559.13 332.15,-182.36 102.54,376.76 120.07,1069.26 39.16,1546.74 -80.91,477.48 -229.62,559.13 -332.15,182.37 -102.54,-376.76 -120.07,-1069.27 -39.16,-1546.75zm-3.72 -13.64c-82.52,487.03 -64.64,1193.38 39.95,1577.68 104.59,384.3 256.27,301.02 338.8,-186.01 82.52,-487.04 64.64,-1193.39 -39.95,-1577.69 -104.59,-384.29 -256.27,-301.01 -338.8,186.02z"/>
     <path id="_16" class="fil5" d="M1497.24 1176.16c81.99,-483.85 232.68,-566.59 336.58,-184.8 103.91,381.78 121.67,1083.52 39.69,1567.37 -81.99,483.85 -232.68,566.58 -336.59,184.8 -103.9,-381.79 -121.67,-1083.53 -39.68,-1567.37zm-3.71 -13.65c-83.61,493.4 -65.49,1208.99 40.46,1598.31 105.96,389.32 259.63,304.95 343.23,-188.45 83.61,-493.4 65.49,-1208.98 -40.47,-1598.3 -105.95,-389.32 -259.62,-304.95 -343.22,188.44z"/>
     <path id="_17" class="fil5" d="M1494.76 1167.06c83.07,-490.21 235.75,-574.04 341.02,-187.23 105.27,386.81 123.27,1097.78 40.2,1587.99 -83.06,490.22 -235.74,574.04 -341.01,187.23 -105.27,-386.81 -123.27,-1097.78 -40.21,-1587.99zm-3.71 -13.64c-84.68,499.76 -66.33,1224.58 40.99,1618.92 107.32,394.35 262.97,308.89 347.66,-190.87 84.68,-499.77 66.33,-1224.59 -40.99,-1618.93 -107.32,-394.35 -262.97,-308.89 -347.66,190.88z"/>
     <path id="_18" class="fil5" d="M1492.29 1157.97c84.14,-496.59 238.8,-581.5 345.44,-189.67 106.64,391.84 124.87,1112.04 40.73,1608.62 -84.15,496.58 -238.8,581.49 -345.44,189.66 -106.64,-391.83 -124.88,-1112.03 -40.73,-1608.61zm-3.71 -13.65c-85.77,506.13 -67.18,1240.18 41.51,1639.55 108.69,399.37 266.32,312.82 352.08,-193.31 85.76,-506.13 67.18,-1240.18 -41.51,-1639.55 -108.69,-399.37 -266.32,-312.82 -352.08,193.31z"/>
     <path id="_19" class="fil6" d="M1489.81 1148.87c85.23,-502.95 241.87,-588.95 349.87,-192.09 108.01,396.85 126.48,1126.29 41.25,1629.23 -85.22,502.95 -241.86,588.95 -349.87,192.1 -108,-396.86 -126.47,-1126.29 -41.25,-1629.24zm-3.71 -13.64c-86.84,512.49 -68.02,1255.78 42.03,1660.17 110.06,404.39 269.68,316.76 356.52,-195.74 86.84,-512.5 68.02,-1255.78 -42.04,-1660.18 -110.05,-404.39 -269.67,-316.75 -356.51,195.75z"/>
     <path id="_20" class="fil6" d="M1487.34 1139.77c86.3,-509.31 244.92,-596.4 354.3,-194.52 109.37,401.88 128.07,1140.55 41.77,1649.86 -86.3,509.31 -244.93,596.41 -354.3,194.53 -109.37,-401.88 -128.07,-1140.55 -41.77,-1649.87zm-3.71 -13.64c-87.93,518.86 -68.87,1271.38 42.55,1680.8 111.42,409.41 273.02,320.69 360.94,-198.18 87.92,-518.86 68.87,-1271.38 -42.55,-1680.79 -111.43,-409.42 -273.03,-320.69 -360.94,198.17z"/>
     <path id="_21" class="fil7" d="M1484.86 1130.68c87.38,-515.68 247.99,-603.86 358.73,-196.96 110.74,406.9 129.68,1154.81 42.29,1670.49 -87.38,515.68 -247.98,603.86 -358.72,196.95 -110.74,-406.9 -129.68,-1154.8 -42.3,-1670.48zm-3.71 -13.65c-89,525.23 -69.71,1286.99 43.08,1701.42 112.79,414.44 276.37,324.63 365.37,-200.6 89,-525.23 69.71,-1286.98 -43.08,-1701.42 -112.79,-414.44 -276.37,-324.63 -365.37,200.6z"/>
     <path id="_22" class="fil8" d="M1482.39 1121.58c88.46,-522.04 251.05,-611.31 363.15,-199.39 112.11,411.93 131.28,1169.07 42.82,1691.11 -88.46,522.05 -251.05,611.32 -363.16,199.39 -112.1,-411.93 -131.27,-1169.06 -42.81,-1691.11zm-3.72 -13.64c-90.07,531.59 -70.55,1302.58 43.6,1722.04 114.16,419.46 279.73,328.56 369.8,-203.03 90.08,-531.6 70.56,-1302.58 -43.6,-1722.05 -114.15,-419.46 -279.72,-328.56 -369.8,203.04z"/>
     <path id="_23" class="fil8" d="M1479.91 1112.49c89.54,-528.42 254.11,-618.77 367.59,-201.82 113.47,416.95 132.87,1183.32 43.34,1711.73 -89.54,528.41 -254.12,618.77 -367.59,201.82 -113.47,-416.95 -132.88,-1183.32 -43.34,-1711.73zm-3.71 -13.65c-91.16,537.96 -71.4,1318.18 44.12,1742.67 115.53,424.49 283.07,332.49 374.23,-205.47 91.16,-537.96 71.4,-1318.18 -44.12,-1742.66 -115.53,-424.49 -283.08,-332.5 -374.23,205.46z"/>
     <path id="_24" class="fil8" d="M1477.44 1103.39c90.61,-534.78 257.17,-626.23 372.01,-204.25 114.84,421.97 134.48,1197.57 43.86,1732.35 -90.62,534.78 -257.17,626.23 -372.01,204.26 -114.84,-421.98 -134.48,-1197.58 -43.86,-1732.36zm-3.72 -13.64c-92.23,544.33 -72.24,1333.78 44.65,1763.29 116.89,429.51 286.42,336.43 378.65,-207.9 92.24,-544.33 72.25,-1333.78 -44.64,-1763.29 -116.89,-429.51 -286.42,-336.43 -378.66,207.9z"/>
     <path id="_25" class="fil9" d="M1474.96 1094.29c91.7,-541.14 260.24,-633.68 376.44,-206.68 116.21,427 136.08,1211.83 44.39,1752.98 -91.7,541.15 -260.24,633.68 -376.44,206.68 -116.21,-426.99 -136.08,-1211.83 -44.39,-1752.98zm-3.71 -13.64c-93.32,550.7 -73.09,1349.38 45.17,1783.91 118.25,434.54 289.77,340.37 383.08,-210.33 93.31,-550.69 73.09,-1349.38 -45.17,-1783.91 -118.26,-434.53 -289.77,-340.37 -383.08,210.33z"/>
     <path id="_26" class="fil10" d="M1472.49 1085.2c92.77,-547.51 263.29,-641.14 380.87,-209.12 117.57,432.02 137.68,1226.09 44.9,1773.61 -92.77,547.51 -263.29,641.13 -380.87,209.11 -117.57,-432.02 -137.68,-1226.09 -44.9,-1773.6zm-3.72 -13.65c-94.39,557.07 -73.93,1364.98 45.69,1804.54 119.63,439.56 293.12,344.3 387.51,-212.76 94.4,-557.06 73.94,-1364.98 -45.68,-1804.54 -119.63,-439.55 -293.13,-344.3 -387.52,212.76z"/>
     <path id="_27" class="fil11" d="M1470.01 1076.1c93.85,-553.88 266.36,-648.59 385.3,-211.54 118.94,437.04 139.28,1240.34 45.43,1794.22 -93.86,553.88 -266.36,648.59 -385.3,211.55 -118.94,-437.05 -139.28,-1240.35 -45.43,-1794.23zm-3.71 -13.64c-95.47,563.43 -74.79,1380.58 46.21,1825.16 120.99,444.58 296.47,348.23 391.94,-215.19 95.47,-563.43 74.78,-1380.58 -46.21,-1825.17 -120.99,-444.57 -296.47,-348.23 -391.94,215.2z"/>
     <path id="_28" class="fil11" d="M1467.53 1067.01c94.94,-560.25 269.42,-656.05 389.73,-213.98 120.31,442.07 140.88,1254.6 45.95,1814.85 -94.93,560.24 -269.42,656.04 -389.72,213.97 -120.31,-442.06 -140.89,-1254.6 -45.96,-1814.84zm-3.71 -13.65c-96.55,569.8 -75.63,1396.18 46.74,1845.79 122.35,449.6 299.82,352.17 396.37,-217.63 96.55,-569.79 75.62,-1396.18 -46.74,-1845.78 -122.36,-449.61 -299.82,-352.17 -396.37,217.62z"/>
     <path id="_29" class="fil11" d="M1465.06 1057.91c96.01,-566.61 272.48,-663.5 394.16,-216.41 121.67,447.09 142.48,1268.86 46.47,1835.47 -96.01,566.61 -272.48,663.5 -394.16,216.41 -121.67,-447.09 -142.48,-1268.86 -46.47,-1835.47zm-3.71 -13.64c-97.63,576.16 -76.48,1411.78 47.25,1866.4 123.73,454.63 303.17,356.11 400.8,-220.05 97.63,-576.16 76.47,-1411.78 -47.25,-1866.41 -123.73,-454.63 -303.18,-356.1 -400.8,220.06z"/>
     <path id="_30" class="fil12" d="M1462.58 1048.81c97.09,-572.97 275.55,-670.95 398.59,-218.84 123.04,452.12 144.08,1283.12 46.99,1856.1 -97.09,572.98 -275.54,670.96 -398.58,218.84 -123.04,-452.11 -144.09,-1283.12 -47,-1856.1zm-3.71 -13.64c-98.71,582.53 -77.32,1427.38 47.78,1887.03 125.09,459.65 306.52,360.04 405.23,-222.49 98.7,-582.52 77.31,-1427.38 -47.78,-1887.03 -125.1,-459.65 -306.52,-360.04 -405.23,222.49z"/>
     <path id="_31" class="fil12" d="M1460.11 1039.72c98.17,-579.34 278.6,-678.41 403.01,-221.27 124.41,457.14 145.69,1297.37 47.52,1876.72 -98.17,579.34 -278.6,678.41 -403.01,221.27 -124.42,-457.14 -145.69,-1297.38 -47.52,-1876.72zm-3.72 -13.64c-99.78,588.89 -78.16,1442.97 48.31,1907.65 126.46,464.67 309.87,363.97 409.65,-224.92 99.79,-588.9 78.16,-1442.98 -48.3,-1907.65 -126.46,-464.68 -309.87,-363.98 -409.66,224.92z"/>
     <path id="_32" class="fil13" d="M1457.63 1030.62c99.25,-585.71 281.67,-685.86 407.45,-223.7 125.77,462.16 147.28,1311.63 48.03,1897.34 -99.24,585.71 -281.66,685.87 -407.44,223.71 -125.78,-462.17 -147.28,-1311.64 -48.04,-1897.35zm-3.71 -13.64c-100.87,595.26 -79.01,1458.58 48.82,1928.28 127.83,469.69 313.22,367.9 414.09,-227.36 100.86,-595.26 79,-1458.57 -48.82,-1928.27 -127.83,-469.7 -313.23,-367.91 -414.09,227.35z"/>
     <path id="_33" class="fil13" d="M1455.16 1021.53c100.32,-592.08 284.72,-693.32 411.87,-226.14 127.14,467.19 148.89,1325.89 48.56,1917.97 -100.32,592.07 -284.73,693.32 -411.87,226.13 -127.15,-467.18 -148.89,-1325.89 -48.56,-1917.96zm-3.72 -13.65c-101.94,601.63 -79.85,1474.18 49.35,1948.9 129.19,474.72 316.57,371.85 418.51,-229.78 101.95,-601.63 79.86,-1474.18 -49.34,-1948.9 -129.2,-474.72 -316.57,-371.84 -418.52,229.78z"/>
     <path id="_34" class="fil13" d="M1452.68 1012.43c101.41,-598.44 287.79,-700.78 416.3,-228.57 128.51,472.21 150.49,1340.15 49.09,1938.59 -101.41,598.45 -287.79,700.78 -416.3,228.57 -128.52,-472.21 -150.49,-1340.14 -49.09,-1938.59zm-3.71 -13.64c-103.02,607.99 -80.7,1489.78 49.87,1969.52 130.56,479.75 319.92,375.78 422.94,-232.21 103.02,-608 80.7,-1489.78 -49.87,-1969.53 -130.56,-479.74 -319.92,-375.78 -422.94,232.22z"/>
     <path id="_35" class="fil14" d="M1450.21 1003.34c102.48,-604.81 290.85,-708.24 420.73,-231 129.87,477.23 152.08,1354.4 49.6,1959.21 -102.48,604.81 -290.85,708.23 -420.73,231 -129.88,-477.24 -152.09,-1354.4 -49.6,-1959.21zm-3.72 -13.65c-104.1,614.36 -81.54,1505.38 50.39,1990.15 131.93,484.77 323.27,379.71 427.37,-234.65 104.11,-614.36 81.55,-1505.38 -50.38,-1990.14 -131.93,-484.77 -323.28,-379.72 -427.38,234.64z"/>
     <path id="_36" class="fil15" d="M1447.73 994.24c103.56,-611.18 293.91,-715.69 425.16,-233.43 131.25,482.26 153.69,1368.66 50.13,1979.83 -103.56,611.18 -293.91,715.69 -425.16,233.43 -131.25,-482.25 -153.69,-1368.65 -50.13,-1979.83zm-3.71 -13.64c-105.18,620.72 -82.39,1520.97 50.91,2010.77 133.3,489.79 326.62,383.64 431.8,-237.08 105.18,-620.73 82.39,-1520.98 -50.91,-2010.77 -133.3,-489.79 -326.62,-383.65 -431.8,237.08z"/>
     <path id="_37" class="fil16" d="M1445.26 985.14c104.64,-617.54 296.97,-723.14 429.58,-235.86 132.62,487.28 155.29,1382.92 50.65,2000.46 -104.64,617.54 -296.97,723.14 -429.58,235.86 -132.62,-487.28 -155.3,-1382.91 -50.65,-2000.46zm-3.72 -13.64c-106.26,627.09 -83.23,1536.58 51.44,2031.39 134.66,494.82 329.97,387.59 436.23,-239.51 106.25,-627.09 83.23,-1536.57 -51.44,-2031.39 -134.66,-494.81 -329.97,-387.58 -436.23,239.51z"/>
     <path id="_38" class="fil16" d="M1442.78 976.05c105.72,-623.91 300.03,-730.6 434.02,-238.3 133.98,492.31 156.89,1397.18 51.17,2021.09 -105.72,623.91 -300.04,730.59 -434.02,238.29 -133.98,-492.3 -156.89,-1397.17 -51.17,-2021.08zm-3.71 -13.65c-107.34,633.46 -84.08,1552.18 51.95,2052.02 136.03,499.84 333.32,391.52 440.66,-241.94 107.34,-633.46 84.08,-1552.18 -51.95,-2052.02 -136.04,-499.84 -333.33,-391.51 -440.66,241.94z"/>
     <path id="_39" class="fil17" d="M1440.3 966.95c106.8,-630.27 303.1,-738.05 438.45,-240.72 135.35,497.32 158.49,1411.43 51.69,2041.7 -106.79,630.28 -303.09,738.05 -438.44,240.73 -135.35,-497.33 -158.49,-1411.43 -51.7,-2041.71zm-3.71 -13.64c-108.41,639.82 -84.92,1567.78 52.48,2072.64 137.4,504.86 336.67,395.45 445.09,-244.37 108.41,-639.83 84.92,-1567.78 -52.48,-2072.64 -137.4,-504.87 -336.67,-395.46 -445.09,244.37z"/>
     <path id="_40" class="fil17" d="M1437.83 957.86c107.88,-636.65 306.16,-745.51 442.87,-243.16 136.72,502.35 160.1,1425.69 52.22,2062.33 -107.88,636.64 -306.16,745.51 -442.87,243.15 -136.72,-502.35 -160.1,-1425.68 -52.22,-2062.32zm-3.71 -13.65c-109.5,646.19 -85.77,1583.38 53,2093.27 138.76,509.88 340.02,399.38 449.51,-246.81 109.5,-646.19 85.77,-1583.38 -53,-2093.26 -138.76,-509.89 -340.02,-399.39 -449.51,246.8z"/>
     <path id="_41" class="fil18" d="M1435.35 948.76c108.96,-643.01 309.22,-752.96 447.31,-245.59 138.08,507.38 161.69,1439.95 52.73,2082.95 -108.95,643.01 -309.22,752.97 -447.3,245.59 -138.08,-507.37 -161.69,-1439.94 -52.74,-2082.95zm-3.71 -13.64c-110.57,652.55 -86.61,1598.97 53.52,2113.88 140.14,514.91 343.37,403.33 453.95,-249.23 110.57,-652.56 86.61,-1598.98 -53.52,-2113.89 -140.14,-514.91 -343.38,-403.32 -453.95,249.24z"/>
     <path id="_42" class="fil18" d="M1432.88 939.66c110.03,-649.37 312.28,-760.41 451.73,-248.01 139.45,512.39 163.29,1454.19 53.26,2103.57 -110.03,649.37 -312.28,760.42 -451.73,248.02 -139.45,-512.4 -163.3,-1454.2 -53.26,-2103.58zm-3.71 -13.64c-111.66,658.92 -87.46,1614.58 54.04,2134.51 141.5,519.93 346.72,407.26 458.37,-251.67 111.65,-658.92 87.46,-1614.57 -54.04,-2134.51 -141.5,-519.93 -346.72,-407.25 -458.37,251.67z"/>
     <path id="_43" class="fil19" d="M1430.4 930.57c111.12,-655.74 315.35,-767.87 456.16,-250.45 140.82,517.42 164.9,1468.45 53.79,2124.2 -111.12,655.74 -315.35,767.87 -456.16,250.45 -140.82,-517.42 -164.9,-1468.46 -53.79,-2124.2zm-3.71 -13.64c-112.73,665.29 -88.3,1630.17 54.57,2155.13 142.86,524.95 350.07,411.19 462.8,-254.1 112.73,-665.29 88.3,-1630.18 -54.57,-2155.13 -142.87,-524.96 -350.07,-411.2 -462.8,254.1z"/>
     <path id="_44" class="fil19" d="M1427.93 921.47c112.19,-662.11 318.4,-775.32 460.59,-252.88 142.18,522.44 166.49,1482.71 54.3,2144.82 -112.19,662.11 -318.4,775.33 -460.59,252.88 -142.18,-522.44 -166.49,-1482.71 -54.3,-2144.82zm-3.72 -13.64c-113.81,671.66 -89.14,1645.78 55.09,2175.75 144.24,529.98 353.42,415.13 467.23,-256.53 113.81,-671.65 89.15,-1645.77 -55.08,-2175.75 -144.24,-529.98 -353.43,-415.13 -467.24,256.53z"/>
     <path id="_45" class="fil20" d="M1425.45 912.38c113.27,-668.48 321.47,-782.79 465.02,-255.32 143.55,527.47 168.1,1496.97 54.83,2165.45 -113.27,668.47 -321.47,782.78 -465.02,255.31 -143.55,-527.47 -168.1,-1496.97 -54.83,-2165.44zm-3.71 -13.65c-114.89,678.03 -89.99,1661.38 55.61,2196.38 145.6,535.01 356.77,419.06 471.66,-258.96 114.89,-678.02 89.99,-1661.38 -55.61,-2196.38 -145.6,-535 -356.77,-419.06 -471.66,258.96z"/>
     <path id="_46" class="fil20" d="M1422.98 903.28c114.35,-674.84 324.52,-790.24 469.44,-257.74 144.92,532.49 169.7,1511.22 55.35,2186.06 -114.35,674.84 -324.53,790.24 -469.44,257.75 -144.92,-532.49 -169.7,-1511.23 -55.35,-2186.07zm-3.72 -13.64c-115.96,684.39 -90.83,1676.97 56.14,2217 146.96,540.03 360.12,423 476.08,-261.39 115.97,-684.39 90.84,-1676.98 -56.13,-2217.01 -146.97,-540.02 -360.12,-422.99 -476.09,261.4z"/>
     <path id="_47" class="fil21" d="M1420.5 894.18c115.43,-681.2 327.59,-797.69 473.87,-260.17 146.29,537.51 171.3,1525.48 55.88,2206.69 -115.43,681.21 -327.59,797.69 -473.88,260.18 -146.28,-537.52 -171.3,-1525.49 -55.87,-2206.7zm-3.71 -13.64c-117.05,690.76 -91.68,1692.58 56.65,2237.63 148.34,545.05 363.47,426.93 480.52,-263.83 117.05,-690.75 91.68,-1692.57 -56.66,-2237.62 -148.33,-545.05 -363.47,-426.93 -480.51,263.82z"/>
     <path id="_48" class="fil21" d="M1418.03 885.09c116.5,-687.57 330.65,-805.15 478.3,-262.61 147.65,542.54 172.9,1539.74 56.39,2227.31 -116.5,687.58 -330.65,805.15 -478.3,262.61 -147.65,-542.53 -172.9,-1539.74 -56.39,-2227.31zm-3.72 -13.64c-118.12,697.12 -92.52,1708.17 57.18,2258.24 149.7,550.08 366.82,430.87 484.95,-266.25 118.12,-697.12 92.52,-1708.18 -57.18,-2258.25 -149.71,-550.07 -366.82,-430.87 -484.95,266.26z"/>
     <path id="_49" class="fil22" d="M1415.55 875.99c117.59,-693.94 333.71,-812.6 482.73,-265.04 149.02,547.56 174.5,1554 56.92,2247.94 -117.59,693.94 -333.71,812.6 -482.73,265.04 -149.02,-547.56 -174.51,-1554 -56.92,-2247.94zm-3.71 -13.64c-119.21,703.49 -93.37,1723.77 57.7,2278.87 151.07,555.1 370.17,434.8 489.37,-268.69 119.2,-703.48 93.37,-1723.77 -57.7,-2278.87 -151.07,-555.1 -370.17,-434.8 -489.37,268.69z"/>
     <path id="_50" class="fil22" d="M1413.08 866.9c118.66,-700.31 336.77,-820.06 487.15,-267.47 150.39,552.58 176.11,1568.25 57.44,2268.56 -118.66,700.3 -336.77,820.05 -487.16,267.47 -150.38,-552.59 -176.1,-1568.26 -57.43,-2268.56zm-3.72 -13.65c-120.28,709.86 -94.22,1739.38 58.22,2299.5 152.44,560.12 373.52,438.74 493.81,-271.12 120.28,-709.86 94.21,-1739.38 -58.23,-2299.5 -152.43,-560.12 -373.52,-438.73 -493.8,271.12z"/>
     <path id="_51" class="fil23" d="M1410.6 857.8c119.74,-706.67 339.83,-827.51 491.59,-269.9 151.75,557.61 177.7,1582.51 57.96,2289.18 -119.75,706.67 -339.84,827.52 -491.59,269.91 -151.75,-557.61 -177.7,-1582.52 -57.96,-2289.19zm-3.71 -13.64c-121.37,716.22 -95.07,1754.97 58.74,2320.12 153.8,565.14 376.87,442.67 498.23,-273.55 121.36,-716.23 95.06,-1754.98 -58.74,-2320.12 -153.81,-565.15 -376.87,-442.67 -498.23,273.55z"/>
     <path id="_52" class="fil24" d="M1408.12 848.71c120.83,-713.04 342.9,-834.97 496.02,-272.34 153.12,562.63 179.31,1596.77 58.48,2309.81 -120.82,713.04 -342.89,834.97 -496.01,272.33 -153.12,-562.63 -179.31,-1596.77 -58.49,-2309.8zm-3.71 -13.65c-122.44,722.59 -95.91,1770.58 59.27,2340.74 155.17,570.17 380.22,446.61 502.66,-275.98 122.44,-722.59 95.9,-1770.57 -59.27,-2340.74 -155.17,-570.17 -380.22,-446.61 -502.66,275.98z"/>
     <path id="_53" class="fil25" d="M1405.65 839.61c121.9,-719.41 345.96,-842.42 500.44,-274.77 154.49,567.66 180.91,1611.03 59.01,2330.43 -121.9,719.41 -345.96,842.43 -500.45,274.77 -154.48,-567.66 -180.9,-1611.02 -59,-2330.43zm-3.71 -13.64c-123.52,728.95 -96.76,1786.17 59.78,2361.36 156.54,575.19 383.57,450.54 507.09,-278.41 123.52,-728.96 96.75,-1786.18 -59.79,-2361.37 -156.53,-575.19 -383.57,-450.54 -507.08,278.42z"/>
     <path id="_54" class="fil26" d="M1403.17 830.51c122.98,-725.77 349.02,-849.87 504.88,-277.19 155.85,572.68 182.5,1625.28 59.52,2351.05 -122.98,725.77 -349.01,849.88 -504.87,277.2 -155.86,-572.68 -182.51,-1625.28 -59.53,-2351.06zm-3.71 -13.64c-124.6,735.32 -97.6,1801.77 60.31,2381.99 157.91,580.21 386.92,454.48 511.52,-280.85 124.6,-735.32 97.59,-1801.77 -60.31,-2381.99 -157.91,-580.21 -386.92,-454.47 -511.52,280.85z"/>
     <path id="_55" class="fil26" d="M1400.7 821.42c124.06,-732.14 352.08,-857.33 509.3,-279.63 157.22,577.7 184.11,1639.54 60.05,2371.68 -124.06,732.13 -352.08,857.33 -509.3,279.63 -157.23,-577.71 -184.11,-1639.54 -60.05,-2371.68zm-3.72 -13.65c-125.67,741.69 -98.44,1817.38 60.84,2402.62 159.27,585.23 390.27,458.41 515.94,-283.28 125.68,-741.69 98.44,-1817.38 -60.83,-2402.61 -159.27,-585.24 -390.27,-458.41 -515.95,283.27z"/>
     <path id="_56" class="fil27" d="M1398.22 812.32c125.14,-738.5 355.14,-864.79 513.73,-282.06 158.59,582.73 185.71,1653.8 60.58,2392.3 -125.14,738.51 -355.15,864.79 -513.74,282.06 -158.59,-582.72 -185.7,-1653.79 -60.57,-2392.3zm-3.71 -13.64c-126.76,748.05 -99.29,1832.97 61.35,2423.23 160.64,590.27 393.62,462.35 520.38,-285.7 126.75,-748.06 99.29,-1832.98 -61.36,-2423.24 -160.64,-590.26 -393.62,-462.35 -520.37,285.71z"/>
     <path id="_57" class="fil27" d="M1395.75 803.23c126.21,-744.87 358.2,-872.25 518.16,-284.5 159.95,587.75 187.31,1668.06 61.09,2412.93 -126.22,744.87 -358.2,872.24 -518.16,284.49 -159.96,-587.75 -187.31,-1668.05 -61.09,-2412.92zm-3.72 -13.65c-127.83,754.42 -100.13,1848.58 61.88,2443.86 162.01,595.29 396.97,466.28 524.8,-288.14 127.84,-754.42 100.14,-1848.57 -61.87,-2443.86 -162.01,-595.28 -396.97,-466.28 -524.81,288.14z"/>
     <path id="_58" class="fil28" d="M1393.27 794.13c127.3,-751.24 361.27,-879.7 522.59,-286.92 161.32,592.77 188.91,1682.31 61.62,2433.54 -127.3,751.24 -361.27,879.7 -522.59,286.93 -161.33,-592.78 -188.91,-1682.31 -61.62,-2433.55zm-3.71 -13.64c-128.91,760.78 -100.98,1864.17 62.4,2464.48 163.37,600.31 400.32,470.21 529.23,-290.57 128.91,-760.79 100.98,-1864.18 -62.4,-2464.48 -163.37,-600.31 -400.32,-470.22 -529.23,290.57z"/>
     <path id="_59" class="fil28" d="M1390.8 785.04c128.37,-757.61 364.32,-887.16 527.01,-289.36 162.69,597.8 190.52,1696.56 62.14,2454.17 -128.37,757.6 -364.33,887.15 -527.02,289.36 -162.69,-597.8 -190.51,-1696.57 -62.13,-2454.17zm-3.72 -13.65c-129.99,767.16 -101.82,1879.77 62.92,2485.11 164.75,605.33 403.67,474.15 533.66,-293.01 130,-767.15 101.83,-1879.77 -62.92,-2485.1 -164.74,-605.33 -403.67,-474.15 -533.66,293z"/>
     <path id="_60" class="fil29" d="M1388.32 775.94c129.45,-763.97 367.39,-894.61 531.45,-291.79 164.06,602.82 192.11,1710.82 62.66,2474.79 -129.45,763.98 -367.39,894.61 -531.45,291.79 -164.06,-602.82 -192.11,-1710.82 -62.66,-2474.79zm-3.71 -13.64c-131.07,773.52 -102.67,1895.37 63.44,2505.72 166.11,610.36 407.02,478.09 538.09,-295.43 131.07,-773.52 102.67,-1895.37 -63.44,-2505.73 -166.11,-610.36 -407.02,-478.08 -538.09,295.44z"/>
     <path id="_61" class="fil30" d="M1385.84 766.84c130.54,-770.33 370.46,-902.06 535.88,-294.22 165.43,607.85 193.71,1725.08 63.18,2495.42 -130.53,770.34 -370.45,902.06 -535.87,294.22 -165.43,-607.84 -193.72,-1725.08 -63.19,-2495.42zm-3.71 -13.64c-132.15,779.89 -103.51,1910.97 63.97,2526.35 167.47,615.38 410.37,482.02 542.52,-297.87 132.15,-779.88 103.51,-1910.97 -63.97,-2526.35 -167.47,-615.38 -410.37,-482.02 -542.52,297.87z"/>
     <path id="_62" class="fil31" d="M1383.37 757.75c131.61,-776.71 373.51,-909.52 540.3,-296.65 166.8,612.86 195.32,1739.33 63.71,2516.04 -131.61,776.7 -373.51,909.52 -540.31,296.65 -166.79,-612.87 -195.31,-1739.34 -63.7,-2516.04zm-3.71 -13.65c-133.23,786.26 -104.36,1926.58 64.48,2546.98 168.85,620.4 413.72,485.95 546.95,-300.3 133.23,-786.25 104.36,-1926.57 -64.49,-2546.97 -168.84,-620.41 -413.72,-485.96 -546.94,300.29z"/>
     <path id="_63" class="fil32" d="M1380.89 748.65c132.69,-783.07 376.58,-916.97 544.74,-299.08 168.16,617.89 196.91,1753.59 64.22,2536.66 -132.68,783.07 -376.57,916.98 -544.73,299.08 -168.16,-617.89 -196.91,-1753.59 -64.23,-2536.66zm-3.71 -13.64c-134.31,792.62 -105.2,1942.17 65.01,2567.6 170.21,625.42 417.07,489.89 551.38,-302.73 134.3,-792.62 105.2,-1942.18 -65.01,-2567.6 -170.21,-625.43 -417.07,-489.89 -551.38,302.73z"/>
     <path id="_64" class="fil32" d="M1378.42 739.56c133.77,-789.44 379.63,-924.43 549.16,-301.52 169.53,622.92 198.52,1767.85 64.75,2557.29 -133.77,789.43 -379.64,924.43 -549.16,301.51 -169.53,-622.91 -198.52,-1767.85 -64.75,-2557.28zm-3.72 -13.65c-135.38,798.99 -106.04,1957.77 65.54,2588.22 171.57,630.45 420.42,493.83 555.8,-305.16 135.39,-798.98 106.05,-1957.77 -65.53,-2588.22 -171.58,-630.45 -420.42,-493.82 -555.81,305.16z"/>
     <path id="_65" class="fil33" d="M1375.94 730.46c134.85,-795.8 382.7,-931.88 553.59,-303.95 170.9,627.94 200.12,1782.11 65.27,2577.91 -134.84,795.81 -382.69,931.89 -553.59,303.95 -170.89,-627.94 -200.11,-1782.11 -65.27,-2577.91zm-3.71 -13.64c-136.46,805.35 -106.89,1973.37 66.05,2608.84 172.95,635.47 423.77,497.76 560.24,-307.59 136.46,-805.35 106.89,-1973.37 -66.06,-2608.85 -172.94,-635.47 -423.77,-497.76 -560.23,307.6z"/>
     <path id="_66" class="fil34" d="M1373.47 721.36c135.92,-802.17 385.76,-939.33 558.02,-306.37 172.26,632.96 201.72,1796.36 65.79,2598.53 -135.92,802.17 -385.76,939.34 -558.02,306.38 -172.26,-632.96 -201.72,-1796.37 -65.79,-2598.54zm-3.72 -13.64c-137.54,811.72 -107.73,1988.97 66.58,2629.47 174.31,640.49 427.12,501.69 564.66,-310.03 137.55,-811.71 107.74,-1988.97 -66.57,-2629.46 -174.31,-640.5 -427.12,-501.7 -564.67,310.02z"/>
     <path id="_67" class="fil35" d="M1370.99 712.27c137.01,-808.54 388.82,-946.8 562.45,-308.81 173.63,637.98 203.32,1810.62 66.32,2619.16 -137.01,808.53 -388.83,946.79 -562.45,308.8 -173.63,-637.98 -203.32,-1810.62 -66.32,-2619.15zm-3.71 -13.65c-138.62,818.09 -108.58,2004.58 67.1,2650.1 175.68,645.52 430.47,505.62 569.09,-312.46 138.62,-818.09 108.58,-2004.57 -67.1,-2650.09 -175.68,-645.52 -430.47,-505.63 -569.09,312.45z"/>
     <path id="_68" class="fil36" d="M1368.52 703.17c138.08,-814.9 391.88,-954.25 566.87,-311.24 175,643.01 204.92,1824.88 66.84,2639.78 -138.08,814.9 -391.88,954.25 -566.88,311.24 -174.99,-643.01 -204.92,-1824.88 -66.83,-2639.78zm-3.72 -13.64c-139.7,824.45 -109.42,2020.17 67.62,2670.71 177.05,650.55 433.82,509.57 573.52,-314.88 139.7,-824.46 109.43,-2020.18 -67.62,-2670.72 -177.04,-650.54 -433.82,-509.56 -573.52,314.89z"/>
     <path id="_69" class="fil36" d="M1366.04 694.08c139.16,-821.27 394.94,-961.71 571.31,-313.68 176.36,648.04 206.52,1839.14 67.36,2660.41 -139.16,821.27 -394.95,961.7 -571.31,313.67 -176.36,-648.03 -206.52,-1839.14 -67.36,-2660.4zm-3.71 -13.65c-140.78,830.82 -110.27,2035.77 68.14,2691.34 178.41,655.57 437.17,513.5 577.95,-317.32 140.78,-830.82 110.27,-2035.77 -68.14,-2691.34 -178.42,-655.56 -437.17,-513.49 -577.95,317.32z"/>
     <path id="_70" class="fil37" d="M1363.57 684.98c140.24,-827.63 398,-969.16 575.73,-316.1 177.73,653.05 208.12,1853.39 67.88,2681.02 -140.24,827.64 -398,969.16 -575.73,316.11 -177.73,-653.06 -208.12,-1853.39 -67.88,-2681.03zm-3.72 -13.64c-141.86,837.18 -111.11,2051.37 68.67,2711.96 179.78,660.59 440.52,517.43 582.38,-319.75 141.85,-837.19 111.11,-2051.37 -68.67,-2711.96 -179.78,-660.6 -440.52,-517.44 -582.38,319.75z"/>
     <path id="_71" class="fil38" d="M1361.09 675.88c141.32,-834 401.07,-976.61 580.16,-318.53 179.1,658.08 209.73,1867.65 68.41,2701.65 -141.32,834 -401.07,976.61 -580.17,318.53 -179.09,-658.07 -209.72,-1867.64 -68.4,-2701.65zm-3.71 -13.64c-142.94,843.55 -111.96,2066.97 69.18,2732.59 181.15,665.61 443.87,521.36 586.81,-322.19 142.94,-843.55 111.96,-2066.97 -69.19,-2732.58 -181.14,-665.62 -443.87,-521.37 -586.8,322.18z"/>
     <path id="_72" class="fil38" d="M1358.61 666.79c142.4,-840.37 404.13,-984.07 584.6,-320.97 180.46,663.11 211.32,1881.91 68.92,2722.28 -142.39,840.36 -404.13,984.06 -584.59,320.96 -180.46,-663.1 -211.32,-1881.9 -68.93,-2722.27zm-3.71 -13.65c-144.01,849.92 -112.8,2082.58 69.71,2753.21 182.52,670.64 447.22,525.31 591.24,-324.61 144.01,-849.92 112.8,-2082.57 -69.71,-2753.21 -182.52,-670.64 -447.22,-525.3 -591.24,324.61z"/>
     <path id="_73" class="fil39" d="M1356.14 657.69c143.48,-846.73 407.19,-991.52 589.02,-323.4 181.83,668.13 212.92,1896.17 69.45,2742.9 -143.48,846.73 -407.19,991.53 -589.02,323.4 -181.83,-668.13 -212.93,-1896.16 -69.45,-2742.9zm-3.71 -13.64c-145.1,856.28 -113.65,2098.17 70.23,2773.83 183.88,675.66 450.57,529.24 595.66,-327.05 145.1,-856.28 113.65,-2098.17 -70.23,-2773.83 -183.88,-675.66 -450.57,-529.23 -595.66,327.05z"/>
     <path id="_74" class="fil40" d="M1353.66 648.6c144.56,-853.1 410.26,-998.98 593.45,-325.83 183.2,673.15 214.53,1910.42 69.97,2763.52 -144.55,853.1 -410.25,998.98 -593.45,325.83 -183.19,-673.15 -214.52,-1910.42 -69.97,-2763.52zm-3.71 -13.65c-146.17,862.65 -114.5,2113.77 70.75,2794.46 185.25,680.68 453.92,533.17 600.1,-329.48 146.17,-862.65 114.49,-2113.77 -70.76,-2794.45 -185.25,-680.69 -453.92,-533.18 -600.09,329.47z"/>
     <path id="_75" class="fil41" d="M1351.19 639.5c145.63,-859.47 413.31,-1006.43 597.88,-328.26 184.56,678.17 216.12,1924.68 70.49,2784.14 -145.63,859.47 -413.31,1006.44 -597.88,328.26 -184.56,-678.17 -216.13,-1924.67 -70.49,-2784.14zm-3.71 -13.64c-147.26,869.01 -115.35,2129.37 71.27,2815.08 186.62,685.7 457.27,537.1 604.52,-331.91 147.25,-869.02 115.34,-2129.37 -71.27,-2815.08 -186.62,-685.71 -457.27,-537.11 -604.52,331.91z"/>
     <path id="_76" class="fil42" d="M1348.71 630.41c146.72,-865.84 416.38,-1013.89 602.31,-330.7 185.93,683.2 217.73,1938.94 71.01,2804.77 -146.71,865.83 -416.37,1013.89 -602.3,330.69 -185.93,-683.2 -217.73,-1938.93 -71.02,-2804.76zm-3.71 -13.65c-148.33,875.38 -116.19,2144.97 71.8,2835.7 187.98,690.73 460.62,541.05 608.95,-334.34 148.33,-875.38 116.18,-2144.97 -71.8,-2835.7 -187.98,-690.73 -460.62,-541.04 -608.95,334.34z"/>
     <path id="_77" class="fil43" d="M1346.24 621.31c147.79,-872.2 419.43,-1021.34 606.73,-333.12 187.3,688.22 219.33,1953.19 71.54,2825.38 -147.79,872.2 -419.44,1021.35 -606.74,333.13 -187.3,-688.22 -219.32,-1953.19 -71.53,-2825.39zm-3.72 -13.64c-149.41,881.74 -117.03,2160.57 72.32,2856.32 189.35,695.75 463.97,544.98 613.38,-336.77 149.41,-881.75 117.03,-2160.57 -72.32,-2856.33 -189.35,-695.75 -463.97,-544.97 -613.38,336.78z"/>
     <path id="_78" class="fil44" d="M1343.76 612.21c148.87,-878.56 422.5,-1028.8 611.17,-335.55 188.66,693.24 220.93,1967.44 72.06,2846.01 -148.87,878.57 -422.5,1028.8 -611.17,335.56 -188.67,-693.25 -220.93,-1967.45 -72.06,-2846.02zm-3.71 -13.64c-150.49,888.12 -117.88,2176.17 72.84,2876.95 190.72,700.78 467.32,548.91 617.81,-339.21 150.49,-888.11 117.87,-2176.16 -72.84,-2876.94 -190.72,-700.78 -467.32,-548.92 -617.81,339.2z"/>
     <path id="_79" class="fil45" d="M1341.29 603.12c149.95,-884.93 425.56,-1036.26 615.59,-337.99 190.03,698.27 222.53,1981.7 72.58,2866.64 -149.95,884.93 -425.56,1036.25 -615.59,337.98 -190.04,-698.26 -222.53,-1981.7 -72.58,-2866.63zm-3.72 -13.65c-151.56,894.49 -118.72,2191.77 73.37,2897.57 192.08,705.81 470.67,552.85 622.23,-341.63 151.57,-894.48 118.73,-2191.77 -73.36,-2897.57 -192.08,-705.8 -470.67,-552.85 -622.24,341.63z"/>
     <path id="_80" class="fil45" d="M1338.81 594.02c151.03,-891.3 428.62,-1043.71 620.02,-340.42 191.4,703.29 224.13,1995.96 73.11,2887.26 -151.03,891.3 -428.62,1043.71 -620.03,340.42 -191.4,-703.29 -224.13,-1995.96 -73.1,-2887.26zm-3.71 -13.64c-152.65,900.85 -119.57,2207.37 73.88,2918.19 193.46,710.83 474.02,556.78 626.67,-344.06 152.65,-900.85 119.57,-2207.37 -73.89,-2918.2 -193.45,-710.82 -474.02,-556.78 -626.66,344.07z"/>
     <path id="_81" class="fil46" d="M1336.34 584.93c152.1,-897.67 431.68,-1051.17 624.45,-342.85 192.76,708.31 225.73,2010.21 73.62,2907.88 -152.1,897.66 -431.68,1051.16 -624.45,342.85 -192.77,-708.32 -225.73,-2010.22 -73.62,-2907.88zm-3.72 -13.65c-153.72,907.22 -120.41,2222.97 74.41,2938.82 194.82,715.85 477.37,560.72 631.1,-346.5 153.72,-907.21 120.41,-2222.97 -74.41,-2938.82 -194.82,-715.85 -477.37,-560.71 -631.1,346.5z"/>
     <path id="_82" class="fil47" d="M1333.86 575.83c153.18,-904.03 434.74,-1058.62 628.88,-345.28 194.14,713.34 227.33,2024.47 74.15,2928.5 -153.19,904.04 -434.75,1058.62 -628.88,345.29 -194.14,-713.34 -227.33,-2024.48 -74.15,-2928.51zm-3.71 -13.64c-154.81,913.58 -121.26,2238.56 74.93,2959.44 196.18,720.87 480.72,564.65 635.52,-348.93 154.8,-913.58 121.26,-2238.57 -74.93,-2959.44 -196.19,-720.88 -480.72,-564.66 -635.52,348.93z"/>
     <path id="_83" class="fil47" d="M1331.39 566.73c154.26,-910.39 437.8,-1066.07 633.3,-347.71 195.51,718.36 228.94,2038.73 74.67,2949.13 -154.26,910.4 -437.8,1066.07 -633.31,347.71 -195.5,-718.36 -228.93,-2038.73 -74.66,-2949.13zm-3.72 -13.64c-155.88,919.95 -122.1,2254.17 75.45,2980.06 197.56,725.9 484.07,568.59 639.96,-351.36 155.88,-919.94 122.1,-2254.16 -75.46,-2980.06 -197.55,-725.9 -484.07,-568.59 -639.95,351.36z"/>
     <path id="_84" class="fil48" d="M1328.91 557.64c155.34,-916.77 440.87,-1073.53 637.74,-350.15 196.87,723.39 230.53,2052.99 75.19,2969.76 -155.34,916.76 -440.87,1073.53 -637.74,350.14 -196.87,-723.38 -230.53,-2052.99 -75.19,-2969.75zm-3.71 -13.64c-156.96,926.31 -122.95,2269.76 75.97,3000.68 198.92,730.92 487.42,572.52 644.38,-353.79 156.96,-926.31 122.95,-2269.77 -75.97,-3000.69 -198.92,-730.92 -487.42,-572.52 -644.38,353.8z"/>
     <path id="_85" class="fil49" d="M1326.43 548.54c156.42,-923.13 443.93,-1080.98 642.17,-352.57 198.24,728.4 232.13,2067.24 75.71,2990.37 -156.42,923.13 -443.93,1080.99 -642.16,352.58 -198.24,-728.41 -232.14,-2067.25 -75.72,-2990.38zm-3.71 -13.64c-158.04,932.68 -123.79,2285.37 76.5,3021.31 200.29,735.94 490.77,576.46 648.81,-356.23 158.04,-932.68 123.79,-2285.36 -76.5,-3021.31 -200.29,-735.94 -490.77,-576.45 -648.81,356.23z"/>
     <path id="_86" class="fil49" d="M1323.96 539.45c157.5,-929.5 446.99,-1088.44 646.59,-355.01 199.61,733.43 233.74,2081.5 76.24,3011 -157.5,929.49 -446.99,1088.44 -646.6,355.01 -199.6,-733.44 -233.73,-2081.51 -76.23,-3011zm-3.71 -13.65c-159.12,939.05 -124.64,2300.97 77.01,3041.94 201.66,740.96 494.12,580.39 653.24,-358.66 159.12,-939.05 124.64,-2300.97 -77.02,-3041.93 -201.65,-740.97 -494.12,-580.39 -653.23,358.65z"/>
     <path id="_87" class="fil50" d="M1321.48 530.35c158.58,-935.86 450.05,-1095.89 651.03,-357.44 200.97,738.46 235.33,2095.76 76.75,3031.62 -158.57,935.87 -450.05,1095.9 -651.02,357.44 -200.97,-738.45 -235.34,-2095.76 -76.76,-3031.62zm-3.71 -13.64c-160.2,945.41 -125.48,2316.56 77.54,3062.55 203.02,746 497.47,584.33 657.67,-361.08 160.19,-945.42 125.48,-2316.57 -77.54,-3062.56 -203.03,-745.99 -497.47,-584.33 -657.67,361.09z"/>
     <path id="_88" class="fil51" d="M1319.01 521.25c159.66,-942.22 453.11,-1103.34 655.45,-359.87 202.34,743.48 236.94,2110.02 77.28,3052.25 -159.66,942.23 -453.11,1103.35 -655.45,359.87 -202.34,-743.48 -236.94,-2110.01 -77.28,-3052.25zm-3.72 -13.64c-161.27,951.78 -126.32,2332.17 78.07,3083.18 204.39,751.02 500.82,588.26 662.09,-363.52 161.28,-951.78 126.33,-2332.16 -78.06,-3083.18 -204.39,-751.01 -500.82,-588.26 -662.1,363.52z"/>
     <path id="_89" class="fil51" d="M1316.53 512.16c160.74,-948.6 456.18,-1110.81 659.88,-362.3 203.71,748.5 238.54,2124.27 77.81,3072.86 -160.74,948.6 -456.18,1110.81 -659.89,362.31 -203.7,-748.5 -238.53,-2124.27 -77.8,-3072.87zm-3.71 -13.64c-162.36,958.14 -127.17,2347.76 78.58,3103.8 205.76,756.04 504.17,592.19 666.53,-365.95 162.35,-958.15 127.17,-2347.77 -78.59,-3103.81 -205.75,-756.03 -504.17,-592.19 -666.52,365.96z"/>
     <path id="_90" class="fil52" d="M1314.06 503.06c161.81,-954.96 459.23,-1118.26 664.31,-364.73 205.07,753.52 240.14,2138.53 78.32,3093.49 -161.81,954.96 -459.24,1118.26 -664.31,364.74 -205.07,-753.53 -240.14,-2138.53 -78.32,-3093.5zm-3.72 -13.64c-163.43,964.51 -128.01,2363.37 79.11,3124.43 207.12,761.06 507.52,596.13 670.95,-368.39 163.44,-964.51 128.02,-2363.36 -79.1,-3124.42 -207.13,-761.06 -507.52,-596.13 -670.96,368.38z"/>
     <path id="_91" class="fil53" d="M1311.58 493.97c162.9,-961.33 462.3,-1125.72 668.74,-367.17 206.44,758.55 241.74,2152.79 78.85,3114.12 -162.9,961.33 -462.3,1125.71 -668.74,367.16 -206.44,-758.55 -241.74,-2152.78 -78.85,-3114.11zm-3.71 -13.65c-164.51,970.88 -128.86,2378.97 79.63,3145.05 208.49,766.09 510.87,600.07 675.38,-370.81 164.51,-970.88 128.86,-2378.97 -79.63,-3145.05 -208.49,-766.08 -510.87,-600.07 -675.38,370.81z"/>
     <path id="_92" class="fil54" d="M1309.11 484.87c163.97,-967.69 465.36,-1133.17 673.16,-369.6 207.81,763.58 243.34,2167.05 79.37,3134.74 -163.97,967.7 -465.36,1133.17 -673.17,369.6 -207.8,-763.57 -243.34,-2167.04 -79.36,-3134.74zm-3.72 -13.64c-165.59,977.24 -129.7,2394.56 80.15,3165.67 209.86,771.11 514.22,604 679.81,-373.24 165.6,-977.25 129.71,-2394.57 -80.15,-3165.68 -209.86,-771.11 -514.22,-604 -679.81,373.25z"/>
     <path id="_93" class="fil54" d="M1306.63 475.78c165.05,-974.07 468.42,-1140.63 677.6,-372.03 209.17,768.59 244.94,2181.3 79.89,3155.36 -165.05,974.06 -468.42,1140.62 -677.6,372.03 -209.17,-768.6 -244.94,-2181.3 -79.89,-3155.36zm-3.71 -13.65c-166.67,983.61 -130.55,2410.17 80.67,3186.3 211.23,776.13 517.57,607.93 684.24,-375.68 166.67,-983.61 130.55,-2410.16 -80.67,-3186.29 -211.23,-776.14 -517.57,-607.94 -684.24,375.67z"/>
     <path id="_94" class="fil55" d="M1304.16 466.68c166.13,-980.43 471.48,-1148.08 682.02,-374.46 210.54,773.62 246.54,2195.56 80.41,3175.98 -166.13,980.43 -471.48,1148.08 -682.02,374.47 -210.54,-773.62 -246.55,-2195.56 -80.41,-3175.99zm-3.72 -13.64c-167.75,989.97 -131.39,2425.76 81.2,3206.92 212.59,781.15 520.92,611.87 688.67,-378.11 167.74,-989.98 131.39,-2425.77 -81.2,-3206.92 -212.59,-781.16 -520.92,-611.87 -688.67,378.11z"/>
     <path id="_95" class="fil56" d="M1301.68 457.58c167.21,-986.79 474.54,-1155.53 686.45,-376.89 211.91,778.64 248.15,2209.81 80.94,3196.61 -167.21,986.8 -474.55,1155.54 -686.46,376.89 -211.9,-778.64 -248.14,-2209.81 -80.93,-3196.61zm-3.71 -13.64c-168.83,996.35 -132.24,2441.37 81.71,3227.54 213.96,786.18 524.27,615.81 693.1,-380.54 168.83,-996.34 132.24,-2441.36 -81.72,-3227.54 -213.96,-786.18 -524.27,-615.8 -693.09,380.54z"/>
     <path id="_96" class="fil56" d="M1299.2 448.49c168.29,-993.16 477.61,-1162.99 690.89,-379.33 213.27,783.67 249.74,2224.07 81.45,3217.24 -168.28,993.16 -477.6,1162.99 -690.88,379.32 -213.27,-783.67 -249.74,-2224.07 -81.46,-3217.23zm-3.71 -13.65c-169.9,1002.72 -133.08,2456.97 82.24,3248.17 215.33,791.2 527.62,619.74 697.53,-382.97 169.9,-1002.71 133.08,-2456.96 -82.24,-3248.17 -215.33,-791.2 -527.62,-619.74 -697.53,382.97z"/>
     <path id="_97" class="fil57" d="M1296.73 439.39c169.37,-999.53 480.67,-1170.44 695.31,-381.75 214.64,788.69 251.35,2238.32 81.98,3237.85 -169.37,999.53 -480.67,1170.45 -695.31,381.76 -214.64,-788.69 -251.35,-2238.33 -81.98,-3237.86zm-3.71 -13.64c-170.99,1009.08 -133.94,2472.56 82.76,3268.79 216.69,796.22 530.97,623.67 701.95,-385.4 170.99,-1009.08 133.93,-2472.57 -82.76,-3268.79 -216.69,-796.23 -530.97,-623.68 -701.95,385.4z"/>
     <path id="_98" class="fil58" d="M1294.25 430.3c170.45,-1005.9 483.73,-1177.9 699.74,-384.19 216.01,793.71 252.95,2252.58 82.5,3258.48 -170.44,1005.89 -483.72,1177.9 -699.74,384.18 -216,-793.71 -252.94,-2252.58 -82.5,-3258.47zm-3.71 -13.65c-172.06,1015.45 -134.78,2488.17 83.28,3289.42 218.07,801.25 534.32,627.6 706.39,-387.84 172.06,-1015.44 134.77,-2488.16 -83.29,-3289.41 -218.06,-801.25 -534.32,-627.61 -706.38,387.83z"/>
     <path id="_99" class="fil59" d="M1291.78 421.2c171.52,-1012.26 486.79,-1185.35 704.17,-386.62 217.37,798.74 254.54,2266.84 83.02,3279.1 -171.52,1012.26 -486.79,1185.36 -704.17,386.62 -217.38,-798.73 -254.55,-2266.84 -83.02,-3279.1zm-3.72 -13.64c-173.14,1021.81 -135.62,2503.76 83.81,3310.03 219.43,806.28 537.67,631.55 710.81,-390.26 173.14,-1021.81 135.62,-2503.77 -83.8,-3310.04 -219.43,-806.27 -537.67,-631.54 -710.82,390.27z"/>
     <path id="_100" class="fil60" d="M1289.3 412.1c172.61,-1018.62 489.85,-1192.81 708.6,-389.05 218.74,803.76 256.15,2281.1 83.54,3299.73 -172.6,1018.63 -489.85,1192.81 -708.59,389.05 -218.75,-803.76 -256.15,-2281.1 -83.55,-3299.73zm-3.71 -13.64c-174.22,1028.18 -136.47,2519.36 84.33,3330.66 220.79,811.3 541.02,635.48 715.24,-392.7 174.22,-1028.17 136.46,-2519.36 -84.33,-3330.66 -220.8,-811.29 -541.02,-635.48 -715.24,392.7z"/>
     <path id="_101" class="fil61" d="M1286.83 403.01c173.68,-1024.99 492.91,-1200.27 713.02,-391.48 220.11,808.78 257.75,2295.35 84.07,3320.34 -173.68,1025 -492.91,1200.27 -713.02,391.49 -220.12,-808.79 -257.75,-2295.36 -84.07,-3320.35zm-3.72 -13.64c-175.3,1034.54 -137.31,2534.96 84.86,3351.28 222.16,816.32 544.36,639.41 719.66,-395.13 175.3,-1034.54 137.31,-2534.96 -84.85,-3351.28 -222.16,-816.32 -544.37,-639.42 -719.67,395.13z"/>
     <path id="_102" class="fil62" d="M1284.35 393.91c174.76,-1031.36 495.98,-1207.72 717.46,-393.91 221.47,813.81 259.35,2309.61 84.59,3340.97 -174.76,1031.36 -495.98,1207.72 -717.46,393.91 -221.48,-813.8 -259.35,-2309.61 -84.59,-3340.97zm-3.71 -13.64c-176.38,1040.91 -138.16,2550.56 85.37,3371.91 223.53,821.34 547.72,643.34 724.1,-397.56 176.38,-1040.91 138.16,-2550.57 -85.37,-3371.91 -223.53,-821.34 -547.72,-643.35 -724.1,397.56z"/>
     <path id="_103" class="fil63" d="M1281.88 384.82c175.84,-1037.73 499.03,-1215.18 721.88,-396.35 222.84,818.83 260.95,2323.87 85.11,3361.6 -175.84,1037.72 -499.04,1215.17 -721.88,396.34 -222.85,-818.83 -260.95,-2323.87 -85.11,-3361.59zm-3.72 -13.65c-177.45,1047.28 -139,2566.17 85.9,3392.53 224.9,826.37 551.07,647.29 728.52,-399.99 177.46,-1047.27 139.01,-2566.16 -85.89,-3392.53 -224.9,-826.37 -551.07,-647.28 -728.53,399.99z"/>
     <path id="_104" class="fil64" d="M1279.4 375.72c176.92,-1044.09 502.1,-1222.63 726.31,-398.78 224.21,823.86 262.56,2338.13 85.64,3382.22 -176.92,1044.1 -502.1,1222.63 -726.31,398.78 -224.22,-823.85 -262.56,-2338.13 -85.64,-3382.22zm-3.71 -13.64c-178.54,1053.64 -139.85,2581.76 86.42,3413.15 226.26,831.39 554.41,651.22 732.95,-402.42 178.54,-1053.65 139.85,-2581.77 -86.42,-3413.16 -226.26,-831.39 -554.42,-651.21 -732.95,402.43z"/>
     <path id="_105" class="fil65" d="M1276.92 366.63c178,-1050.46 505.16,-1230.09 730.75,-401.21 225.58,828.88 264.15,2352.38 86.15,3402.84 -177.99,1050.46 -505.16,1230.08 -730.74,401.21 -225.58,-828.88 -264.15,-2352.39 -86.16,-3402.84zm-3.71 -13.65c-179.61,1060.01 -140.69,2597.36 86.94,3433.78 227.63,836.41 557.77,655.15 737.39,-404.86 179.61,-1060.01 140.69,-2597.36 -86.94,-3433.77 -227.63,-836.42 -557.77,-655.16 -737.39,404.85z"/>
     <path id="_106" class="fil66" d="M1274.45 357.53c179.08,-1056.83 508.22,-1237.54 735.17,-403.64 226.95,833.9 265.75,2366.64 86.68,3423.46 -179.08,1056.83 -508.22,1237.55 -735.17,403.64 -226.95,-833.9 -265.76,-2366.64 -86.68,-3423.46zm-3.71 -13.64c-180.7,1066.37 -141.54,2612.96 87.46,3454.4 229,841.43 561.12,659.08 741.81,-407.29 180.7,-1066.38 141.54,-2612.96 -87.46,-3454.4 -229,-841.44 -561.12,-659.09 -741.81,407.29z"/>
     <path id="_107" class="fil67" d="M1271.97 348.43c180.16,-1063.19 511.29,-1244.99 739.6,-406.07 228.32,838.93 267.36,2380.9 87.2,3444.09 -180.15,1063.19 -511.28,1245 -739.59,406.07 -228.32,-838.92 -267.36,-2380.89 -87.21,-3444.09zm-3.71 -13.64c-181.77,1072.74 -142.38,2628.56 87.99,3475.02 230.36,846.46 564.46,663.03 746.24,-409.72 181.77,-1072.74 142.38,-2628.56 -87.99,-3475.02 -230.36,-846.46 -564.47,-663.02 -746.24,409.72z"/>
     <path id="_108" class="fil68" d="M1269.5 339.34c181.23,-1069.56 514.34,-1252.45 744.03,-408.51 229.68,843.95 268.95,2395.16 87.72,3464.72 -181.23,1069.55 -514.35,1252.45 -744.03,408.5 -229.68,-843.95 -268.95,-2395.15 -87.72,-3464.71zm-3.71 -13.65c-182.86,1079.11 -143.23,2644.17 88.5,3495.65 231.73,851.48 567.82,666.96 750.67,-412.15 182.85,-1079.11 143.23,-2644.16 -88.5,-3495.65 -231.74,-851.48 -567.82,-666.95 -750.67,412.15z"/>
     <path id="_109" class="fil69" d="M1267.02 330.24c182.31,-1075.92 517.41,-1259.9 748.46,-410.93 231.05,848.97 270.56,2409.41 88.24,3485.33 -182.31,1075.93 -517.4,1259.91 -748.45,410.94 -231.05,-848.98 -270.56,-2409.41 -88.25,-3485.34zm-3.71 -13.64c-183.93,1085.47 -144.07,2659.76 89.03,3516.27 233.1,856.51 571.17,670.89 755.1,-414.58 183.93,-1085.48 144.07,-2659.77 -89.03,-3516.27 -233.1,-856.51 -571.17,-670.9 -755.1,414.58z"/>
     <path id="_110" class="fil70" d="M1264.55 321.15c183.39,-1082.29 520.47,-1267.37 752.88,-413.37 232.42,854 272.16,2423.67 88.77,3505.96 -183.39,1082.29 -520.47,1267.36 -752.88,413.36 -232.42,-853.99 -272.16,-2423.66 -88.77,-3505.95zm-3.72 -13.65c-185,1091.84 -144.91,2675.36 89.56,3536.9 234.46,861.53 574.51,674.82 759.52,-417.02 185.01,-1091.84 144.92,-2675.36 -89.55,-3536.89 -234.46,-861.53 -574.52,-674.83 -759.53,417.01z"/>
     <path id="_111" class="fil71" d="M1262.07 312.05c184.47,-1088.66 523.53,-1274.82 757.32,-415.8 233.78,859.02 273.75,2437.93 89.29,3526.58 -184.47,1088.66 -523.53,1274.82 -757.32,415.8 -233.78,-859.02 -273.76,-2437.92 -89.29,-3526.58zm-3.71 -13.64c-186.09,1098.2 -145.76,2690.96 90.07,3557.51 235.84,866.56 577.87,678.76 763.96,-419.44 186.09,-1098.21 145.76,-2690.96 -90.07,-3557.52 -235.84,-866.55 -577.87,-678.76 -763.96,419.45z"/>
     <path id="_112" class="fil72" d="M1259.6 302.95c185.54,-1095.02 526.59,-1282.27 761.74,-418.22 235.15,864.04 275.36,2452.18 89.81,3547.2 -185.55,1095.02 -526.59,1282.27 -761.74,418.23 -235.15,-864.04 -275.36,-2452.18 -89.81,-3547.21zm-3.72 -13.64c-187.16,1104.57 -146.6,2706.56 90.6,3578.14 237.2,871.58 581.22,682.7 768.38,-421.88 187.17,-1104.57 146.61,-2706.56 -90.59,-3578.14 -237.2,-871.57 -581.22,-682.69 -768.39,421.88z"/>
     <path id="_113" class="fil73" d="M1257.12 293.86c186.63,-1101.39 529.65,-1289.73 766.17,-420.66 236.52,869.06 276.96,2466.43 90.34,3567.83 -186.63,1101.39 -529.66,1289.72 -766.17,420.66 -236.52,-869.07 -276.96,-2466.44 -90.34,-3567.83zm-3.71 -13.65c-188.25,1110.95 -147.45,2722.17 91.12,3598.77 238.56,876.6 584.56,686.63 772.81,-424.31 188.24,-1110.94 147.45,-2722.16 -91.12,-3598.76 -238.57,-876.6 -584.57,-686.64 -772.81,424.3z"/>
     <path id="_114" class="fil74" d="M1254.65 284.76c187.7,-1107.75 532.71,-1297.18 770.6,-423.09 237.88,874.09 278.56,2480.69 90.85,3588.45 -187.7,1107.76 -532.71,1297.18 -770.6,423.09 -237.88,-874.09 -278.56,-2480.69 -90.85,-3588.45zm-3.72 -13.64c-189.32,1117.31 -148.29,2737.76 91.64,3619.38 239.94,881.63 587.92,690.57 777.25,-426.74 189.32,-1117.3 148.29,-2737.76 -91.64,-3619.38 -239.94,-881.63 -587.92,-690.57 -777.25,426.74z"/>
     <path id="_115" class="fil75" d="M1252.17 275.67c188.78,-1114.13 535.78,-1304.64 775.03,-425.53 239.25,879.12 280.16,2494.95 91.38,3609.08 -188.79,1114.12 -535.78,1304.63 -775.03,425.52 -239.25,-879.11 -280.16,-2494.95 -91.38,-3609.07zm-3.71 -13.65c-190.41,1123.68 -149.14,2753.36 92.16,3640.01 241.3,886.65 591.27,694.5 781.67,-429.17 190.4,-1123.67 149.14,-2753.36 -92.16,-3640.01 -241.3,-886.65 -591.27,-694.5 -781.67,429.17z"/>
     <path id="_116" class="fil76" d="M1249.7 266.57c189.86,-1120.49 538.83,-1312.09 779.45,-427.95 240.62,884.13 281.77,2509.2 91.9,3629.69 -189.86,1120.49 -538.83,1312.09 -779.45,427.96 -240.62,-884.14 -281.77,-2509.21 -91.9,-3629.7zm-3.72 -13.64c-191.48,1130.04 -149.98,2768.96 92.69,3660.63 242.67,891.67 594.61,698.44 786.1,-431.6 191.48,-1130.04 149.98,-2768.96 -92.69,-3660.64 -242.67,-891.67 -594.62,-698.43 -786.1,431.61z"/>
     <path id="_117" class="fil77" d="M1247.22 257.48c190.94,-1126.86 541.9,-1319.55 783.89,-430.39 241.98,889.16 283.36,2523.46 92.42,3650.32 -190.94,1126.86 -541.9,1319.55 -783.89,430.39 -241.98,-889.16 -283.36,-2523.47 -92.42,-3650.32zm-3.71 -13.65c-192.56,1136.41 -150.83,2784.56 93.2,3681.26 244.04,896.69 597.97,702.37 790.53,-434.04 192.56,-1136.4 150.83,-2784.56 -93.2,-3681.25 -244.04,-896.7 -597.97,-702.37 -790.53,434.03z"/>
     <path id="_118" class="fil78" d="M1244.74 248.38c192.02,-1133.22 544.97,-1327 788.32,-432.82 243.35,894.18 284.96,2537.72 92.94,3670.94 -192.02,1133.23 -544.96,1327.01 -788.31,432.82 -243.35,-894.18 -284.97,-2537.72 -92.95,-3670.94zm-3.71 -13.64c-193.64,1142.77 -151.67,2800.16 93.73,3701.87 245.4,901.72 601.32,706.31 794.96,-436.46 193.64,-1142.77 151.67,-2800.16 -93.73,-3701.88 -245.41,-901.72 -601.32,-706.31 -794.96,436.47z"/>
     <path id="_119" class="fil79" d="M1242.27 239.28c193.1,-1139.59 548.02,-1334.45 792.74,-435.25 244.72,899.21 286.57,2551.98 93.47,3691.57 -193.1,1139.59 -548.02,1334.46 -792.74,435.25 -244.72,-899.21 -286.57,-2551.98 -93.47,-3691.57zm-3.71 -13.64c-194.72,1149.14 -152.52,2815.76 94.25,3722.5 246.77,906.74 604.66,710.24 799.38,-438.9 194.72,-1149.13 152.52,-2815.76 -94.25,-3722.5 -246.77,-906.74 -604.67,-710.24 -799.38,438.9z"/>
     <path id="_120" class="fil80" d="M1239.79 230.19c194.18,-1145.96 551.09,-1341.92 797.18,-437.68 246.08,904.23 288.16,2566.23 93.98,3712.19 -194.17,1145.95 -551.08,1341.91 -797.17,437.68 -246.08,-904.23 -288.17,-2566.24 -93.99,-3712.19zm-3.71 -13.65c-195.8,1155.51 -153.37,2831.36 94.77,3743.13 248.14,911.77 608.02,714.18 803.82,-441.33 195.79,-1155.51 153.36,-2831.36 -94.77,-3743.12 -248.14,-911.77 -608.02,-714.18 -803.82,441.32z"/>
     <path id="_121" class="fil81" d="M1237.32 221.09c195.25,-1152.32 554.14,-1349.37 801.6,-440.11 247.45,909.25 289.77,2580.49 94.51,3732.81 -195.26,1152.32 -554.15,1349.37 -801.6,440.12 -247.45,-909.26 -289.77,-2580.5 -94.51,-3732.82zm-3.71 -13.64c-196.88,1161.87 -154.22,2846.96 95.29,3763.75 249.5,916.79 611.37,718.11 808.24,-443.76 196.88,-1161.88 154.21,-2846.96 -95.29,-3763.75 -249.51,-916.79 -611.37,-718.11 -808.24,443.76z"/>
     <path id="_122" class="fil82" d="M1234.84 212c196.34,-1158.69 557.21,-1356.83 806.03,-442.55 248.82,914.28 291.37,2594.75 95.04,3753.44 -196.34,1158.69 -557.21,1356.82 -806.03,442.54 -248.83,-914.27 -291.37,-2594.75 -95.04,-3753.43zm-3.71 -13.65c-197.95,1168.24 -155.06,2862.56 95.82,3784.37 250.87,921.82 614.71,722.05 812.67,-446.19 197.95,-1168.24 155.05,-2862.56 -95.82,-3784.37 -250.87,-921.81 -614.72,-722.05 -812.67,446.19z"/>
     <path id="_123" class="fil83" d="M1232.37 202.9c197.41,-1165.06 560.27,-1364.28 810.45,-444.98 250.19,919.3 292.98,2609.01 95.56,3774.06 -197.41,1165.06 -560.27,1364.28 -810.46,444.98 -250.19,-919.3 -292.97,-2609 -95.55,-3774.06zm-3.72 -13.64c-199.03,1174.6 -155.9,2878.15 96.34,3804.99 252.24,926.84 618.07,725.98 817.1,-448.62 199.04,-1174.61 155.9,-2878.16 -96.34,-3805 -252.23,-926.83 -618.06,-725.98 -817.1,448.63z"/>
     <path id="_124" class="fil84" d="M1229.89 193.8c198.49,-1171.42 563.33,-1371.73 814.89,-447.4 251.55,924.32 294.57,2623.26 96.08,3794.68 -198.5,1171.42 -563.33,1371.73 -814.89,447.41 -251.56,-924.33 -294.57,-2623.26 -96.08,-3794.69zm-3.71 -13.64c-200.11,1180.97 -156.75,2893.76 96.86,3825.62 253.61,931.86 621.42,729.91 821.53,-451.06 200.11,-1180.97 156.74,-2893.76 -96.86,-3825.61 -253.61,-931.86 -621.42,-729.92 -821.53,451.05z"/>
     <path id="_125" class="fil85" d="M1227.42 184.71c199.57,-1177.79 566.39,-1379.19 819.31,-449.84 252.92,929.35 296.17,2637.52 96.6,3815.31 -199.57,1177.78 -566.39,1379.18 -819.31,449.83 -252.93,-929.34 -296.18,-2637.51 -96.6,-3815.3zm-3.72 -13.65c-201.19,1187.34 -157.59,2909.36 97.39,3846.25 254.97,936.88 624.76,733.85 825.95,-453.49 201.19,-1187.34 157.6,-2909.36 -97.38,-3846.24 -254.97,-936.89 -624.77,-733.85 -825.96,453.48z"/>
     <path id="_126" class="fil86" d="M1224.94 175.61c200.65,-1184.15 569.45,-1386.64 823.74,-452.27 254.29,934.37 297.78,2651.78 97.13,3835.93 -200.65,1184.16 -569.46,1386.64 -823.75,452.27 -254.29,-934.37 -297.77,-2651.77 -97.12,-3835.93zm-3.71 -13.64c-202.27,1193.7 -158.44,2924.96 97.9,3866.86 256.34,941.91 628.12,737.79 830.39,-455.91 202.27,-1193.71 158.44,-2924.96 -97.91,-3866.87 -256.34,-941.91 -628.11,-737.78 -830.38,455.92z"/>
     <path id="_127" class="fil87" d="M1222.47 166.52c201.73,-1190.52 572.51,-1394.1 828.17,-454.71 255.65,939.4 299.37,2666.04 97.64,3856.56 -201.73,1190.52 -572.51,1394.09 -828.17,454.7 -255.66,-939.39 -299.37,-2666.03 -97.64,-3856.55zm-3.72 -13.65c-203.35,1200.07 -159.28,2940.56 98.43,3887.49 257.71,946.93 631.47,741.72 834.82,-458.35 203.34,-1200.07 159.28,-2940.56 -98.43,-3887.49 -257.71,-946.93 -631.47,-741.72 -834.82,458.35z"/>
     <path id="_128" class="fil88" d="M1219.99 157.42c202.81,-1196.89 575.58,-1401.55 832.6,-457.13 257.03,944.42 300.98,2680.29 98.17,3877.17 -202.81,1196.89 -575.58,1401.56 -832.6,457.14 -257.03,-944.42 -300.98,-2680.29 -98.17,-3877.18zm-3.71 -13.64c-204.43,1206.43 -160.13,2956.15 98.95,3908.11 259.07,951.95 634.81,745.65 839.24,-460.78 204.43,-1206.44 160.13,-2956.16 -98.95,-3908.12 -259.07,-951.95 -634.82,-745.65 -839.24,460.79z"/>
     <path id="_129" class="fil89" d="M1217.51 148.32c203.89,-1203.25 578.64,-1409 837.03,-459.56 258.4,949.44 302.58,2694.55 98.69,3897.8 -203.88,1203.25 -578.64,1409.01 -837.03,459.56 -258.39,-949.44 -302.57,-2694.54 -98.69,-3897.8zm-3.71 -13.64c-205.5,1212.8 -160.97,2971.76 99.47,3928.74 260.45,956.97 638.17,749.59 843.68,-463.22 205.5,-1212.8 160.97,-2971.76 -99.48,-3928.73 -260.44,-956.98 -638.16,-749.59 -843.67,463.21z"/>
     <path id="_130" class="fil90" d="M1215.04 139.23c204.97,-1209.62 581.7,-1416.46 841.46,-462 259.76,954.47 304.17,2708.81 99.21,3918.43 -204.97,1209.61 -581.7,1416.46 -841.46,461.99 -259.76,-954.46 -304.18,-2708.8 -99.21,-3918.42zm-3.71 -13.64c-206.59,1219.16 -161.82,2987.35 99.99,3949.35 261.81,962 641.52,753.53 848.1,-465.64 206.59,-1219.17 161.82,-2987.36 -99.99,-3949.36 -261.81,-962 -641.52,-753.52 -848.1,465.65z"/>
     <path id="_131" class="fil91" d="M1212.56 130.13c206.05,-1215.98 584.76,-1423.92 845.89,-464.43 261.13,959.49 305.78,2723.06 99.73,3939.05 -206.04,1215.99 -584.76,1423.92 -845.88,464.43 -261.13,-959.49 -305.78,-2723.06 -99.74,-3939.05zm-3.71 -13.64c-207.66,1225.53 -162.66,3002.96 100.52,3969.98 263.17,967.03 644.86,757.46 852.53,-468.08 207.66,-1225.53 162.66,-3002.95 -100.52,-3969.98 -263.18,-967.02 -644.87,-757.46 -852.53,468.08z"/>
     <path id="_132" class="fil92" d="M1210.09 121.04c207.12,-1222.36 587.82,-1431.38 850.31,-466.86 262.5,964.51 307.38,2737.31 100.26,3959.67 -207.12,1222.35 -587.82,1431.37 -850.32,466.86 -262.49,-964.52 -307.38,-2737.32 -100.25,-3959.67zm-3.72 -13.65c-208.74,1231.91 -163.5,3018.56 101.04,3990.61 264.55,972.05 648.22,761.39 856.96,-470.51 208.74,-1231.9 163.51,-3018.56 -101.04,-3990.6 -264.54,-972.05 -648.21,-761.4 -856.96,470.5z"/>
     <path id="_133" class="fil93" d="M1207.61 111.94c208.21,-1228.72 590.89,-1438.83 854.75,-469.29 263.86,969.54 308.98,2751.57 100.77,3980.29 -208.2,1228.72 -590.88,1438.83 -854.74,469.3 -263.86,-969.54 -308.98,-2751.58 -100.78,-3980.3zm-3.71 -13.64c-209.82,1238.27 -164.35,3034.15 101.56,4011.23 265.91,977.07 651.57,765.33 861.39,-472.94 209.82,-1238.27 164.35,-3034.16 -101.56,-4011.23 -265.91,-977.07 -651.57,-765.33 -861.39,472.94z"/>
     <path id="_134" class="fil94" d="M1205.14 102.85c209.28,-1235.09 593.94,-1446.29 859.17,-471.73 265.23,974.56 310.58,2765.83 101.3,4000.92 -209.28,1235.08 -593.95,1446.28 -859.17,471.72 -265.23,-974.56 -310.58,-2765.83 -101.3,-4000.91zm-3.72 -13.65c-210.9,1244.64 -165.19,3049.76 102.09,4031.85 267.28,982.1 654.91,769.27 865.81,-475.37 210.9,-1244.63 165.2,-3049.75 -102.08,-4031.85 -267.28,-982.09 -654.92,-769.26 -865.82,475.37z"/>
     <path id="_135" class="fil95" d="M1202.66 93.75c210.36,-1241.45 597.01,-1453.74 863.6,-474.16 266.6,979.59 312.19,2780.09 101.83,4021.54 -210.36,1241.46 -597.01,1453.74 -863.61,474.16 -266.59,-979.58 -312.18,-2780.09 -101.82,-4021.54zm-3.71 -13.64c-211.98,1251 -166.04,3065.35 102.6,4052.47 268.65,987.12 658.27,773.2 870.25,-477.8 211.98,-1251 166.04,-3065.36 -102.61,-4052.48 -268.64,-987.11 -658.26,-773.2 -870.24,477.81z"/>
     <path id="_136" class="fil96" d="M1200.19 84.65c211.43,-1247.81 600.07,-1461.19 868.03,-476.58 267.96,984.6 313.78,2794.34 102.34,4042.16 -211.44,1247.82 -600.07,1461.19 -868.03,476.59 -267.96,-984.61 -313.78,-2794.35 -102.34,-4042.17zm-3.72 -13.64c-213.05,1257.37 -166.88,3080.96 103.13,4073.1 270.01,992.14 661.62,777.13 874.67,-480.24 213.06,-1257.36 166.89,-3080.95 -103.12,-4073.09 -270.02,-992.15 -661.62,-777.14 -874.68,480.23z"/>
     <path id="_137" class="fil97" d="M1197.71 75.56c212.52,-1254.19 603.13,-1468.65 872.46,-479.02 269.33,989.63 315.38,2808.6 102.87,4062.79 -212.52,1254.18 -603.13,1468.64 -872.46,479.01 -269.33,-989.63 -315.39,-2808.6 -102.87,-4062.78zm-3.71 -13.65c-214.14,1263.74 -167.73,3096.56 103.65,4093.73 271.38,997.16 664.96,781.06 879.1,-482.67 214.14,-1263.73 167.73,-3096.56 -103.65,-4093.72 -271.38,-997.17 -664.97,-781.07 -879.1,482.66z"/>
     <path id="_138" class="fil98" d="M1195.23 66.46c213.6,-1260.55 606.2,-1476.1 876.89,-481.45 270.7,994.66 316.99,2822.86 103.39,4083.41 -213.59,1260.55 -606.19,1476.1 -876.89,481.45 -270.69,-994.65 -316.98,-2822.86 -103.39,-4083.41zm-3.71 -13.64c-215.21,1270.1 -168.57,3112.15 104.17,4114.34 272.75,1002.19 668.32,785.01 883.54,-485.09 215.21,-1270.11 168.57,-3112.16 -104.18,-4114.35 -272.74,-1002.19 -668.31,-785 -883.53,485.1z"/>
     <path id="_139" class="fil99" d="M1192.76 57.37c214.67,-1266.92 609.25,-1483.56 881.32,-483.88 272.06,999.67 318.58,2837.11 103.91,4104.03 -214.68,1266.91 -609.26,1483.56 -881.32,483.88 -272.06,-999.68 -318.58,-2837.12 -103.91,-4104.03zm-3.71 -13.65c-216.3,1276.47 -169.42,3127.76 104.69,4134.97 274.11,1007.21 671.67,788.94 887.96,-487.53 216.29,-1276.47 169.42,-3127.75 -104.69,-4134.97 -274.12,-1007.21 -671.67,-788.93 -887.96,487.53z"/>
     <path id="_140" class="fil100" d="M1190.28 48.27c215.76,-1273.28 612.32,-1491.01 885.75,-486.31 273.43,1004.7 320.19,2851.37 104.43,4124.65 -215.75,1273.29 -612.31,1491.02 -885.74,486.32 -273.43,-1004.7 -320.19,-2851.38 -104.44,-4124.66zm-3.71 -13.64c-217.37,1282.83 -170.26,3143.35 105.22,4155.59 275.48,1012.23 675.01,792.87 892.39,-489.96 217.37,-1282.84 170.26,-3143.36 -105.22,-4155.59 -275.48,-1012.24 -675.02,-792.88 -892.39,489.96z"/>
     <path id="_141" class="fil101" d="M1187.81 39.17c216.83,-1279.65 615.38,-1498.46 890.17,-488.74 274.8,1009.72 321.79,2865.63 104.96,4145.28 -216.83,1279.65 -615.38,1498.47 -890.18,488.74 -274.79,-1009.72 -321.78,-2865.63 -104.95,-4145.28zm-3.71 -13.64c-218.45,1289.2 -171.11,3158.96 105.73,4176.21 276.85,1017.26 678.37,796.81 896.82,-492.39 218.45,-1289.2 171.11,-3158.95 -105.74,-4176.21 -276.84,-1017.26 -678.36,-796.81 -896.81,492.39z"/>
     <path id="_142" class="fil102" d="M1185.33 30.08c217.91,-1286.02 618.44,-1505.93 894.61,-491.18 276.16,1014.75 323.38,2879.89 105.47,4165.9 -217.91,1286.02 -618.43,1505.93 -894.6,491.18 -276.16,-1014.75 -323.39,-2879.88 -105.48,-4165.9zm-3.71 -13.64c-219.53,1295.56 -171.95,3174.55 106.26,4196.83 278.22,1022.29 681.72,800.75 901.25,-494.82 219.53,-1295.57 171.95,-3174.56 -106.26,-4196.84 -278.22,-1022.28 -681.72,-800.74 -901.25,494.83z"/>
     <path id="_143" class="fil103" d="M1182.86 20.98c218.99,-1292.38 621.5,-1513.38 899.03,-493.6 277.53,1019.77 324.99,2894.14 106,4186.52 -218.99,1292.38 -621.5,1513.38 -899.03,493.61 -277.53,-1019.77 -324.99,-2894.14 -106,-4186.53zm-3.72 -13.64c-220.6,1301.93 -172.79,3190.15 106.79,4217.46 279.58,1027.31 685.06,804.68 905.67,-497.25 220.61,-1301.94 172.8,-3190.16 -106.78,-4217.47 -279.58,-1027.3 -685.07,-804.67 -905.68,497.26z"/>
     <path id="_144" class="fil104" d="M1180.38 11.89c220.07,-1298.75 624.56,-1520.84 903.46,-496.04 278.9,1024.79 326.59,2908.4 106.53,4207.15 -220.07,1298.75 -624.57,1520.83 -903.47,496.04 -278.89,-1024.8 -326.59,-2908.4 -106.52,-4207.15zm-3.71 -13.65c-221.69,1308.3 -173.65,3205.76 107.3,4238.09 280.95,1032.33 688.42,808.61 910.11,-499.69 221.68,-1308.3 173.64,-3205.75 -107.31,-4238.08 -280.95,-1032.33 -688.41,-808.62 -910.1,499.68z"/>
     <path id="_145" class="fil105" d="M1177.91 2.79c221.14,-1305.11 627.62,-1528.29 907.89,-498.47 280.26,1029.82 328.19,2922.66 107.04,4227.77 -221.15,1305.12 -627.62,1528.29 -907.89,498.47 -280.27,-1029.81 -328.19,-2922.65 -107.04,-4227.77zm-3.72 -13.64c-222.76,1314.66 -174.49,3221.35 107.83,4258.7 282.32,1037.36 691.77,812.55 914.53,-502.11 222.77,-1314.67 174.49,-3221.36 -107.82,-4258.71 -282.32,-1037.35 -691.77,-812.55 -914.54,502.12z"/>
     <path id="_146" class="fil106" d="M1175.43 -6.3c222.23,-1311.49 630.69,-1535.75 912.32,-500.91 281.63,1034.85 329.79,2936.92 107.57,4248.4 -222.23,1311.48 -630.69,1535.74 -912.32,500.9 -281.64,-1034.84 -329.79,-2936.91 -107.57,-4248.39zm-3.71 -13.65c-223.85,1321.03 -175.34,3236.96 108.35,4279.33 283.68,1042.38 695.11,816.48 918.96,-504.55 223.84,-1321.03 175.33,-3236.95 -108.35,-4279.33 -283.68,-1042.37 -695.12,-816.48 -918.96,504.55z"/>
     <path id="_147" class="fil107" d="M1172.96 -15.4c223.3,-1317.85 633.74,-1543.2 916.74,-503.33 283,1039.86 331.4,2951.17 108.09,4269.01 -223.3,1317.85 -633.75,1543.2 -916.75,503.34 -283,-1039.87 -331.39,-2951.17 -108.08,-4269.02zm-3.72 -13.64c-224.92,1327.39 -176.18,3252.55 108.87,4299.95 285.06,1047.4 698.47,820.42 923.39,-506.98 224.93,-1327.4 176.18,-3252.56 -108.87,-4299.96 -285.05,-1047.4 -698.46,-820.41 -923.39,506.99z"/>
     <path id="_148" class="fil108" d="M1170.48 -24.5c224.38,-1324.21 636.81,-1550.65 921.18,-505.76 284.36,1044.89 332.99,2965.42 108.61,4289.64 -224.39,1324.22 -636.81,1550.65 -921.18,505.77 -284.37,-1044.89 -332.99,-2965.43 -108.61,-4289.65zm-3.71 -13.64c-226,1333.77 -177.03,3268.15 109.39,4320.58 286.42,1052.42 701.82,824.35 927.82,-509.42 226,-1333.76 177.02,-3268.15 -109.39,-4320.57 -286.42,-1052.43 -701.82,-824.36 -927.82,509.41z"/>
     <path id="_149" class="fil109" d="M1168.01 -33.59c225.46,-1330.58 639.86,-1558.11 925.6,-508.2 285.73,1049.91 334.59,2979.68 109.13,4310.27 -225.46,1330.58 -639.87,1558.11 -925.6,508.19 -285.74,-1049.91 -334.6,-2979.68 -109.13,-4310.26zm-3.72 -13.65c-227.08,1340.14 -177.87,3283.76 109.92,4341.2 287.78,1057.45 705.17,828.29 932.25,-511.84 227.08,-1340.13 177.87,-3283.75 -109.92,-4341.2 -287.79,-1057.45 -705.17,-828.29 -932.25,511.84z"/>
     <path id="_150" class="fil110" d="M1165.53 -42.69c226.54,-1336.95 642.93,-1565.56 930.03,-510.63 287.1,1054.94 336.2,2993.94 109.66,4330.89 -226.54,1336.95 -642.93,1565.57 -930.04,510.63 -287.1,-1054.94 -336.19,-2993.94 -109.65,-4330.89zm-3.71 -13.64c-228.16,1346.5 -178.72,3299.35 110.43,4361.82 289.16,1062.47 708.52,832.22 936.68,-514.27 228.16,-1346.5 178.72,-3299.36 -110.44,-4361.83 -289.15,-1062.47 -708.51,-832.22 -936.67,514.28z"/>
     <path id="_151" class="fil111" d="M1163.05 -51.78c227.62,-1343.32 646,-1573.02 934.47,-513.06 288.47,1059.96 337.79,3008.19 110.17,4351.51 -227.62,1343.31 -645.99,1573.02 -934.46,513.06 -288.47,-1059.96 -337.8,-3008.2 -110.18,-4351.51zm-3.71 -13.65c-229.24,1352.87 -179.56,3314.96 110.96,4382.45 290.52,1067.49 711.87,836.16 941.11,-516.71 229.24,-1352.86 179.56,-3314.95 -110.96,-4382.45 -290.52,-1067.49 -711.87,-836.15 -941.11,516.71z"/>
     <path id="_152" class="fil112" d="M1160.58 -60.88c228.7,-1349.68 649.05,-1580.47 938.89,-515.49 289.84,1064.98 339.4,3022.45 110.7,4372.13 -228.7,1349.68 -649.06,1580.48 -938.89,515.5 -289.84,-1064.99 -339.4,-3022.46 -110.7,-4372.14zm-3.71 -13.64c-230.32,1359.23 -180.41,3330.55 111.48,4403.07 291.89,1072.51 715.22,840.09 945.53,-519.14 230.32,-1359.23 180.41,-3330.55 -111.48,-4403.07 -291.89,-1072.52 -715.22,-840.09 -945.53,519.14z"/>
     <path id="_153" class="fil113" d="M1158.1 -69.98c229.78,-1356.04 652.12,-1587.93 943.32,-517.92 291.21,1070.01 341,3036.71 111.22,4392.76 -229.77,1356.05 -652.11,1587.93 -943.32,517.92 -291.2,-1070 -340.99,-3036.71 -111.22,-4392.76zm-3.71 -13.64c-231.39,1365.6 -181.25,3346.15 112,4423.69 293.26,1077.55 718.57,844.03 949.97,-521.57 231.39,-1365.59 181.25,-3346.15 -112.01,-4423.69 -293.25,-1077.54 -718.56,-844.03 -949.96,521.57z"/>
     <path id="_154" class="fil114" d="M1155.63 -79.07c230.85,-1362.42 655.18,-1595.39 947.75,-520.36 292.57,1075.03 342.6,3050.97 111.74,4413.39 -230.86,1362.41 -655.18,1595.38 -947.75,520.35 -292.57,-1075.03 -342.6,-3050.97 -111.74,-4413.38zm-3.71 -13.65c-232.48,1371.97 -182.1,3361.76 112.52,4444.32 294.62,1082.57 721.92,847.96 954.39,-524 232.48,-1371.96 182.1,-3361.75 -112.52,-4444.32 -294.62,-1082.56 -721.92,-847.96 -954.39,524z"/>
     <path id="_155" class="fil115" d="M1153.15 -88.17c231.94,-1368.78 658.24,-1602.84 952.18,-522.78 293.94,1080.05 344.2,3065.22 112.27,4434 -231.94,1368.78 -658.24,1602.84 -952.18,522.79 -293.94,-1080.06 -344.2,-3065.23 -112.27,-4434.01zm-3.71 -13.64c-233.55,1378.33 -182.94,3377.35 113.05,4464.94 295.99,1087.59 725.27,851.9 958.82,-526.43 233.55,-1378.33 182.94,-3377.36 -113.05,-4464.94 -295.99,-1087.59 -725.27,-851.9 -958.82,526.43z"/>
     <path id="_156" class="fil116" d="M1150.68 -97.26c233.01,-1375.15 661.3,-1610.3 956.6,-525.22 295.31,1085.08 345.8,3079.48 112.79,4454.63 -233.01,1375.14 -661.3,1610.29 -956.61,525.22 -295.3,-1085.08 -345.8,-3079.49 -112.78,-4454.63zm-3.72 -13.65c-234.63,1384.7 -183.78,3392.95 113.58,4485.57 297.35,1092.61 728.61,855.83 963.24,-528.87 234.64,-1384.7 183.79,-3392.95 -113.57,-4485.56 -297.35,-1092.61 -728.61,-855.83 -963.25,528.86z"/>
     <path id="_157" class="fil117" d="M1148.2 -106.36c234.09,-1381.51 664.36,-1617.75 961.04,-527.65 296.67,1090.1 347.4,3093.74 113.31,4475.25 -234.1,1381.52 -664.37,1617.75 -961.04,527.65 -296.67,-1090.1 -347.4,-3093.74 -113.31,-4475.25zm-3.71 -13.64c-235.71,1391.06 -184.63,3408.55 114.09,4506.18 298.72,1097.64 731.97,859.77 967.68,-531.29 235.71,-1391.07 184.63,-3408.55 -114.09,-4506.19 -298.73,-1097.63 -731.97,-859.77 -967.68,531.3z"/>
     <path id="_158" class="fil118" d="M1145.73 -115.45c235.17,-1387.88 667.42,-1625.21 965.46,-530.09 298.04,1095.13 349,3108 113.83,4495.88 -235.17,1387.88 -667.42,1625.2 -965.46,530.08 -298.04,-1095.12 -349,-3108 -113.83,-4495.87zm-3.72 -13.65c-236.79,1397.43 -185.47,3424.15 114.62,4526.81 300.09,1102.66 735.31,863.7 972.1,-533.73 236.79,-1397.43 185.48,-3424.15 -114.61,-4526.81 -300.09,-1102.66 -735.32,-863.7 -972.11,533.73z"/>
     <path id="_159" class="fil119" d="M1143.25 -124.55c236.25,-1394.25 670.49,-1632.66 969.89,-532.51 299.41,1100.14 350.61,3122.25 114.36,4516.49 -236.25,1394.25 -670.49,1632.67 -969.89,532.52 -299.41,-1100.15 -350.61,-3122.26 -114.36,-4516.5zm-3.71 -13.64c-237.87,1403.79 -186.32,3439.75 115.14,4547.43 301.45,1107.68 738.66,867.63 976.53,-536.16 237.87,-1403.8 186.32,-3439.75 -115.14,-4547.43 -301.45,-1107.69 -738.66,-867.64 -976.53,536.16z"/>
     <path id="_160" class="fil120" d="M1140.78 -133.65c237.32,-1400.61 673.54,-1640.11 974.32,-534.94 300.77,1105.17 352.2,3136.51 114.87,4537.12 -237.33,1400.61 -673.54,1640.12 -974.32,534.94 -300.77,-1105.17 -352.2,-3136.5 -114.87,-4537.12zm-3.72 -13.64c-238.95,1410.16 -187.16,3455.35 115.66,4568.06 302.83,1112.7 742.02,871.57 980.97,-538.6 238.94,-1410.16 187.16,-3455.35 -115.66,-4568.05 -302.83,-1112.71 -742.02,-871.57 -980.97,538.59z"/>
     <path id="_161" class="fil121" d="M1138.3 -142.74c238.41,-1406.98 676.61,-1647.57 978.75,-537.38 302.14,1110.2 353.81,3150.77 115.4,4557.75 -238.41,1406.98 -676.61,1647.57 -978.75,537.37 -302.14,-1110.19 -353.81,-3150.76 -115.4,-4557.74zm-3.71 -13.65c-240.03,1416.53 -188.01,3470.95 116.18,4588.68 304.19,1117.73 745.36,875.51 985.39,-541.02 240.03,-1416.53 188.01,-3470.95 -116.18,-4588.68 -304.19,-1117.73 -745.37,-875.51 -985.39,541.02z"/>
     <path id="_162" class="fil122" d="M1135.82 -151.84c239.49,-1413.34 679.68,-1655.02 983.18,-539.81 303.51,1115.22 355.41,3165.03 115.92,4578.37 -239.48,1413.35 -679.67,1655.03 -983.17,539.81 -303.51,-1115.22 -355.41,-3165.02 -115.93,-4578.37zm-3.71 -13.64c-241.1,1422.89 -188.85,3486.55 116.71,4609.3 305.55,1122.75 748.71,879.44 989.82,-543.45 241.1,-1422.9 188.85,-3486.55 -116.71,-4609.31 -305.56,-1122.75 -748.71,-879.44 -989.82,543.46z"/>
     <path id="_163" class="fil123" d="M1133.35 -160.93c240.56,-1419.72 682.73,-1662.48 987.61,-542.24 304.87,1120.24 357,3179.28 116.44,4598.99 -240.57,1419.71 -682.73,1662.48 -987.61,542.24 -304.87,-1120.24 -357.01,-3179.28 -116.44,-4598.99zm-3.71 -13.65c-242.19,1429.26 -189.7,3502.15 117.22,4629.93 306.93,1127.77 752.07,883.37 994.25,-545.89 242.19,-1429.26 189.7,-3502.15 -117.22,-4629.92 -306.93,-1127.78 -752.07,-883.38 -994.25,545.88z"/>
     <path id="_164" class="fil124" d="M1130.87 -170.03c241.65,-1426.08 685.8,-1669.94 992.04,-544.67 306.24,1125.26 358.61,3193.54 116.96,4619.61 -241.64,1426.08 -685.79,1669.94 -992.03,544.67 -306.24,-1125.26 -358.61,-3193.53 -116.97,-4619.61zm-3.71 -13.64c-243.26,1435.62 -190.54,3517.75 117.75,4650.55 308.29,1132.8 755.41,887.31 998.68,-548.32 243.26,-1435.63 190.54,-3517.75 -117.75,-4650.55 -308.29,-1132.8 -755.42,-887.31 -998.68,548.32z"/>
     <path id="_165" class="fil125" d="M1128.4 -179.13c242.72,-1432.44 688.85,-1677.39 996.46,-547.1 307.61,1130.29 360.21,3207.8 117.49,4640.24 -242.72,1432.44 -688.86,1677.39 -996.46,547.1 -307.61,-1130.29 -360.22,-3207.79 -117.49,-4640.24zm-3.71 -13.64c-244.35,1441.99 -191.39,3533.35 118.27,4671.17 309.65,1137.83 758.76,891.25 1003.1,-550.75 244.34,-1441.99 191.39,-3533.35 -118.27,-4671.17 -309.66,-1137.82 -758.76,-891.24 -1003.1,550.75z"/>
     <path id="_166" class="fil126" d="M1125.92 -188.22c243.8,-1438.81 691.92,-1684.85 1000.9,-549.54 308.97,1135.32 361.81,3222.06 118,4660.87 -243.8,1438.81 -691.91,1684.84 -1000.89,549.53 -308.97,-1135.31 -361.81,-3222.05 -118.01,-4660.86zm-3.71 -13.65c-245.42,1448.36 -192.23,3548.95 118.79,4691.8 311.03,1142.85 762.12,895.18 1007.54,-553.18 245.42,-1448.36 192.23,-3548.95 -118.79,-4691.8 -311.03,-1142.84 -762.12,-895.18 -1007.54,553.18z"/>
     <path id="_167" class="fil127" d="M1123.45 -197.32c244.88,-1445.17 694.98,-1692.3 1005.32,-551.96 310.34,1140.33 363.41,3236.3 118.53,4681.48 -244.88,1445.18 -694.98,1692.3 -1005.32,551.97 -310.34,-1140.34 -363.41,-3236.31 -118.53,-4681.49zm-3.72 -13.64c-246.49,1454.73 -193.08,3564.55 119.32,4712.42 312.39,1147.87 765.46,899.11 1011.96,-555.61 246.5,-1454.73 193.08,-3564.55 -119.31,-4712.42 -312.4,-1147.88 -765.47,-899.12 -1011.97,555.61z"/>
     <path id="_168" class="fil128" d="M1120.97 -206.41c245.96,-1451.55 698.04,-1699.76 1009.75,-554.4 311.71,1145.36 365.02,3250.56 119.06,4702.11 -245.96,1451.54 -698.04,1699.75 -1009.75,554.39 -311.72,-1145.35 -365.02,-3250.56 -119.06,-4702.1zm-3.71 -13.65c-247.58,1461.1 -193.93,3580.15 119.84,4733.05 313.76,1152.89 768.81,903.04 1016.39,-558.05 247.58,-1461.09 193.92,-3580.15 -119.84,-4733.04 -313.76,-1152.9 -768.81,-903.05 -1016.39,558.04z"/>
     <path id="_169" class="fil129" d="M1118.5 -215.51c247.03,-1457.91 701.1,-1707.21 1014.18,-556.83 313.07,1150.38 366.61,3264.82 119.57,4722.73 -247.04,1457.91 -701.1,1707.21 -1014.18,556.83 -313.08,-1150.38 -366.61,-3264.82 -119.57,-4722.73zm-3.72 -13.64c-248.65,1467.46 -194.77,3595.75 120.36,4753.66 315.13,1157.92 772.17,906.99 1020.82,-560.47 248.66,-1467.46 194.77,-3595.75 -120.35,-4753.67 -315.13,-1157.92 -772.17,-906.98 -1020.83,560.48z"/>
     <path id="_170" class="fil130" d="M1116.02 -224.61c248.12,-1464.27 704.16,-1714.66 1018.61,-559.26 314.44,1155.41 368.21,3279.08 120.1,4743.36 -248.12,1464.28 -704.17,1714.67 -1018.61,559.26 -314.45,-1155.41 -368.22,-3279.08 -120.1,-4743.36zm-3.71 -13.64c-249.74,1473.83 -195.62,3611.35 120.88,4774.29 316.49,1162.94 775.51,910.92 1025.25,-562.91 249.73,-1473.82 195.61,-3611.35 -120.88,-4774.29 -316.5,-1162.94 -775.52,-910.92 -1025.25,562.91z"/>
     <path id="_171" class="fil131" d="M1113.55 -233.7c249.19,-1470.64 707.22,-1722.12 1023.03,-561.69 315.81,1160.43 369.82,3293.33 120.62,4763.98 -249.19,1470.64 -707.22,1722.12 -1023.03,561.69 -315.82,-1160.43 -369.82,-3293.34 -120.62,-4763.98zm-3.72 -13.64c-250.81,1480.19 -196.46,3626.94 121.41,4794.91 317.86,1167.96 778.86,914.85 1029.67,-565.34 250.82,-1480.19 196.46,-3626.95 -121.4,-4794.91 -317.86,-1167.97 -778.86,-914.86 -1029.68,565.34z"/>
     <path id="_172" class="fil132" d="M1111.07 -242.8c250.27,-1477.01 710.29,-1729.57 1027.47,-564.12 317.17,1165.45 371.41,3307.59 121.14,4784.6 -250.28,1477.01 -710.29,1729.58 -1027.47,564.12 -317.18,-1165.45 -371.41,-3307.59 -121.14,-4784.6zm-3.71 -13.64c-251.9,1486.56 -197.31,3642.55 121.92,4815.54 319.23,1172.98 782.22,918.78 1034.11,-567.78 251.89,-1486.55 197.31,-3642.54 -121.92,-4815.53 -319.23,-1172.99 -782.22,-918.79 -1034.11,567.77z"/>
     <path id="_173" class="fil133" d="M1108.59 -251.89c251.36,-1483.38 713.35,-1737.03 1031.9,-566.56 318.54,1170.48 373.02,3321.85 121.66,4805.23 -251.35,1483.37 -713.34,1737.03 -1031.89,566.55 -318.55,-1170.47 -373.02,-3321.85 -121.67,-4805.22zm-3.71 -13.65c-252.97,1492.93 -198.15,3658.15 122.45,4836.16 320.6,1178.01 785.56,922.73 1038.54,-570.2 252.97,-1492.93 198.15,-3658.15 -122.45,-4836.16 -320.6,-1178.01 -785.57,-922.72 -1038.54,570.2z"/>
     <path id="_174" class="fil134" d="M1106.12 -260.99c252.43,-1489.74 716.41,-1744.48 1036.32,-568.98 319.92,1175.49 374.62,3336.1 122.19,4825.84 -252.43,1489.75 -716.41,1744.49 -1036.32,568.99 -319.92,-1175.5 -374.62,-3336.11 -122.19,-4825.85zm-3.71 -13.64c-254.05,1499.29 -199,3673.74 122.97,4856.78 321.96,1183.03 788.91,926.66 1042.96,-572.63 254.05,-1499.3 199,-3673.75 -122.97,-4856.79 -321.96,-1183.03 -788.91,-926.65 -1042.96,572.64z"/>
     <path id="_175" class="fil135" d="M1103.64 -270.08c253.51,-1496.11 719.47,-1751.95 1040.76,-571.42 321.28,1180.52 376.21,3350.36 122.7,4846.47 -253.51,1496.11 -719.47,1751.94 -1040.75,571.42 -321.28,-1180.53 -376.22,-3350.37 -122.71,-4846.47zm-3.71 -13.65c-255.13,1505.66 -199.84,3689.35 123.49,4877.41 323.33,1188.06 792.27,930.59 1047.4,-575.07 255.13,-1505.66 199.84,-3689.34 -123.49,-4877.4 -323.34,-1188.06 -792.27,-930.6 -1047.4,575.06z"/>
     <path id="_176" class="fil136" d="M1101.17 -279.18c254.59,-1502.48 722.53,-1759.4 1045.18,-573.85 322.65,1185.55 377.82,3364.62 123.23,4867.09 -254.59,1502.48 -722.53,1759.4 -1045.18,573.85 -322.65,-1185.54 -377.82,-3364.61 -123.23,-4867.09zm-3.72 -13.64c-256.2,1512.02 -200.68,3704.94 124.02,4898.02 324.7,1193.09 795.62,934.53 1051.82,-577.49 256.21,-1512.03 200.69,-3704.95 -124.01,-4898.03 -324.7,-1193.08 -795.62,-934.53 -1051.83,577.5z"/>
     <path id="_177" class="fil137" d="M1098.69 -288.28c255.67,-1508.84 725.6,-1766.85 1049.61,-576.28 324.02,1190.57 379.42,3378.88 123.75,4887.72 -255.66,1508.84 -725.59,1766.85 -1049.6,576.28 -324.02,-1190.57 -379.43,-3378.87 -123.76,-4887.72zm-3.71 -13.64c-257.29,1518.39 -201.53,3720.55 124.54,4918.65 326.06,1198.11 798.96,938.46 1056.25,-579.93 257.28,-1518.39 201.53,-3720.54 -124.54,-4918.65 -326.06,-1198.1 -798.96,-938.46 -1056.25,579.93z"/>
     <path id="_178" class="fil138" d="M1096.22 -297.37c256.74,-1515.21 728.65,-1774.31 1054.04,-578.71 325.38,1195.59 381.02,3393.13 124.27,4908.34 -256.75,1515.2 -728.66,1774.3 -1054.04,578.71 -325.38,-1195.59 -381.02,-3393.13 -124.27,-4908.34zm-3.72 -13.65c-258.36,1524.76 -202.37,3736.15 125.06,4939.28 327.44,1203.13 802.32,942.4 1060.68,-582.36 258.37,-1524.76 202.38,-3736.15 -125.05,-4939.28 -327.44,-1203.13 -802.32,-942.39 -1060.69,582.36z"/>
     <path id="_179" class="fil139" d="M1093.74 -306.47c257.83,-1521.57 731.72,-1781.76 1058.47,-581.14 326.75,1200.62 382.62,3407.39 124.8,4928.96 -257.83,1521.58 -731.72,1781.76 -1058.47,581.15 -326.75,-1200.62 -382.62,-3407.39 -124.8,-4928.97zm-3.71 -13.64c-259.45,1531.12 -203.22,3751.74 125.58,4959.9 328.8,1208.15 805.67,946.33 1065.11,-584.79 259.44,-1531.13 203.22,-3751.75 -125.58,-4959.9 -328.8,-1208.16 -805.67,-946.34 -1065.11,584.79z"/>
     <path id="_180" class="fil140" d="M1091.27 -315.56c258.9,-1527.94 734.78,-1789.22 1062.89,-583.58 328.12,1205.64 384.23,3421.65 125.32,4949.59 -258.9,1527.94 -734.78,1789.21 -1062.89,583.57 -328.12,-1205.64 -384.23,-3421.64 -125.32,-4949.58zm-3.72 -13.65c-260.52,1537.49 -204.06,3767.35 126.11,4980.52 330.16,1213.18 809.01,950.27 1069.53,-587.22 260.53,-1537.49 204.07,-3767.34 -126.1,-4980.52 -330.17,-1213.18 -809.01,-950.27 -1069.54,587.22z"/>
     <path id="_181" class="fil141" d="M1088.79 -324.66c259.98,-1534.31 737.84,-1796.67 1067.32,-586.01 329.49,1210.67 385.83,3435.91 125.85,4970.21 -259.99,1534.31 -737.84,1796.68 -1067.33,586.01 -329.48,-1210.66 -385.82,-3435.9 -125.84,-4970.21zm-3.71 -13.64c-261.6,1543.85 -204.91,3782.94 126.62,5001.14 331.54,1218.2 812.37,954.2 1073.97,-589.65 261.6,-1543.86 204.91,-3782.95 -126.63,-5001.15 -331.53,-1218.2 -812.36,-954.2 -1073.96,589.66z"/>
     <path id="_182" class="fil142" d="M1086.32 -333.76c261.06,-1540.67 740.9,-1804.12 1071.75,-588.43 330.85,1215.68 387.42,3450.16 126.36,4990.83 -261.06,1540.67 -740.9,1804.13 -1071.75,588.44 -330.85,-1215.69 -387.43,-3450.16 -126.36,-4990.84zm-3.72 -13.64c-262.68,1550.22 -205.75,3798.55 127.15,5021.77 332.9,1223.22 815.72,958.14 1078.4,-592.09 262.68,-1550.22 205.75,-3798.54 -127.15,-5021.77 -332.9,-1223.22 -815.72,-958.13 -1078.4,592.09z"/>
     <path id="_183" class="fil143" d="M1083.84 -342.85c262.14,-1547.04 743.96,-1811.58 1076.18,-590.87 332.22,1220.71 389.03,3464.42 126.89,5011.46 -262.14,1547.04 -743.97,1811.58 -1076.18,590.87 -332.22,-1220.72 -389.03,-3464.42 -126.89,-5011.46zm-3.71 -13.65c-263.76,1556.59 -206.6,3814.15 127.67,5042.4 334.26,1228.24 819.06,962.07 1082.82,-594.52 263.76,-1556.59 206.6,-3814.15 -127.67,-5042.39 -334.27,-1228.25 -819.06,-962.07 -1082.82,594.51z"/>
     <path id="_184" class="fil144" d="M1081.36 -351.95c263.22,-1553.4 747.03,-1819.03 1080.61,-593.3 333.59,1225.74 390.63,3478.67 127.41,5032.08 -263.22,1553.41 -747.02,1819.04 -1080.61,593.3 -333.58,-1225.73 -390.62,-3478.67 -127.41,-5032.08zm-3.71 -13.64c-264.84,1562.95 -207.44,3829.74 128.19,5063.01 335.64,1233.27 822.42,966.01 1087.26,-596.94 264.83,-1562.96 207.44,-3829.75 -128.2,-5063.02 -335.63,-1233.27 -822.41,-966.01 -1087.25,596.95z"/>
     <path id="_185" class="fil145" d="M1078.89 -361.04c264.3,-1559.78 750.09,-1826.49 1085.04,-595.74 334.95,1230.76 392.23,3492.93 127.93,5052.71 -264.3,1559.77 -750.09,1826.49 -1085.04,595.73 -334.95,-1230.76 -392.23,-3492.93 -127.93,-5052.7zm-3.71 -13.65c-265.92,1569.33 -208.29,3845.35 128.71,5083.64 337,1238.29 825.77,969.94 1091.68,-599.38 265.92,-1569.32 208.29,-3845.34 -128.71,-5083.64 -337.01,-1238.29 -825.77,-969.94 -1091.68,599.38z"/>
     <path id="_186" class="fil146" d="M1076.41 -370.14c265.38,-1566.14 753.15,-1833.95 1089.47,-598.16 336.32,1235.78 393.83,3507.18 128.45,5073.32 -265.37,1566.14 -753.14,1833.95 -1089.46,598.17 -336.32,-1235.78 -393.83,-3507.19 -128.46,-5073.33zm-3.71 -13.64c-266.99,1575.69 -209.13,3860.94 129.24,5104.26 338.37,1243.32 829.11,973.88 1096.11,-601.81 266.99,-1575.69 209.13,-3860.95 -129.24,-5104.27 -338.37,-1243.31 -829.11,-973.87 -1096.11,601.82z"/>
     <path id="_187" class="fil147" d="M1073.94 -379.23c266.45,-1572.51 756.21,-1841.41 1093.89,-600.6 337.69,1240.8 395.43,3521.44 128.98,5093.95 -266.46,1572.5 -756.21,1841.4 -1093.9,600.6 -337.68,-1240.81 -395.43,-3521.45 -128.97,-5093.95zm-3.71 -13.65c-268.08,1582.06 -209.98,3876.55 129.75,5124.89 339.74,1248.34 832.47,977.81 1100.54,-604.25 268.08,-1582.05 209.98,-3876.54 -129.76,-5124.88 -339.73,-1248.34 -832.46,-977.81 -1100.53,604.24z"/>
     <path id="_188" class="fil148" d="M1071.46 -388.33c267.54,-1578.87 759.27,-1848.86 1098.33,-603.03 339.05,1245.83 397.03,3535.7 129.5,5114.57 -267.54,1578.88 -759.28,1848.86 -1098.33,603.03 -339.05,-1245.83 -397.03,-3535.7 -129.5,-5114.57zm-3.71 -13.64c-269.15,1588.42 -210.82,3892.14 130.28,5145.5 341.1,1253.37 835.82,981.75 1104.97,-606.67 269.15,-1588.42 210.82,-3892.15 -130.28,-5145.51 -341.11,-1253.36 -835.82,-981.75 -1104.97,606.68z"/>
     <path id="_189" class="fil149" d="M1068.99 -397.43c268.61,-1585.24 762.33,-1856.31 1102.75,-605.46 340.42,1250.86 398.63,3549.96 130.02,5135.2 -268.61,1585.24 -762.33,1856.31 -1102.75,605.46 -340.42,-1250.85 -398.64,-3549.96 -130.02,-5135.2zm-3.72 -13.64c-270.23,1594.79 -211.66,3907.74 130.81,5166.13 342.47,1258.39 839.16,985.68 1109.39,-609.11 270.23,-1594.78 211.67,-3907.74 -130.8,-5166.13 -342.47,-1258.39 -839.16,-985.68 -1109.4,609.11z"/>
     <path id="_190" class="fil150" d="M1066.51 -406.52c269.69,-1591.61 765.4,-1863.77 1107.18,-607.89 341.79,1255.87 400.24,3564.21 130.55,5155.82 -269.7,1591.6 -765.4,1863.76 -1107.19,607.89 -341.78,-1255.88 -400.23,-3564.22 -130.54,-5155.82zm-3.71 -13.65c-271.31,1601.16 -212.51,3923.35 131.32,5186.76 343.84,1263.41 842.52,989.61 1113.83,-611.54 271.31,-1601.15 212.51,-3923.34 -131.33,-5186.75 -343.83,-1263.42 -842.51,-989.62 -1113.82,611.53z"/>
     <path id="_191" class="fil151" d="M1064.04 -415.62c270.77,-1597.97 768.45,-1871.22 1111.61,-610.32 343.15,1260.9 401.83,3578.47 131.06,5176.44 -270.77,1597.97 -768.46,1871.22 -1111.61,610.33 -343.16,-1260.9 -401.83,-3578.48 -131.06,-5176.45zm-3.72 -13.64c-272.39,1607.52 -213.36,3938.94 131.85,5207.38 345.21,1268.43 845.87,993.55 1118.25,-613.97 272.39,-1607.52 213.36,-3938.95 -131.84,-5207.38 -345.21,-1268.44 -845.87,-993.55 -1118.26,613.97z"/>
     <path id="_192" class="fil0" d="M1061.56 -424.71c271.85,-1604.34 771.52,-1878.68 1116.04,-612.76 344.52,1265.92 403.44,3592.73 131.59,5197.07 -271.85,1604.34 -771.52,1878.68 -1116.04,612.75 -344.53,-1265.92 -403.44,-3592.73 -131.59,-5197.06zm-3.71 -13.65c-273.47,1613.89 -214.21,3954.55 132.37,5228 346.57,1273.46 849.21,997.49 1122.68,-616.4 273.47,-1613.89 214.2,-3954.54 -132.37,-5228 -346.57,-1273.46 -849.21,-997.49 -1122.68,616.4z"/>
     <path id="_193" class="fil0" d="M1059.09 -433.81c272.92,-1610.7 774.57,-1886.13 1120.46,-615.19 345.89,1270.95 405.04,3606.99 132.11,5217.69 -272.93,1610.71 -774.58,1886.14 -1120.47,615.19 -345.89,-1270.95 -405.03,-3606.99 -132.1,-5217.69zm-3.72 -13.64c-274.54,1620.25 -215.05,3970.14 132.89,5248.62 347.94,1278.48 852.57,1001.42 1127.12,-618.83 274.54,-1620.26 215.04,-3970.15 -132.9,-5248.63 -347.94,-1278.48 -852.56,-1001.42 -1127.11,618.84z"/>
     <path id="_194" class="fil0" d="M1056.61 -442.91c274.01,-1617.07 777.64,-1893.58 1124.9,-617.61 347.25,1275.97 406.63,3621.24 132.63,5238.31 -274.01,1617.07 -777.64,1893.59 -1124.9,617.62 -347.26,-1275.97 -406.64,-3621.25 -132.63,-5238.32zm-3.71 -13.64c-275.63,1626.62 -215.9,3985.74 133.41,5269.25 349.31,1283.5 855.92,1005.35 1131.54,-621.27 275.63,-1626.62 215.89,-3985.74 -133.41,-5269.24 -349.31,-1283.51 -855.92,-1005.36 -1131.54,621.26z"/>
     <path id="_195" class="fil0" d="M1054.14 -452c275.08,-1623.44 780.7,-1901.04 1129.32,-620.05 348.62,1280.99 408.24,3635.5 133.15,5258.94 -275.08,1623.43 -780.7,1901.04 -1129.32,620.04 -348.63,-1280.99 -408.24,-3635.49 -133.15,-5258.93zm-2.48 -9.1c-276.17,1629.81 -216.32,3993.55 133.67,5279.56 349.99,1286.02 857.59,1007.32 1133.76,-622.48 276.16,-1629.8 216.32,-3993.54 -133.68,-5279.56 -349.99,-1286.01 -857.59,-1007.32 -1133.75,622.48z"/>
    </g>
   </g>
   <path class="fil152" d="M375.09 2074.94l1030.09 0 0 -2074.94c-100.32,0 -252.9,0 -353.22,0 13.73,344.3 904,1377.6 -676.87,2074.94z"/>
   <path class="fil153" d="M0 2074.94l1405.18 0 0 -464.92c-364.75,381.43 -1209.16,68.86 -1405.18,464.92z"/>
   <path class="fil154" d="M34.13 2074.94l1371.05 0 0 -421.97c-399.41,365.97 -1129.68,64.86 -1371.05,421.97z"/>
  </g>
 </g>
</svg>
