<?xml version="1.0" encoding="UTF-8"?>
<!DOCTYPE svg PUBLIC "-//W3C//DTD SVG 1.1//EN" "http://www.w3.org/Graphics/SVG/1.1/DTD/svg11.dtd">
<!-- Creator: CorelDRAW 2021 (64-Bit) -->
<svg xmlns="http://www.w3.org/2000/svg" xml:space="preserve" width="2336px" height="1582px" version="1.1" style="shape-rendering:geometricPrecision; text-rendering:geometricPrecision; image-rendering:optimizeQuality; fill-rule:evenodd; clip-rule:evenodd"
viewBox="0 0 2152.56 1457.75"
 xmlns:xlink="http://www.w3.org/1999/xlink"
 xmlns:xodm="http://www.corel.com/coreldraw/odm/2003">
 <defs>
  <style type="text/css">
   <![CDATA[
    .fil1 {fill:#FDFEFE}
    .fil2 {fill:#FDFEFE}
    .fil3 {fill:#FCFDFE}
    .fil4 {fill:#FBFDFE}
    .fil5 {fill:#FAFDFE}
    .fil6 {fill:#F9FCFE}
    .fil7 {fill:#F9FCFE}
    .fil8 {fill:#F9FBFE}
    .fil9 {fill:#F8FBFE}
    .fil10 {fill:#F8FBFD}
    .fil11 {fill:#F7FBFD}
    .fil12 {fill:#F6FAFD}
    .fil13 {fill:#F5FAFD}
    .fil14 {fill:#F5FAFD}
    .fil15 {fill:#F4F9FD}
    .fil16 {fill:#F4F9FC}
    .fil17 {fill:#F3F8FC}
    .fil18 {fill:#F2F8FC}
    .fil19 {fill:#F1F8FC}
    .fil20 {fill:#F0F7FB}
    .fil21 {fill:#F0F6FB}
    .fil22 {fill:#EFF6FB}
    .fil23 {fill:#EEF6FB}
    .fil24 {fill:#EEF5FB}
    .fil25 {fill:#EDF5FB}
    .fil26 {fill:#ECF4FA}
    .fil27 {fill:#EBF4FA}
    .fil28 {fill:#EBF3F9}
    .fil29 {fill:#EAF3F9}
    .fil30 {fill:#E9F2F9}
    .fil31 {fill:#E9F2F9}
    .fil32 {fill:#E8F1F8}
    .fil33 {fill:#E7F1F8}
    .fil34 {fill:#E6F1F8}
    .fil35 {fill:#E6F0F8}
    .fil36 {fill:#E6F0F7}
    .fil37 {fill:#E5EFF7}
    .fil38 {fill:#E4EEF7}
    .fil39 {fill:#E3EEF6}
    .fil40 {fill:#E2EDF6}
    .fil41 {fill:#E2EDF5}
    .fil42 {fill:#E1ECF5}
    .fil43 {fill:#E1ECF5}
    .fil44 {fill:#E0ECF5}
    .fil45 {fill:#E0EBF4}
    .fil46 {fill:#DFEBF4}
    .fil47 {fill:#DEEAF4}
    .fil48 {fill:#DDE9F2}
    .fil49 {fill:#DCE8F2}
    .fil50 {fill:#DBE7F2}
    .fil51 {fill:#DBE7F1}
    .fil52 {fill:#DAE6F1}
    .fil53 {fill:#D9E6F1}
    .fil54 {fill:#D8E5F0}
    .fil55 {fill:#D7E4F0}
    .fil56 {fill:#D6E3EE}
    .fil57 {fill:#D5E2EE}
    .fil58 {fill:#D5E2EE}
    .fil59 {fill:#D5E1ED}
    .fil60 {fill:#D4E1ED}
    .fil61 {fill:#D3E0EC}
    .fil62 {fill:#D3E0EC}
    .fil63 {fill:#D2DFEB}
    .fil64 {fill:#D1DFEB}
    .fil65 {fill:#D1DEEA}
    .fil66 {fill:#D0DEEA}
    .fil67 {fill:#D0DDE9}
    .fil68 {fill:#CFDCE9}
    .fil69 {fill:#CEDBE8}
    .fil70 {fill:#CDD9E6}
    .fil71 {fill:#CCD8E5}
    .fil72 {fill:#CAD7E4}
    .fil73 {fill:#C8D6E3}
    .fil74 {fill:#C8D5E2}
    .fil75 {fill:#C6D3E0}
    .fil76 {fill:#C5D2DE}
    .fil77 {fill:#C3D0DC}
    .fil78 {fill:#C2CEDA}
    .fil79 {fill:#C0CDD9}
    .fil80 {fill:#BFCBD7}
    .fil81 {fill:#BEC9D5}
    .fil82 {fill:#BBC7D3}
    .fil83 {fill:#BAC5D1}
    .fil84 {fill:#B8C3CE}
    .fil85 {fill:#B7C2CC}
    .fil86 {fill:#B4BFCA}
    .fil87 {fill:#B3BDC8}
    .fil88 {fill:#B1BBC6}
    .fil89 {fill:#B0B9C3}
    .fil90 {fill:#ADB6C0}
    .fil91 {fill:#ABB4BE}
    .fil92 {fill:#AAB2BC}
    .fil93 {fill:#A8B0BA}
    .fil94 {fill:#A5AEB7}
    .fil95 {fill:#A4ACB4}
    .fil96 {fill:#A2AAB2}
    .fil97 {fill:#9FA7AF}
    .fil98 {fill:#9EA5AD}
    .fil99 {fill:#9CA3AB}
    .fil100 {fill:#99A0A8}
    .fil101 {fill:#989EA5}
    .fil102 {fill:#969CA3}
    .fil103 {fill:#949AA1}
    .fil104 {fill:#92989E}
    .fil105 {fill:#90969C}
    .fil106 {fill:#8E9399}
    .fil107 {fill:#8D9297}
    .fil108 {fill:#8A8F94}
    .fil109 {fill:#888D92}
    .fil110 {fill:#878B90}
    .fil111 {fill:#85898D}
    .fil112 {fill:#83878B}
    .fil113 {fill:#818488}
    .fil114 {fill:#7F8386}
    .fil115 {fill:#7E8084}
    .fil116 {fill:#7C7E81}
    .fil117 {fill:#7B7D7F}
    .fil118 {fill:#797B7D}
    .fil119 {fill:#78797B}
    .fil120 {fill:#767779}
    .fil121 {fill:#757577}
    .fil122 {fill:#737476}
    .fil123 {fill:#727274}
    .fil124 {fill:#707072}
    .fil125 {fill:#6F6E70}
    .fil126 {fill:#6E6D6E}
    .fil127 {fill:#6C6B6D}
    .fil128 {fill:#6B6A6B}
    .fil129 {fill:#6A6969}
    .fil130 {fill:#696768}
    .fil131 {fill:#676666}
    .fil132 {fill:#666565}
    .fil133 {fill:#656364}
    .fil134 {fill:#656262}
    .fil135 {fill:#646161}
    .fil136 {fill:#636060}
    .fil137 {fill:#625F5F}
    .fil138 {fill:#615E5E}
    .fil139 {fill:#605D5D}
    .fil140 {fill:#5F5C5C}
    .fil141 {fill:#5F5C5B}
    .fil142 {fill:#5E5B5A}
    .fil143 {fill:#5D5A59}
    .fil144 {fill:#5D5959}
    .fil145 {fill:#5C5958}
    .fil146 {fill:#5C5958}
    .fil147 {fill:#5C5857}
    .fil148 {fill:#5B5857}
    .fil149 {fill:#5B5756}
    .fil150 {fill:#5B5756}
    .fil151 {fill:#5A5756}
    .fil0 {fill:#5A5655}
    .fil153 {fill:#003AAD}
    .fil152 {fill:url(#id1)}
    .fil154 {fill:url(#id2)}
   ]]>
  </style>
     <clipPath id="id0">
      <path d="M0 864.53l0 593.22 2152.56 0c0,-104.07 0,-262.36 0,-366.43 -653.22,119.29 -1065.34,509.72 -2152.56,-226.79z"/>
     </clipPath>
  <linearGradient id="id1" gradientUnits="userSpaceOnUse" x1="8.09" y1="1022.74" x2="2144.48" y2="824.13">
   <stop offset="0" style="stop-opacity:1; stop-color:#000066"/>
   <stop offset="0.490196" style="stop-opacity:1; stop-color:#022AAC"/>
   <stop offset="1" style="stop-opacity:1; stop-color:#0554F2"/>
  </linearGradient>
  <linearGradient id="id2" gradientUnits="userSpaceOnUse" x1="446.64" y1="723.93" x2="-8.89" y2="769.22">
   <stop offset="0" style="stop-opacity:1; stop-color:#000066"/>
   <stop offset="0.768627" style="stop-opacity:1; stop-color:#00239E"/>
   <stop offset="1" style="stop-opacity:1; stop-color:#0047D6"/>
  </linearGradient>
 </defs>
 <g id="Layer_x0020_1">
  <metadata id="CorelCorpID_0Corel-Layer"/>
  <g id="_2126113962368">
   <g>
    <g style="clip-path:url(#id0)">
     <polygon class="fil0" points="-1343.35,1230.12 312.39,779.51 2982.34,1231.92 1326.6,1682.54 "/>
     <path id="_1" class="fil1" d="M790.86 1591.78c402.88,68.26 471.77,193.74 153.88,280.25 -317.9,86.52 -902.21,101.31 -1305.09,33.05 -402.88,-68.27 -471.77,-193.74 -153.87,-280.26 317.89,-86.52 902.2,-101.31 1305.08,-33.04zm14.16 -3.86c-412.79,-69.94 -1011.47,-54.78 -1337.18,33.86 -325.72,88.64 -255.13,217.21 157.66,287.15 412.78,69.95 1011.46,54.79 1337.17,-33.86 325.72,-88.64 255.13,-217.2 -157.65,-287.15z"/>
     <path id="_2" class="fil1" d="M800.3 1589.21c409.48,69.38 479.5,196.92 156.39,284.85 -323.1,87.94 -916.99,102.97 -1326.47,33.59 -409.49,-69.39 -479.51,-196.92 -156.4,-284.86 323.11,-87.93 916.99,-102.97 1326.48,-33.58zm14.15 -3.86c-419.39,-71.06 -1027.64,-55.66 -1358.57,34.4 -330.93,90.06 -259.21,220.68 160.18,291.75 419.39,71.06 1027.65,55.66 1358.57,-34.4 330.93,-90.06 259.21,-220.68 -160.18,-291.75z"/>
     <path id="_3" class="fil2" d="M809.73 1586.64c416.09,70.5 487.24,200.09 158.92,289.45 -328.32,89.35 -931.78,104.63 -1347.87,34.12 -416.09,-70.5 -487.24,-200.09 -158.92,-289.44 328.32,-89.36 931.78,-104.64 1347.87,-34.13zm14.16 -3.85c-426,-72.19 -1043.83,-56.54 -1379.97,34.94 -336.14,91.48 -263.29,224.15 162.71,296.34 425.99,72.18 1043.82,56.54 1379.96,-34.94 336.14,-91.48 263.29,-224.16 -162.7,-296.34z"/>
     <path id="_4" class="fil2" d="M819.17 1584.07c422.69,71.62 494.97,203.27 161.44,294.04 -333.53,90.77 -946.57,106.3 -1369.27,34.67 -422.69,-71.62 -494.97,-203.27 -161.44,-294.04 333.53,-90.77 946.58,-106.29 1369.27,-34.67zm14.15 -3.85c-432.6,-73.3 -1060.01,-57.42 -1401.36,35.48 -341.35,92.9 -267.37,227.63 165.23,300.93 432.6,73.31 1060.01,57.42 1401.36,-35.48 341.35,-92.9 267.38,-227.63 -165.23,-300.93z"/>
     <path id="_5" class="fil2" d="M828.61 1581.5c429.29,72.75 502.7,206.45 163.96,298.64 -338.74,92.19 -961.36,107.95 -1390.66,35.21 -429.3,-72.74 -502.71,-206.45 -163.97,-298.64 338.75,-92.19 961.37,-107.95 1390.67,-35.21zm14.15 -3.85c-439.21,-74.42 -1076.2,-58.29 -1422.76,36.02 -346.56,94.32 -271.45,231.11 167.75,305.53 439.21,74.42 1076.2,58.3 1422.76,-36.02 346.56,-94.32 271.46,-231.11 -167.75,-305.53z"/>
     <path id="_6" class="fil2" d="M838.04 1578.93c435.91,73.87 510.44,209.63 166.49,303.24 -343.96,93.6 -976.16,109.61 -1412.06,35.75 -435.9,-73.86 -510.44,-209.63 -166.49,-303.23 343.96,-93.61 976.16,-109.62 1412.06,-35.76zm14.16 -3.85c-445.81,-75.54 -1092.38,-59.17 -1444.15,36.57 -351.78,95.73 -275.54,234.58 170.27,310.12 445.81,75.54 1092.38,59.17 1444.15,-36.56 351.77,-95.74 275.54,-234.59 -170.27,-310.13z"/>
     <path id="_7" class="fil2" d="M847.48 1576.37c442.51,74.98 518.17,212.8 169.01,307.82 -349.17,95.03 -990.95,111.28 -1433.46,36.3 -442.5,-74.98 -518.17,-212.8 -169.01,-307.83 349.17,-95.02 990.95,-111.27 1433.46,-36.29zm14.15 -3.86c-452.41,-76.66 -1108.56,-60.04 -1465.54,37.11 -356.99,97.16 -279.62,238.06 172.79,314.72 452.41,76.66 1108.56,60.05 1465.55,-37.11 356.98,-97.15 279.62,-238.06 -172.8,-314.72z"/>
     <path id="_8" class="fil3" d="M856.91 1573.8c449.12,76.1 525.92,215.97 171.54,312.42 -354.38,96.44 -1005.74,112.94 -1454.85,36.83 -449.11,-76.1 -525.91,-215.97 -171.53,-312.42 354.37,-96.44 1005.73,-112.93 1454.84,-36.83zm14.16 -3.85c-459.02,-77.78 -1124.75,-60.93 -1486.94,37.65 -362.2,98.57 -283.71,241.53 175.31,319.31 459.02,77.78 1124.75,60.92 1486.94,-37.65 362.2,-98.57 283.71,-241.53 -175.31,-319.31z"/>
     <path id="_9" class="fil3" d="M866.35 1571.23c455.72,77.22 533.65,219.15 174.06,317.01 -359.59,97.87 -1020.53,114.6 -1476.25,37.38 -455.72,-77.22 -533.64,-219.15 -174.05,-317.01 359.59,-97.86 1020.52,-114.6 1476.24,-37.38zm14.15 -3.85c-465.62,-78.9 -1140.92,-61.8 -1508.33,38.19 -367.41,99.99 -287.79,245.01 177.84,323.91 465.62,78.89 1140.93,61.8 1508.33,-38.2 367.41,-99.99 287.79,-245 -177.84,-323.9z"/>
     <path id="_10" class="fil3" d="M875.79 1568.66c462.32,78.34 541.38,222.33 176.57,321.61 -364.8,99.28 -1035.31,116.26 -1497.63,37.92 -462.33,-78.34 -541.38,-222.33 -176.58,-321.61 364.8,-99.28 1035.31,-116.26 1497.64,-37.92zm14.15 -3.85c-472.23,-80.02 -1157.11,-62.68 -1529.73,38.73 -372.62,101.41 -291.87,248.49 180.36,328.5 472.23,80.02 1157.11,62.68 1529.73,-38.73 372.62,-101.41 291.87,-248.48 -180.36,-328.5z"/>
     <path id="_11" class="fil3" d="M885.22 1566.09c468.93,79.46 549.12,225.51 179.1,326.21 -370.01,100.7 -1050.1,117.92 -1519.03,38.46 -468.93,-79.46 -549.11,-225.51 -179.1,-326.2 370.01,-100.7 1050.11,-117.92 1519.03,-38.47zm14.16 -3.85c-478.84,-81.13 -1173.3,-63.55 -1551.13,39.28 -377.83,102.82 -295.95,251.95 182.89,333.09 478.83,81.14 1173.29,63.55 1551.12,-39.27 377.83,-102.83 295.95,-251.96 -182.88,-333.1z"/>
     <path id="_12" class="fil4" d="M894.66 1563.53c475.53,80.57 556.85,228.68 181.62,330.79 -375.22,102.12 -1064.9,119.58 -1540.43,39.01 -475.53,-80.58 -556.84,-228.68 -181.62,-330.8 375.23,-102.12 1064.9,-119.58 1540.43,-39zm14.15 -3.86c-485.43,-82.25 -1189.48,-64.43 -1572.52,39.82 -383.04,104.24 -300.03,255.43 185.41,337.69 485.44,82.26 1189.48,64.43 1572.52,-39.82 383.04,-104.24 300.03,-255.43 -185.41,-337.69z"/>
     <path id="_13" class="fil4" d="M904.09 1560.96c482.14,81.69 564.59,231.86 184.15,335.39 -380.44,103.54 -1079.69,121.24 -1561.82,39.55 -482.14,-81.7 -564.58,-231.86 -184.15,-335.4 380.44,-103.53 1079.69,-121.24 1561.82,-39.54zm14.16 -3.85c-492.04,-83.38 -1205.66,-65.31 -1593.92,40.35 -388.25,105.67 -304.11,258.91 187.93,342.29 492.05,83.37 1205.67,65.3 1593.92,-40.36 388.25,-105.66 304.11,-258.91 -187.93,-342.28z"/>
     <path id="_14" class="fil4" d="M913.53 1558.39c488.74,82.82 572.32,235.03 186.67,339.99 -385.65,104.95 -1094.48,122.9 -1583.22,40.08 -488.74,-82.81 -572.31,-235.03 -186.67,-339.98 385.65,-104.96 1094.48,-122.9 1583.22,-40.09zm14.16 -3.85c-498.65,-84.5 -1221.85,-66.18 -1615.31,40.9 -393.47,107.08 -308.2,262.38 190.45,346.87 498.64,84.5 1221.84,66.19 1615.31,-40.89 393.46,-107.08 308.19,-262.39 -190.45,-346.88z"/>
     <path id="_15" class="fil4" d="M922.97 1555.82c495.34,83.94 580.05,238.21 189.19,344.58 -390.86,106.38 -1109.27,124.57 -1604.61,40.63 -495.35,-83.93 -580.05,-238.21 -189.2,-344.58 390.86,-106.37 1109.27,-124.56 1604.62,-40.63zm14.15 -3.85c-505.25,-85.61 -1238.03,-67.06 -1636.7,41.44 -398.68,108.5 -312.28,265.86 192.97,351.47 505.25,85.62 1238.03,67.06 1636.71,-41.44 398.67,-108.5 312.27,-265.86 -192.98,-351.47z"/>
     <path id="_16" class="fil5" d="M932.4 1553.25c501.95,85.06 587.79,241.39 191.72,349.18 -396.07,107.79 -1124.06,126.22 -1626.01,41.17 -501.95,-85.05 -587.78,-241.39 -191.71,-349.18 396.07,-107.79 1124.05,-126.22 1626,-41.17zm14.16 -3.85c-511.86,-86.73 -1254.21,-67.93 -1658.1,41.98 -403.89,109.92 -316.36,269.34 195.5,356.07 511.85,86.73 1254.21,67.94 1658.09,-41.98 403.89,-109.92 316.36,-269.34 -195.49,-356.07z"/>
     <path id="_17" class="fil5" d="M941.84 1550.69c508.55,86.17 595.52,244.56 194.23,353.77 -401.28,109.2 -1138.84,127.88 -1647.4,41.71 -508.55,-86.18 -595.51,-244.56 -194.23,-353.77 401.28,-109.21 1138.85,-127.89 1647.4,-41.71zm14.15 -3.86c-518.46,-87.85 -1270.39,-68.81 -1679.49,42.53 -409.1,111.33 -320.44,272.81 198.02,360.66 518.46,87.85 1270.39,68.81 1679.49,-42.52 409.1,-111.34 320.44,-272.81 -198.02,-360.67z"/>
     <path id="_18" class="fil5" d="M951.28 1548.12c515.15,87.29 603.25,247.74 196.75,358.36 -406.49,110.63 -1153.63,129.55 -1668.79,42.25 -515.16,-87.29 -603.25,-247.73 -196.76,-358.36 406.49,-110.63 1153.64,-129.54 1668.8,-42.25zm14.15 -3.85c-525.07,-88.97 -1286.58,-69.69 -1700.89,43.06 -414.31,112.76 -324.52,276.29 200.54,365.26 525.07,88.97 1286.58,69.69 1700.89,-43.07 414.31,-112.75 324.53,-276.28 -200.54,-365.25z"/>
     <path id="_19" class="fil6" d="M960.71 1545.55c521.77,88.41 610.99,250.91 199.28,362.96 -411.7,112.05 -1168.43,131.2 -1690.19,42.79 -521.76,-88.41 -610.98,-250.91 -199.28,-362.96 411.7,-112.04 1168.43,-131.2 1690.19,-42.79zm14.16 -3.85c-531.67,-90.09 -1302.77,-70.57 -1722.29,43.6 -419.52,114.18 -328.6,279.77 203.07,369.86 531.67,90.09 1302.76,70.56 1722.28,-43.61 419.52,-114.17 328.61,-279.76 -203.06,-369.85z"/>
     <path id="_20" class="fil6" d="M970.15 1542.98c528.37,89.53 618.72,254.09 201.8,367.56 -416.91,113.46 -1183.22,132.86 -1711.59,43.33 -528.36,-89.53 -618.71,-254.09 -201.8,-367.55 416.92,-113.47 1183.22,-132.87 1711.59,-43.34zm14.15 -3.85c-538.27,-91.21 -1318.94,-71.44 -1743.68,44.15 -424.73,115.59 -332.68,283.23 205.59,374.44 538.28,91.21 1318.95,71.45 1743.68,-44.14 424.73,-115.6 332.69,-283.24 -205.59,-374.45z"/>
     <path id="_21" class="fil7" d="M979.58 1540.41c534.98,90.65 626.46,257.27 204.33,372.15 -422.13,114.88 -1198.01,134.53 -1732.98,43.88 -534.97,-90.65 -626.45,-257.27 -204.33,-372.15 422.13,-114.88 1198.01,-134.53 1732.98,-43.88zm14.16 -3.85c-544.88,-92.33 -1335.13,-72.32 -1765.08,44.69 -429.94,117.01 -336.77,286.71 208.11,379.04 544.88,92.33 1335.13,72.32 1765.08,-44.69 429.94,-117.01 336.77,-286.71 -208.11,-379.04z"/>
     <path id="_22" class="fil8" d="M989.02 1537.85c541.58,91.76 634.19,260.44 206.85,376.74 -427.34,116.3 -1212.8,136.19 -1754.38,44.42 -541.57,-91.77 -634.18,-260.44 -206.85,-376.75 427.34,-116.3 1212.8,-136.18 1754.38,-44.41zm14.15 -3.86c-551.48,-93.44 -1351.31,-73.19 -1786.46,45.24 -435.16,118.42 -340.86,290.18 210.63,383.63 551.48,93.45 1351.31,73.2 1786.47,-45.23 435.15,-118.43 340.85,-290.19 -210.64,-383.64z"/>
     <path id="_23" class="fil8" d="M998.46 1535.28c548.18,92.89 641.92,263.62 209.37,381.33 -432.55,117.72 -1227.59,137.85 -1775.77,44.97 -548.19,-92.89 -641.92,-263.62 -209.37,-381.34 432.55,-117.72 1227.58,-137.85 1775.77,-44.96zm14.15 -3.85c-558.09,-94.57 -1367.5,-74.08 -1807.86,45.77 -440.37,119.85 -344.94,293.66 213.15,388.23 558.09,94.56 1367.5,74.07 1807.86,-45.78 440.37,-119.84 344.94,-293.66 -213.15,-388.22z"/>
     <path id="_24" class="fil8" d="M1007.89 1532.71c554.79,94.01 649.66,266.79 211.9,385.93 -437.77,119.14 -1242.38,139.51 -1797.17,45.5 -554.79,-94 -649.65,-266.79 -211.89,-385.93 437.76,-119.13 1242.38,-139.51 1797.16,-45.5zm14.16 -3.85c-564.7,-95.69 -1383.68,-74.95 -1829.26,46.31 -445.58,121.27 -349.02,297.14 215.68,392.83 564.69,95.68 1383.68,74.94 1829.25,-46.32 445.58,-121.26 349.02,-297.14 -215.67,-392.82z"/>
     <path id="_25" class="fil9" d="M1017.33 1530.14c561.39,95.13 657.39,269.97 214.41,390.53 -442.97,120.55 -1257.17,141.17 -1818.56,46.04 -561.39,-95.12 -657.38,-269.97 -214.41,-390.52 442.97,-120.56 1257.17,-141.17 1818.56,-46.05zm14.15 -3.85c-571.29,-96.81 -1399.86,-75.83 -1850.65,46.86 -450.79,122.68 -353.1,300.61 218.2,397.41 571.3,96.81 1399.86,75.83 1850.65,-46.85 450.79,-122.69 353.1,-300.62 -218.2,-397.42z"/>
     <path id="_26" class="fil10" d="M1026.76 1527.57c568,96.25 665.13,273.15 216.94,395.12 -448.18,121.98 -1271.96,142.83 -1839.95,46.59 -568,-96.25 -665.12,-273.15 -216.94,-395.12 448.18,-121.97 1271.96,-142.83 1839.95,-46.59zm14.16 -3.85c-577.9,-97.92 -1416.05,-76.7 -1872.05,47.4 -456,124.1 -357.18,304.09 220.72,402.01 577.91,97.93 1416.05,76.7 1872.05,-47.4 456,-124.1 357.18,-304.09 -220.72,-402.01z"/>
     <path id="_27" class="fil11" d="M1036.2 1525.01c574.6,97.36 672.86,276.32 219.46,399.71 -453.39,123.39 -1286.75,144.49 -1861.35,47.13 -574.6,-97.37 -672.86,-276.32 -219.46,-399.72 453.4,-123.39 1286.75,-144.49 1861.35,-47.12zm14.16 -3.86c-584.51,-99.04 -1432.23,-77.58 -1893.45,47.94 -461.21,125.52 -361.26,307.57 223.25,406.61 584.5,99.04 1432.23,77.58 1893.44,-47.94 461.21,-125.52 361.26,-307.56 -223.24,-406.61z"/>
     <path id="_28" class="fil11" d="M1045.64 1522.44c581.2,98.48 680.59,279.5 221.98,404.31 -458.61,124.81 -1301.54,146.15 -1882.74,47.67 -581.21,-98.49 -680.6,-279.5 -221.99,-404.31 458.61,-124.81 1301.54,-146.16 1882.75,-47.67zm14.15 -3.85c-591.11,-100.17 -1448.41,-78.46 -1914.84,48.48 -466.42,126.94 -365.34,311.04 225.77,411.2 591.11,100.16 1448.41,78.45 1914.84,-48.48 466.42,-126.94 365.34,-311.04 -225.77,-411.2z"/>
     <path id="_29" class="fil11" d="M1055.07 1519.87c587.81,99.6 688.33,282.67 224.51,408.9 -463.82,126.23 -1316.33,147.82 -1904.14,48.21 -587.81,-99.6 -688.33,-282.67 -224.51,-408.9 463.82,-126.23 1316.33,-147.81 1904.14,-48.21zm14.16 -3.85c-597.72,-101.28 -1464.6,-79.33 -1936.23,49.02 -471.64,128.36 -369.43,314.51 228.29,415.8 597.71,101.28 1464.59,79.33 1936.23,-49.03 471.63,-128.35 369.42,-314.51 -228.29,-415.79z"/>
     <path id="_30" class="fil12" d="M1064.51 1517.3c594.41,100.72 696.06,285.85 227.03,413.5 -469.03,127.65 -1331.12,149.47 -1925.54,48.75 -594.41,-100.72 -696.06,-285.85 -227.03,-413.5 469.03,-127.64 1331.13,-149.47 1925.54,-48.75zm14.15 -3.85c-604.32,-102.4 -1480.78,-80.21 -1957.62,49.56 -476.85,129.78 -373.51,317.99 230.81,420.39 604.32,102.4 1480.78,80.21 1957.63,-49.56 476.84,-129.78 373.5,-317.99 -230.82,-420.39z"/>
     <path id="_31" class="fil12" d="M1073.95 1514.73c601.01,101.84 703.79,289.03 229.55,418.09 -474.24,129.07 -1345.91,151.14 -1946.93,49.3 -601.02,-101.84 -703.8,-289.03 -229.55,-418.09 474.24,-129.07 1345.91,-151.14 1946.93,-49.3zm14.15 -3.85c-610.92,-103.52 -1496.96,-81.08 -1979.02,50.11 -482.06,131.19 -377.59,321.46 233.33,424.98 610.93,103.52 1496.97,81.09 1979.02,-50.11 482.06,-131.19 377.6,-321.46 -233.33,-424.98z"/>
     <path id="_32" class="fil13" d="M1083.38 1512.17c607.63,102.95 711.53,292.2 232.07,422.68 -479.45,130.49 -1360.7,152.8 -1968.32,49.84 -607.62,-102.96 -711.53,-292.2 -232.07,-422.69 479.45,-130.48 1360.7,-152.79 1968.32,-49.83zm14.16 -3.86c-617.53,-104.64 -1513.15,-81.96 -2000.42,50.65 -487.27,132.61 -381.67,324.94 235.86,429.58 617.53,104.64 1513.14,81.96 2000.41,-50.65 487.27,-132.61 381.68,-324.94 -235.85,-429.58z"/>
     <path id="_33" class="fil13" d="M1092.82 1509.6c614.23,104.08 719.26,295.38 234.59,427.28 -484.66,131.9 -1375.49,154.45 -1989.72,50.38 -614.22,-104.08 -719.26,-295.38 -234.59,-427.28 484.66,-131.91 1375.49,-154.46 1989.72,-50.38zm14.15 -3.85c-624.13,-105.76 -1529.33,-82.84 -2021.81,51.19 -492.48,134.03 -385.75,328.41 238.38,434.17 624.13,105.76 1529.33,82.84 2021.81,-51.19 492.48,-134.03 385.76,-328.42 -238.38,-434.17z"/>
     <path id="_34" class="fil13" d="M1102.25 1507.03c620.84,105.2 727,298.55 237.12,431.87 -489.87,133.32 -1390.28,156.12 -2011.11,50.92 -620.83,-105.19 -727,-298.55 -237.12,-431.87 489.88,-133.32 1390.28,-156.12 2011.11,-50.92zm14.16 -3.85c-630.74,-106.88 -1545.51,-83.72 -2043.21,51.73 -497.69,135.45 -389.84,331.89 240.9,438.77 630.74,106.87 1545.52,83.71 2043.21,-51.74 497.69,-135.44 389.84,-331.89 -240.9,-438.76z"/>
     <path id="_35" class="fil14" d="M1111.69 1504.46c627.44,106.32 734.73,301.73 239.64,436.47 -495.09,134.74 -1405.07,157.78 -2032.51,51.46 -627.43,-106.32 -734.73,-301.73 -239.64,-436.47 495.09,-134.74 1405.07,-157.78 2032.51,-51.46zm14.15 -3.85c-637.34,-108 -1561.69,-84.59 -2064.6,52.27 -502.9,136.87 -393.92,335.37 243.43,443.36 637.34,108 1561.7,84.6 2064.6,-52.27 502.9,-136.87 393.92,-335.37 -243.43,-443.36z"/>
     <path id="_36" class="fil15" d="M1121.13 1501.89c634.04,107.44 742.46,304.91 242.16,441.07 -500.3,136.15 -1419.86,159.44 -2053.9,52 -634.05,-107.44 -742.47,-304.91 -242.17,-441.06 500.3,-136.16 1419.87,-159.44 2053.91,-52.01zm14.15 -3.85c-643.95,-109.11 -1577.88,-85.47 -2086,52.82 -508.11,138.28 -398,338.84 245.95,447.95 643.95,109.12 1577.88,85.47 2086,-52.81 508.11,-138.29 398,-338.84 -245.95,-447.96z"/>
     <path id="_37" class="fil16" d="M1130.56 1499.33c640.65,108.55 750.2,308.08 244.69,445.65 -505.51,137.58 -1434.65,161.1 -2075.3,52.55 -640.65,-108.56 -750.2,-308.08 -244.69,-445.66 505.51,-137.58 1434.66,-161.1 2075.3,-52.54zm14.16 -3.86c-650.56,-110.23 -1594.07,-86.34 -2107.39,53.36 -513.33,139.7 -402.09,342.32 248.47,452.55 650.55,110.23 1594.06,86.34 2107.39,-53.36 513.32,-139.7 402.08,-342.31 -248.47,-452.55z"/>
     <path id="_38" class="fil16" d="M1140 1496.76c647.25,109.67 757.93,311.26 247.21,450.25 -510.72,138.99 -1449.45,162.76 -2096.7,53.09 -647.25,-109.68 -757.93,-311.26 -247.2,-450.26 510.72,-138.99 1449.44,-162.76 2096.69,-53.08zm14.15 -3.86c-657.15,-111.35 -1610.24,-87.22 -2128.78,53.9 -518.54,141.12 -406.17,345.79 250.99,457.15 657.16,111.35 1610.25,87.22 2128.79,-53.9 518.53,-141.12 406.16,-345.79 -251,-457.15z"/>
     <path id="_39" class="fil17" d="M1149.43 1494.19c653.86,110.79 765.67,314.43 249.74,454.85 -515.94,140.41 -1464.24,164.42 -2118.09,53.62 -653.86,-110.79 -765.67,-314.43 -249.73,-454.84 515.93,-140.41 1464.23,-164.42 2118.08,-53.63zm14.16 -3.85c-663.76,-112.48 -1626.43,-88.1 -2150.18,54.44 -523.75,142.54 -410.25,349.26 253.51,461.74 663.77,112.47 1626.43,88.09 2150.18,-54.44 523.75,-142.54 410.25,-349.27 -253.51,-461.74z"/>
     <path id="_40" class="fil17" d="M1158.87 1491.62c660.46,111.91 773.4,317.61 252.25,459.44 -521.14,141.83 -1479.02,166.08 -2139.48,54.17 -660.46,-111.91 -773.4,-317.61 -252.25,-459.44 521.14,-141.83 1479.02,-166.08 2139.48,-54.17zm14.16 -3.85c-670.37,-113.59 -1642.62,-88.98 -2171.58,54.98 -528.96,143.96 -414.33,352.74 256.04,466.33 670.36,113.6 1642.61,88.98 2171.57,-54.98 528.96,-143.95 414.33,-352.74 -256.03,-466.33z"/>
     <path id="_41" class="fil18" d="M1168.31 1489.05c667.06,113.03 781.13,320.79 254.77,464.04 -526.35,143.25 -1493.81,167.74 -2160.87,54.71 -667.07,-113.03 -781.14,-320.79 -254.78,-464.04 526.36,-143.24 1493.81,-167.74 2160.88,-54.71zm14.15 -3.85c-676.97,-114.71 -1658.8,-89.85 -2192.97,55.52 -534.17,145.38 -418.41,356.22 258.56,470.93 676.97,114.71 1658.8,89.85 2192.97,-55.52 534.17,-145.38 418.41,-356.22 -258.56,-470.93z"/>
     <path id="_42" class="fil18" d="M1177.74 1486.48c673.67,114.16 788.87,323.97 257.3,468.64 -531.56,144.66 -1508.6,169.4 -2182.27,55.25 -673.67,-114.15 -788.87,-323.97 -257.3,-468.63 531.57,-144.67 1508.6,-169.41 2182.27,-55.26zm14.16 -3.85c-683.58,-115.83 -1674.98,-90.73 -2214.37,56.07 -539.38,146.79 -422.49,359.69 261.09,475.52 683.57,115.83 1674.98,90.73 2214.36,-56.06 539.38,-146.8 422.49,-359.7 -261.08,-475.53z"/>
     <path id="_43" class="fil19" d="M1187.18 1483.92c680.27,115.27 796.6,327.14 259.82,473.22 -536.78,146.09 -1523.39,171.07 -2203.67,55.8 -680.27,-115.27 -796.6,-327.14 -259.82,-473.23 536.78,-146.08 1523.4,-171.06 2203.67,-55.79zm14.15 -3.86c-690.18,-116.94 -1691.16,-91.6 -2235.76,56.61 -544.59,148.21 -426.57,363.17 263.61,480.12 690.18,116.95 1691.16,91.6 2235.76,-56.61 544.59,-148.21 426.57,-363.17 -263.61,-480.12z"/>
     <path id="_44" class="fil19" d="M1196.62 1481.35c686.87,116.39 804.33,330.31 262.34,477.82 -541.99,147.5 -1538.19,172.72 -2225.06,56.33 -686.88,-116.38 -804.34,-330.31 -262.35,-477.81 541.99,-147.51 1538.19,-172.73 2225.07,-56.34zm14.15 -3.85c-696.79,-118.07 -1707.35,-92.48 -2257.15,57.15 -549.81,149.63 -430.66,366.64 266.12,484.71 696.79,118.06 1707.35,92.48 2257.16,-57.15 549.81,-149.63 430.66,-366.65 -266.13,-484.71z"/>
     <path id="_45" class="fil20" d="M1206.05 1478.78c693.48,117.51 812.07,333.49 264.87,482.41 -547.2,148.93 -1552.98,174.39 -2246.46,56.88 -693.48,-117.51 -812.07,-333.49 -264.87,-482.41 547.21,-148.92 1552.98,-174.39 2246.46,-56.88zm14.16 -3.85c-703.39,-119.19 -1723.53,-93.36 -2278.55,57.69 -555.02,151.05 -434.74,370.12 268.65,489.31 703.39,119.18 1723.53,93.35 2278.55,-57.7 555.02,-151.05 434.74,-370.11 -268.65,-489.3z"/>
     <path id="_46" class="fil20" d="M1215.49 1476.21c700.09,118.63 819.8,336.67 267.39,487.01 -552.42,150.34 -1567.77,176.05 -2267.86,57.42 -700.08,-118.63 -819.8,-336.67 -267.38,-487.01 552.41,-150.34 1567.76,-176.04 2267.85,-57.42zm14.15 -3.85c-709.99,-120.31 -1739.71,-94.23 -2299.94,58.23 -560.23,152.47 -438.82,373.6 271.17,493.9 709.99,120.31 1739.71,94.24 2299.94,-58.23 560.24,-152.47 438.83,-373.59 -271.17,-493.9z"/>
     <path id="_47" class="fil21" d="M1224.92 1473.64c706.7,119.75 827.54,339.85 269.92,491.61 -557.63,151.75 -1582.56,177.71 -2289.25,57.96 -706.69,-119.75 -827.54,-339.85 -269.91,-491.6 557.62,-151.76 1582.55,-177.71 2289.24,-57.97zm14.16 -3.85c-716.6,-121.42 -1755.9,-95.11 -2321.34,58.78 -565.44,153.88 -442.9,377.07 273.69,498.49 716.6,121.43 1755.9,95.11 2321.34,-58.77 565.45,-153.89 442.91,-377.07 -273.69,-498.5z"/>
     <path id="_48" class="fil21" d="M1234.36 1471.08c713.3,120.86 835.27,343.02 272.43,496.19 -562.83,153.18 -1597.34,179.37 -2310.64,58.51 -713.29,-120.87 -835.27,-343.02 -272.43,-496.2 562.83,-153.18 1597.34,-179.37 2310.64,-58.5zm14.15 -3.86c-723.2,-122.54 -1772.08,-95.98 -2342.73,59.32 -570.65,155.3 -446.99,380.54 276.22,503.09 723.2,122.54 1772.08,95.99 2342.73,-59.32 570.66,-155.3 446.99,-380.54 -276.22,-503.09z"/>
     <path id="_49" class="fil22" d="M1243.8 1468.51c719.9,121.98 843,346.2 274.95,500.79 -568.04,154.59 -1612.13,181.03 -2332.03,59.05 -719.91,-121.99 -843.01,-346.2 -274.96,-500.8 568.05,-154.59 1612.13,-181.03 2332.04,-59.04zm14.15 -3.85c-729.81,-123.67 -1788.26,-96.87 -2364.13,59.85 -575.86,156.73 -451.07,384.02 278.74,507.69 729.81,123.66 1788.27,96.86 2364.13,-59.86 575.87,-156.72 451.07,-384.02 -278.74,-507.68z"/>
     <path id="_50" class="fil22" d="M1253.23 1465.94c726.51,123.1 850.74,349.37 277.48,505.39 -573.26,156.01 -1626.92,182.69 -2353.43,59.58 -726.51,-123.1 -850.74,-349.37 -277.48,-505.38 573.26,-156.02 1626.93,-182.69 2353.43,-59.59zm14.16 -3.85c-736.42,-124.78 -1804.45,-97.74 -2385.53,60.4 -581.07,158.14 -455.15,387.49 281.27,512.27 736.41,124.79 1804.44,97.75 2385.52,-60.39 581.08,-158.14 455.15,-387.5 -281.26,-512.28z"/>
     <path id="_51" class="fil23" d="M1262.67 1463.37c733.11,124.23 858.47,352.55 280,509.98 -578.47,157.43 -1641.72,184.35 -2374.83,60.13 -733.11,-124.22 -858.47,-352.55 -280,-509.98 578.47,-157.43 1641.72,-184.35 2374.83,-60.13zm14.15 -3.85c-743.01,-125.9 -1820.63,-98.62 -2406.92,60.94 -586.28,159.56 -459.23,390.97 283.79,516.87 743.02,125.9 1820.63,98.62 2406.92,-60.94 586.29,-159.56 459.23,-390.97 -283.79,-516.87z"/>
     <path id="_52" class="fil24" d="M1272.1 1460.8c739.72,125.35 866.21,355.73 282.53,514.58 -583.68,158.85 -1656.51,186.01 -2396.22,60.67 -739.72,-125.34 -866.21,-355.73 -282.53,-514.58 583.69,-158.84 1656.51,-186.01 2396.22,-60.67zm14.16 -3.85c-749.62,-127.02 -1836.82,-99.49 -2428.31,61.48 -591.5,160.98 -463.32,394.45 286.3,521.47 749.63,127.02 1836.82,99.5 2428.32,-61.48 591.5,-160.98 463.31,-394.45 -286.31,-521.47z"/>
     <path id="_53" class="fil25" d="M1281.54 1458.24c746.32,126.46 873.94,358.9 285.05,519.16 -588.9,160.27 -1671.3,187.68 -2417.62,61.22 -746.32,-126.46 -873.94,-358.9 -285.04,-519.17 588.89,-160.27 1671.29,-187.67 2417.61,-61.21zm14.16 -3.86c-756.23,-128.14 -1853,-100.37 -2449.71,62.03 -596.71,162.39 -467.4,397.92 288.83,526.06 756.22,128.14 1853,100.37 2449.71,-62.03 596.71,-162.39 467.39,-397.92 -288.83,-526.06z"/>
     <path id="_54" class="fil26" d="M1290.98 1455.67c752.92,127.58 881.67,362.08 287.57,523.76 -594.11,161.69 -1686.09,189.34 -2439.01,61.75 -752.93,-127.58 -881.68,-362.07 -287.57,-523.76 594.1,-161.68 1686.08,-189.33 2439.01,-61.75zm14.15 -3.85c-762.83,-129.26 -1869.18,-101.25 -2471.1,62.56 -601.92,163.82 -471.48,401.4 291.35,530.66 762.83,129.26 1869.18,101.24 2471.1,-62.57 601.93,-163.81 471.48,-401.39 -291.35,-530.65z"/>
     <path id="_55" class="fil26" d="M1300.41 1453.1c759.53,128.7 889.41,365.25 290.1,528.36 -599.32,163.1 -1700.88,190.99 -2460.41,62.29 -759.53,-128.7 -889.41,-365.25 -290.09,-528.35 599.31,-163.11 1700.87,-191 2460.4,-62.3zm14.16 -3.85c-769.44,-130.38 -1885.37,-102.13 -2492.5,63.11 -607.13,165.23 -475.56,404.87 293.88,535.25 769.43,130.37 1885.36,102.12 2492.49,-63.11 607.14,-165.23 475.56,-404.87 -293.87,-535.25z"/>
     <path id="_56" class="fil27" d="M1309.85 1450.53c766.13,129.82 897.14,368.43 292.61,532.95 -604.52,164.53 -1715.66,192.66 -2481.8,62.84 -766.13,-129.82 -897.14,-368.43 -292.61,-532.95 604.53,-164.52 1715.67,-192.66 2481.8,-62.84zm14.15 -3.85c-776.04,-131.5 -1901.54,-103 -2513.89,63.65 -612.34,166.65 -479.64,408.35 296.4,539.84 776.04,131.5 1901.55,103 2513.89,-63.65 612.35,-166.65 479.64,-408.34 -296.4,-539.84z"/>
     <path id="_57" class="fil27" d="M1319.29 1447.96c772.73,130.94 904.87,371.61 295.13,537.55 -609.74,165.94 -1730.46,194.32 -2503.19,63.38 -772.74,-130.94 -904.88,-371.61 -295.14,-537.55 609.74,-165.94 1730.46,-194.31 2503.2,-63.38zm14.15 -3.85c-782.64,-132.61 -1917.73,-103.88 -2535.29,64.19 -617.55,168.07 -483.72,411.82 298.92,544.44 782.65,132.62 1917.73,103.88 2535.29,-64.19 617.56,-168.07 483.72,-411.82 -298.92,-544.44z"/>
     <path id="_58" class="fil28" d="M1328.72 1445.4c779.34,132.05 912.61,374.78 297.66,542.14 -614.95,167.36 -1745.25,195.97 -2524.59,63.92 -779.34,-132.06 -912.61,-374.78 -297.66,-542.14 614.95,-167.36 1745.25,-195.98 2524.59,-63.92zm14.16 -3.86c-789.25,-133.73 -1933.92,-104.75 -2556.69,64.74 -622.76,169.48 -487.8,415.29 301.45,549.03 789.25,133.74 1933.91,104.75 2556.68,-64.73 622.77,-169.49 487.81,-415.3 -301.44,-549.04z"/>
     <path id="_59" class="fil28" d="M1338.16 1442.83c785.95,133.17 920.34,377.96 300.18,546.73 -620.16,168.78 -1760.04,197.64 -2545.99,64.47 -785.94,-133.18 -920.34,-377.96 -300.18,-546.74 620.16,-168.78 1760.04,-197.64 2545.99,-64.46zm14.15 -3.85c-795.85,-134.86 -1950.1,-105.63 -2578.07,65.27 -627.98,170.91 -491.89,418.77 303.96,553.63 795.85,134.85 1950.1,105.63 2578.08,-65.28 627.98,-170.9 491.89,-418.77 -303.97,-553.62z"/>
     <path id="_60" class="fil29" d="M1347.59 1440.26c792.56,134.3 928.08,381.13 302.71,551.33 -625.37,170.2 -1774.83,199.3 -2567.38,65 -792.55,-134.29 -928.08,-381.13 -302.71,-551.33 625.38,-170.19 1774.83,-199.3 2567.38,-65zm14.16 -3.85c-802.46,-135.98 -1966.28,-106.51 -2599.47,65.81 -633.19,172.33 -495.97,422.25 306.48,558.23 802.46,135.97 1966.29,106.5 2599.48,-65.82 633.19,-172.32 495.97,-422.25 -306.49,-558.22z"/>
     <path id="_61" class="fil30" d="M1357.03 1437.69c799.16,135.42 935.81,384.31 305.23,555.93 -630.59,171.61 -1789.62,200.96 -2588.78,65.54 -799.15,-135.41 -935.81,-384.31 -305.23,-555.92 630.59,-171.62 1789.62,-200.96 2588.78,-65.55zm14.15 -3.85c-809.06,-137.09 -1982.46,-107.38 -2620.86,66.36 -638.4,173.74 -500.06,425.72 309.01,562.81 809.06,137.1 1982.46,107.39 2620.87,-66.35 638.4,-173.75 500.05,-425.73 -309.02,-562.82z"/>
     <path id="_62" class="fil31" d="M1366.47 1435.12c805.76,136.54 943.54,387.49 307.75,560.52 -635.8,173.03 -1804.41,202.62 -2610.17,66.09 -805.77,-136.53 -943.55,-387.49 -307.75,-560.52 635.79,-173.03 1804.41,-202.62 2610.17,-66.09zm14.15 -3.85c-815.67,-138.21 -1998.65,-108.26 -2642.26,66.9 -643.61,175.16 -504.14,429.2 311.53,567.41 815.67,138.21 1998.65,108.26 2642.26,-66.9 643.62,-175.16 504.14,-429.2 -311.53,-567.41z"/>
     <path id="_63" class="fil32" d="M1375.9 1432.56c812.37,137.65 951.28,390.66 310.27,565.11 -641,174.45 -1819.19,204.28 -2631.56,66.63 -812.37,-137.65 -951.28,-390.66 -310.27,-565.11 641.01,-174.46 1819.2,-204.29 2631.56,-66.63zm14.16 -3.86c-822.28,-139.33 -2014.84,-109.13 -2663.66,67.45 -648.82,176.57 -508.22,432.67 314.06,572 822.27,139.33 2014.83,109.14 2663.65,-67.44 648.83,-176.58 508.22,-432.68 -314.05,-572.01z"/>
     <path id="_64" class="fil32" d="M1385.34 1429.99c818.97,138.77 959.01,393.84 312.79,569.71 -646.22,175.86 -1833.99,205.94 -2652.96,67.17 -818.97,-138.78 -959.01,-393.84 -312.79,-569.71 646.22,-175.87 1833.99,-205.94 2652.96,-67.17zm14.15 -3.85c-828.87,-140.46 -2031.01,-110.02 -2685.05,67.98 -654.03,177.99 -512.3,436.15 316.58,576.6 828.88,140.45 2031.02,110.01 2685.05,-67.98 654.04,-178 512.3,-436.15 -316.58,-576.6z"/>
     <path id="_65" class="fil33" d="M1394.77 1427.42c825.58,139.89 966.75,397.01 315.32,574.3 -651.43,177.29 -1848.78,207.61 -2674.35,67.71 -825.58,-139.89 -966.75,-397.01 -315.32,-574.3 651.43,-177.29 1848.78,-207.6 2674.35,-67.71zm14.16 -3.85c-835.48,-141.57 -2047.2,-110.89 -2706.45,68.52 -659.24,179.42 -516.38,439.63 319.1,581.2 835.48,141.57 2047.2,110.89 2706.45,-68.53 659.25,-179.41 516.38,-439.62 -319.1,-581.19z"/>
     <path id="_66" class="fil34" d="M1404.21 1424.85c832.18,141.01 974.48,400.19 317.84,578.9 -656.64,178.7 -1863.57,209.26 -2695.75,68.25 -832.18,-141.01 -974.48,-400.19 -317.84,-578.89 656.64,-178.71 1863.57,-209.27 2695.75,-68.26zm14.16 -3.85c-842.09,-142.69 -2063.39,-111.77 -2727.85,69.07 -664.45,180.83 -520.46,443.1 321.63,585.78 842.08,142.69 2063.38,111.77 2727.84,-69.06 664.46,-180.84 520.46,-443.1 -321.62,-585.79z"/>
     <path id="_67" class="fil35" d="M1413.65 1422.28c838.78,142.13 982.21,403.37 320.36,583.49 -661.85,180.13 -1878.36,210.93 -2717.14,68.8 -838.79,-142.13 -982.22,-403.37 -320.37,-583.49 661.86,-180.13 1878.36,-210.93 2717.15,-68.8zm14.15 -3.85c-848.69,-143.81 -2079.56,-112.64 -2749.24,69.61 -669.66,182.25 -524.54,446.57 324.15,590.38 848.69,143.81 2079.57,112.65 2749.24,-69.61 669.67,-182.25 524.54,-446.57 -324.15,-590.38z"/>
     <path id="_68" class="fil36" d="M1423.08 1419.72c845.39,143.24 989.95,406.54 322.89,588.08 -667.07,181.54 -1893.15,212.59 -2738.54,69.34 -845.39,-143.25 -989.95,-406.55 -322.88,-588.09 667.06,-181.54 1893.14,-212.58 2738.53,-69.33zm14.16 -3.86c-855.3,-144.92 -2095.75,-113.52 -2770.63,70.15 -674.88,183.67 -528.63,450.05 326.67,594.98 855.29,144.93 2095.74,113.52 2770.63,-70.15 674.88,-183.67 528.62,-450.05 -326.67,-594.98z"/>
     <path id="_69" class="fil36" d="M1432.52 1417.15c851.99,144.36 997.68,409.72 325.41,592.68 -672.28,182.96 -1907.94,214.24 -2759.94,69.88 -851.99,-144.37 -997.68,-409.72 -325.4,-592.68 672.27,-182.96 1907.94,-214.25 2759.93,-69.88zm14.15 -3.85c-861.9,-146.05 -2111.93,-114.4 -2792.02,70.69 -680.09,185.09 -532.71,453.52 329.19,599.57 861.9,146.04 2111.93,114.39 2792.02,-70.69 680.1,-185.09 532.71,-453.53 -329.19,-599.57z"/>
     <path id="_70" class="fil37" d="M1441.96 1414.58c858.59,145.49 1005.41,412.89 327.93,597.27 -677.49,184.38 -1922.74,215.91 -2781.33,70.42 -858.6,-145.48 -1005.42,-412.89 -327.93,-597.27 677.49,-184.38 1922.73,-215.91 2781.33,-70.42zm14.15 -3.85c-868.51,-147.17 -2128.12,-115.28 -2813.42,71.23 -685.3,186.51 -536.79,457 331.71,604.17 868.51,147.16 2128.12,115.27 2813.42,-71.24 685.31,-186.5 536.79,-457 -331.71,-604.16z"/>
     <path id="_71" class="fil38" d="M1451.39 1412.01c865.2,146.61 1013.15,416.07 330.45,601.87 -682.69,185.8 -1937.52,217.57 -2802.72,70.96 -865.2,-146.6 -1013.15,-416.07 -330.45,-601.87 682.7,-185.79 1937.52,-217.56 2802.72,-70.96zm14.16 -3.85c-875.11,-148.29 -2144.3,-116.15 -2834.82,71.77 -690.51,187.93 -540.87,460.48 334.24,608.76 875.11,148.29 2144.3,116.15 2834.81,-71.77 690.52,-187.93 540.88,-460.48 -334.23,-608.76z"/>
     <path id="_72" class="fil38" d="M1460.83 1409.44c871.8,147.73 1020.88,419.25 332.97,606.47 -687.91,187.21 -1952.31,219.23 -2824.12,71.5 -871.8,-147.72 -1020.88,-419.25 -332.97,-606.46 687.91,-187.22 1952.31,-219.23 2824.12,-71.51zm14.15 -3.85c-881.71,-149.4 -2160.48,-117.02 -2856.21,72.32 -695.73,189.34 -544.95,463.95 336.76,613.35 881.71,149.41 2160.48,117.03 2856.21,-72.31 695.73,-189.35 544.96,-463.96 -336.76,-613.36z"/>
     <path id="_73" class="fil39" d="M1470.26 1406.88c878.42,148.84 1028.62,422.42 335.5,611.05 -693.12,188.64 -1967.1,220.89 -2845.51,72.05 -878.41,-148.85 -1028.62,-422.43 -335.5,-611.06 693.12,-188.63 1967.1,-220.89 2845.51,-72.04zm14.16 -3.86c-888.32,-150.52 -2176.67,-117.9 -2877.61,72.86 -700.94,190.76 -549.03,467.43 339.28,617.95 888.32,150.52 2176.67,117.9 2877.61,-72.86 700.94,-190.76 549.04,-467.42 -339.28,-617.95z"/>
     <path id="_74" class="fil40" d="M1479.7 1404.31c885.02,149.96 1036.35,425.6 338.02,615.65 -698.33,190.05 -1981.89,222.55 -2866.91,72.59 -885.01,-149.97 -1036.35,-425.6 -338.02,-615.66 698.34,-190.05 1981.89,-222.55 2866.91,-72.58zm14.15 -3.86c-894.92,-151.64 -2192.84,-118.77 -2899,73.4 -706.15,192.18 -553.12,470.91 341.81,622.55 894.92,151.64 2192.85,118.78 2899,-73.4 706.15,-192.18 553.12,-470.9 -341.81,-622.55z"/>
     <path id="_75" class="fil41" d="M1489.14 1401.74c891.62,151.08 1044.08,428.77 340.54,620.25 -703.55,191.47 -1996.68,224.21 -2888.3,73.12 -891.62,-151.08 -1044.09,-428.77 -340.55,-620.24 703.55,-191.47 1996.69,-224.21 2888.31,-73.13zm14.15 -3.85c-901.53,-152.76 -2209.03,-119.66 -2920.39,73.94 -711.37,193.6 -557.21,474.38 344.32,627.14 901.53,152.76 2209.04,119.65 2920.4,-73.95 711.36,-193.59 557.2,-474.37 -344.33,-627.13z"/>
     <path id="_76" class="fil42" d="M1498.57 1399.17c898.23,152.2 1051.82,431.95 343.07,624.84 -708.76,192.89 -2011.47,225.87 -2909.7,73.67 -898.23,-152.2 -1051.82,-431.95 -343.07,-624.84 708.76,-192.89 2011.48,-225.87 2909.7,-73.67zm14.16 -3.85c-908.14,-153.88 -2225.22,-120.53 -2941.79,74.48 -716.58,195.02 -561.29,477.86 346.85,631.73 908.13,153.88 2225.21,120.54 2941.79,-74.48 716.57,-195.01 561.28,-477.85 -346.85,-631.73z"/>
     <path id="_77" class="fil43" d="M1508.01 1396.6c904.83,153.32 1059.55,435.13 345.59,629.44 -713.97,194.31 -2026.27,227.53 -2931.1,74.21 -904.83,-153.32 -1059.55,-435.13 -345.58,-629.43 713.96,-194.31 2026.26,-227.54 2931.09,-74.22zm14.15 -3.85c-914.73,-155 -2241.4,-121.41 -2963.18,75.03 -721.79,196.43 -565.37,481.32 349.37,636.32 914.74,155 2241.4,121.41 2963.18,-75.02 721.79,-196.44 565.37,-481.33 -349.37,-636.33z"/>
     <path id="_78" class="fil44" d="M1517.44 1394.03c911.44,154.44 1067.29,438.31 348.11,634.03 -719.17,195.73 -2041.05,229.2 -2952.48,74.76 -911.44,-154.44 -1067.29,-438.31 -348.11,-634.03 719.18,-195.73 2041.05,-229.2 2952.48,-74.76zm14.16 -3.85c-921.34,-156.12 -2257.58,-122.28 -2984.58,75.57 -727,197.85 -569.45,484.8 351.89,640.92 921.35,156.12 2257.59,122.29 2984.58,-75.57 727,-197.85 569.45,-484.8 -351.89,-640.92z"/>
     <path id="_79" class="fil45" d="M1526.88 1391.47c918.04,155.56 1075.02,441.48 350.63,638.62 -724.39,197.14 -2055.84,230.86 -2973.88,75.3 -918.04,-155.56 -1075.02,-441.48 -350.63,-638.63 724.39,-197.14 2055.84,-230.85 2973.88,-75.29zm14.16 -3.86c-927.95,-157.23 -2273.77,-123.16 -3005.98,76.11 -732.21,199.27 -573.53,488.28 354.42,645.52 927.94,157.24 2273.76,123.16 3005.97,-76.11 732.21,-199.27 573.53,-488.28 -354.41,-645.52z"/>
     <path id="_80" class="fil45" d="M1536.32 1388.9c924.64,156.68 1082.75,444.65 353.15,643.22 -729.6,198.56 -2070.63,232.51 -2995.27,75.83 -924.65,-156.67 -1082.76,-444.65 -353.16,-643.21 729.6,-198.57 2070.63,-232.52 2995.28,-75.84zm14.15 -3.85c-934.55,-158.36 -2289.95,-124.04 -3027.37,76.65 -737.42,200.69 -577.61,491.75 356.94,650.11 934.55,158.35 2289.95,124.04 3027.37,-76.65 737.42,-200.69 577.61,-491.76 -356.94,-650.11z"/>
     <path id="_81" class="fil46" d="M1545.75 1386.33c931.25,157.8 1090.49,447.83 355.68,647.81 -734.81,199.98 -2085.42,234.18 -3016.67,76.38 -931.25,-157.79 -1090.49,-447.83 -355.68,-647.81 734.82,-199.98 2085.42,-234.18 3016.67,-76.38zm14.16 -3.85c-941.16,-159.48 -2306.14,-124.92 -3048.77,77.19 -742.63,202.11 -581.69,495.23 359.47,654.71 941.15,159.47 2306.13,124.91 3048.76,-77.2 742.63,-202.11 581.69,-495.23 -359.46,-654.7z"/>
     <path id="_82" class="fil47" d="M1555.19 1383.76c937.85,158.92 1098.22,451.01 358.2,652.41 -740.03,201.4 -2100.21,235.84 -3038.07,76.92 -937.85,-158.91 -1098.22,-451.01 -358.2,-652.41 740.03,-201.39 2100.22,-235.83 3038.07,-76.92zm14.15 -3.85c-947.76,-160.59 -2322.31,-125.79 -3070.16,77.73 -747.84,203.53 -585.77,498.71 361.99,659.3 947.76,160.6 2322.32,125.79 3070.16,-77.73 747.84,-203.53 585.77,-498.71 -361.99,-659.3z"/>
     <path id="_83" class="fil47" d="M1564.63 1381.19c944.45,160.04 1105.95,454.19 360.72,657.01 -745.24,202.81 -2115.01,237.49 -3059.46,77.46 -944.46,-160.04 -1105.96,-454.19 -360.73,-657 745.24,-202.82 2115.01,-237.5 3059.47,-77.47zm14.15 -3.85c-954.36,-161.71 -2338.5,-126.67 -3091.55,78.28 -753.06,204.94 -589.86,502.18 364.5,663.89 954.37,161.71 2338.5,126.67 3091.56,-78.27 753.05,-204.95 589.85,-502.18 -364.51,-663.9z"/>
     <path id="_84" class="fil48" d="M1574.06 1378.63c951.06,161.15 1113.69,457.36 363.25,661.59 -750.45,204.24 -2129.8,239.16 -3080.86,78.01 -951.06,-161.16 -1113.69,-457.36 -363.24,-661.6 750.44,-204.23 2129.79,-239.16 3080.85,-78zm14.16 -3.86c-960.97,-162.83 -2354.69,-127.54 -3112.95,78.82 -758.27,206.36 -593.94,505.66 367.03,668.49 960.97,162.83 2354.68,127.54 3112.95,-78.82 758.26,-206.36 593.94,-505.65 -367.03,-668.49z"/>
     <path id="_85" class="fil49" d="M1583.5 1376.06c957.67,162.27 1121.42,460.54 365.77,666.19 -755.66,205.65 -2144.59,240.82 -3102.26,78.55 -957.66,-162.28 -1121.42,-460.54 -365.76,-666.19 755.66,-205.66 2144.58,-240.83 3102.25,-78.55zm14.15 -3.85c-967.57,-163.96 -2370.86,-128.43 -3134.34,79.36 -763.48,207.78 -598.02,509.13 369.55,673.08 967.57,163.95 2370.87,128.42 3134.34,-79.36 763.48,-207.78 598.03,-509.13 -369.55,-673.08z"/>
     <path id="_86" class="fil49" d="M1592.93 1373.49c964.28,163.39 1129.16,463.71 368.29,670.78 -760.87,207.08 -2159.37,242.49 -3123.64,79.09 -964.27,-163.39 -1129.16,-463.71 -368.29,-670.78 760.87,-207.07 2159.37,-242.48 3123.64,-79.09zm14.16 -3.85c-974.18,-165.07 -2387.05,-129.3 -3155.74,79.9 -768.69,209.2 -602.1,512.6 372.07,677.67 974.18,165.08 2387.05,129.3 3155.74,-79.9 768.69,-209.19 602.11,-512.6 -372.07,-677.67z"/>
     <path id="_87" class="fil50" d="M1602.37 1370.92c970.88,164.51 1136.89,466.89 370.81,675.38 -766.08,208.49 -2174.16,244.14 -3145.04,79.63 -970.87,-164.51 -1136.89,-466.89 -370.81,-675.38 766.08,-208.49 2174.16,-244.14 3145.04,-79.63zm14.15 -3.85c-980.78,-166.19 -2403.23,-130.18 -3177.13,80.44 -773.9,210.62 -606.19,516.08 374.6,682.27 980.78,166.19 2403.23,130.18 3177.13,-80.44 773.9,-210.62 606.19,-516.08 -374.6,-682.27z"/>
     <path id="_88" class="fil51" d="M1611.81 1368.35c977.48,165.63 1144.62,470.07 373.33,679.98 -771.29,209.91 -2188.95,245.8 -3166.43,80.17 -977.48,-165.63 -1144.63,-470.07 -373.34,-679.97 771.29,-209.91 2188.96,-245.81 3166.44,-80.18zm14.15 -3.85c-987.39,-167.31 -2419.42,-131.05 -3198.53,80.99 -779.11,212.03 -610.27,519.55 377.12,686.86 987.39,167.31 2419.42,131.05 3198.53,-80.98 779.11,-212.04 610.27,-519.56 -377.12,-686.87z"/>
     <path id="_89" class="fil51" d="M1621.24 1365.79c984.09,166.75 1152.36,473.24 375.86,684.56 -776.5,211.33 -2203.74,247.47 -3187.83,80.72 -984.09,-166.75 -1152.36,-473.24 -375.86,-684.57 776.51,-211.33 2203.75,-247.46 3187.83,-80.71zm14.16 -3.86c-993.99,-168.42 -2435.6,-131.92 -3219.93,81.53 -784.32,213.45 -614.35,523.03 379.65,691.46 993.99,168.43 2435.6,131.93 3219.92,-81.53 784.32,-213.45 614.35,-523.03 -379.64,-691.46z"/>
     <path id="_90" class="fil52" d="M1630.68 1363.22c990.69,167.87 1160.09,476.42 378.38,689.16 -781.72,212.75 -2218.54,249.12 -3209.23,81.25 -990.69,-167.86 -1160.09,-476.41 -378.38,-689.16 781.72,-212.74 2218.54,-249.12 3209.23,-81.25zm14.15 -3.85c-1000.59,-169.55 -2451.78,-132.81 -3241.31,82.06 -789.54,214.88 -618.44,526.51 382.16,696.06 1000.6,169.54 2451.78,132.8 3241.32,-82.07 789.53,-214.87 618.43,-526.51 -382.17,-696.05z"/>
     <path id="_91" class="fil53" d="M1640.11 1360.65c997.3,168.99 1167.83,479.59 380.91,693.76 -786.93,214.16 -2233.33,250.78 -3230.62,81.79 -997.3,-168.98 -1167.83,-479.59 -380.91,-693.75 786.93,-214.17 2233.33,-250.79 3230.62,-81.8zm14.16 -3.85c-1007.2,-170.67 -2467.97,-133.68 -3262.71,82.61 -794.75,216.29 -622.52,529.98 384.68,700.65 1007.2,170.66 2467.97,133.68 3262.72,-82.61 794.74,-216.29 622.51,-529.99 -384.69,-700.65z"/>
     <path id="_92" class="fil54" d="M1649.55 1358.08c1003.9,170.11 1175.56,482.77 383.43,698.35 -792.14,215.58 -2248.12,252.45 -3252.02,82.34 -1003.9,-170.11 -1175.56,-482.77 -383.42,-698.35 792.14,-215.58 2248.11,-252.45 3252.01,-82.34zm14.16 -3.85c-1013.81,-171.79 -2484.16,-134.56 -3284.11,83.15 -799.96,217.71 -626.6,533.46 387.21,705.24 1013.8,171.79 2484.15,134.56 3284.1,-83.15 799.96,-217.71 626.6,-533.45 -387.2,-705.24z"/>
     <path id="_93" class="fil54" d="M1658.99 1355.51c1010.5,171.23 1183.3,485.95 385.95,702.95 -797.36,217 -2262.91,254.11 -3273.41,82.88 -1010.51,-171.23 -1183.3,-485.95 -385.95,-702.95 797.35,-217 2262.9,-254.1 3273.41,-82.88zm14.15 -3.85c-1020.41,-172.9 -2500.33,-135.43 -3305.5,83.69 -805.17,219.13 -630.68,536.94 389.73,709.84 1020.41,172.91 2500.34,135.44 3305.5,-83.69 805.17,-219.13 630.68,-536.93 -389.73,-709.84z"/>
     <path id="_94" class="fil55" d="M1668.42 1352.95c1017.11,172.34 1191.04,489.12 388.47,707.54 -802.56,218.41 -2277.69,255.76 -3294.8,83.42 -1017.11,-172.35 -1191.03,-489.12 -388.47,-707.54 802.56,-218.42 2277.7,-255.77 3294.8,-83.42zm14.16 -3.86c-1027.02,-174.02 -2516.52,-136.31 -3326.9,84.24 -810.38,220.54 -634.76,540.41 392.26,714.43 1027.01,174.02 2516.51,136.31 3326.89,-84.23 810.38,-220.55 634.76,-540.41 -392.25,-714.44z"/>
     <path id="_95" class="fil56" d="M1677.86 1350.38c1023.71,173.46 1198.77,492.3 390.99,712.13 -807.77,219.84 -2292.48,257.43 -3316.2,83.97 -1023.71,-173.47 -1198.76,-492.3 -390.99,-712.14 807.77,-219.83 2292.49,-257.43 3316.2,-83.96zm14.15 -3.85c-1033.62,-175.15 -2532.7,-137.19 -3348.29,84.77 -815.59,221.97 -638.84,543.88 394.78,719.03 1033.62,175.14 2532.7,137.19 3348.29,-84.78 815.59,-221.96 638.84,-543.88 -394.78,-719.02z"/>
     <path id="_96" class="fil56" d="M1687.3 1347.81c1030.31,174.58 1206.5,495.47 393.51,716.73 -812.98,221.25 -2307.28,259.09 -3337.59,84.5 -1030.32,-174.58 -1206.5,-495.47 -393.52,-716.73 812.99,-221.25 2307.28,-259.08 3337.6,-84.5zm14.15 -3.85c-1040.22,-176.26 -2548.88,-138.07 -3369.69,85.31 -820.8,223.39 -642.92,547.36 397.3,723.63 1040.23,176.26 2548.89,138.06 3369.69,-85.32 820.8,-223.38 642.92,-547.36 -397.3,-723.62z"/>
     <path id="_97" class="fil57" d="M1696.73 1345.24c1036.92,175.7 1214.24,498.65 396.04,721.33 -818.2,222.67 -2322.07,260.74 -3358.99,85.04 -1036.92,-175.7 -1214.23,-498.65 -396.04,-721.32 818.2,-222.67 2322.07,-260.75 3358.99,-85.05zm14.16 -3.85c-1046.83,-177.38 -2565.07,-138.94 -3391.09,85.86 -826.01,224.8 -647,550.83 399.83,728.21 1046.83,177.39 2565.06,138.95 3391.08,-85.86 826.01,-224.8 647.01,-550.83 -399.82,-728.21z"/>
     <path id="_98" class="fil58" d="M1706.17 1342.67c1043.52,176.83 1221.97,501.83 398.56,725.92 -823.41,224.09 -2336.86,262.41 -3380.39,85.59 -1043.52,-176.82 -1221.96,-501.83 -398.56,-725.92 823.41,-224.09 2336.86,-262.41 3380.39,-85.59zm14.15 -3.85c-1053.43,-178.5 -2581.25,-139.82 -3412.47,86.4 -831.23,226.22 -651.09,554.31 402.34,732.81 1053.43,178.5 2581.25,139.82 3412.48,-86.4 831.22,-226.22 651.09,-554.31 -402.35,-732.81z"/>
     <path id="_99" class="fil59" d="M1715.6 1340.1c1050.14,177.95 1229.71,505.01 401.09,730.52 -828.62,225.51 -2351.65,264.07 -3401.78,86.13 -1050.13,-177.94 -1229.7,-505 -401.08,-730.51 828.61,-225.51 2351.64,-264.08 3401.77,-86.14zm14.16 -3.85c-1060.04,-179.62 -2597.44,-140.69 -3433.87,86.95 -836.44,227.63 -655.17,557.78 404.86,737.4 1060.04,179.62 2597.44,140.69 3433.88,-86.94 836.43,-227.64 655.17,-557.79 -404.87,-737.41z"/>
     <path id="_100" class="fil60" d="M1725.04 1337.54c1056.74,179.06 1237.44,508.18 403.61,735.1 -833.83,226.93 -2366.44,265.74 -3423.18,86.68 -1056.73,-179.06 -1237.43,-508.18 -403.6,-735.11 833.83,-226.93 2366.43,-265.73 3423.17,-86.67zm14.15 -3.85c-1066.64,-180.74 -2613.61,-141.58 -3455.26,87.48 -841.65,229.05 -659.25,561.26 407.39,742 1066.64,180.74 2613.62,141.57 3455.26,-87.49 841.65,-229.05 659.26,-561.26 -407.39,-741.99z"/>
     <path id="_101" class="fil61" d="M1734.48 1334.97c1063.34,180.18 1245.17,511.35 406.12,739.7 -839.04,228.35 -2381.22,267.39 -3444.56,87.21 -1063.34,-180.18 -1245.17,-511.35 -406.13,-739.7 839.04,-228.34 2381.23,-267.39 3444.57,-87.21zm14.15 -3.85c-1073.25,-181.86 -2629.8,-142.45 -3476.66,88.02 -846.86,230.48 -663.34,564.74 409.91,746.6 1073.25,181.85 2629.8,142.44 3476.66,-88.03 846.86,-230.47 663.34,-564.74 -409.91,-746.59z"/>
     <path id="_102" class="fil62" d="M1743.91 1332.4c1069.95,181.3 1252.91,514.53 408.65,744.3 -844.25,229.76 -2396.01,269.05 -3465.96,87.75 -1069.95,-181.3 -1252.9,-514.53 -408.65,-744.29 844.25,-229.77 2396.02,-269.06 3465.96,-87.76zm14.16 -3.85c-1079.86,-182.98 -2645.99,-143.32 -3498.06,88.57 -852.07,231.89 -667.42,568.21 412.44,751.18 1079.85,182.98 2645.98,143.33 3498.05,-88.56 852.07,-231.9 667.42,-568.21 -412.43,-751.19z"/>
     <path id="_103" class="fil63" d="M1753.35 1329.83c1076.55,182.42 1260.64,517.71 411.17,748.89 -849.46,231.19 -2410.81,270.72 -3487.36,88.3 -1076.55,-182.42 -1260.63,-517.71 -411.17,-748.89 849.47,-231.18 2410.81,-270.71 3487.36,-88.3zm14.15 -3.85c-1086.45,-184.09 -2662.16,-144.2 -3519.45,89.11 -857.28,233.31 -671.5,571.69 414.96,755.78 1086.46,184.1 2662.17,144.2 3519.45,-89.11 857.28,-233.31 671.5,-571.68 -414.96,-755.78z"/>
     <path id="_104" class="fil64" d="M1762.78 1327.27c1083.16,183.53 1268.38,520.88 413.7,753.48 -854.68,232.6 -2425.6,272.38 -3508.75,88.84 -1083.16,-183.54 -1268.37,-520.89 -413.7,-753.49 854.68,-232.6 2425.6,-272.37 3508.75,-88.83zm14.16 -3.86c-1093.06,-185.21 -2678.35,-145.07 -3540.85,89.65 -862.49,234.73 -675.58,575.16 417.48,760.38 1093.06,185.22 2678.36,145.08 3540.85,-89.65 862.49,-234.73 675.58,-575.16 -417.48,-760.38z"/>
     <path id="_105" class="fil65" d="M1772.22 1324.7c1089.76,184.65 1276.11,524.06 416.22,758.08 -859.89,234.01 -2440.39,274.03 -3530.15,89.38 -1089.76,-184.66 -1276.1,-524.06 -416.22,-758.08 859.89,-234.02 2440.39,-274.04 3530.15,-89.38zm14.16 -3.85c-1099.67,-186.34 -2694.54,-145.96 -3562.24,90.19 -867.71,236.15 -679.67,578.63 420,764.97 1099.66,186.33 2694.53,145.95 3562.24,-90.2 867.7,-236.14 679.66,-578.63 -420,-764.96z"/>
     <path id="_106" class="fil66" d="M1781.66 1322.13c1096.36,185.77 1283.84,527.23 418.74,762.67 -865.1,235.44 -2455.18,275.7 -3551.54,89.92 -1096.37,-185.77 -1283.84,-527.23 -418.75,-762.67 865.1,-235.44 2455.18,-275.7 3551.55,-89.92zm14.15 -3.85c-1106.27,-187.46 -2710.72,-146.83 -3583.63,90.73 -872.92,237.57 -683.75,582.11 422.52,769.57 1106.27,187.45 2710.72,146.83 3583.64,-90.74 872.91,-237.56 683.74,-582.11 -422.53,-769.56z"/>
     <path id="_107" class="fil67" d="M1791.09 1319.56c1102.97,186.89 1291.58,530.41 421.27,767.27 -870.31,236.85 -2469.97,277.36 -3572.94,90.46 -1102.97,-186.89 -1291.57,-530.41 -421.26,-767.27 870.31,-236.85 2469.96,-277.35 3572.93,-90.46zm14.16 -3.85c-1112.88,-188.57 -2726.9,-147.71 -3605.03,91.28 -878.13,238.98 -687.83,585.58 425.05,774.15 1112.87,188.58 2726.9,147.71 3605.02,-91.27 878.13,-238.99 687.83,-585.59 -425.04,-774.16z"/>
     <path id="_108" class="fil68" d="M1800.53 1316.99c1109.57,188.02 1299.31,533.59 423.79,771.86 -875.53,238.28 -2484.76,279.02 -3594.34,91.01 -1109.57,-188.01 -1299.3,-533.59 -423.78,-771.86 875.52,-238.28 2484.76,-279.02 3594.33,-91.01zm14.15 -3.85c-1119.48,-189.69 -2743.08,-148.58 -3626.42,91.82 -883.34,240.4 -691.91,589.06 427.57,778.75 1119.48,189.69 2743.08,148.59 3626.42,-91.82 883.34,-240.4 691.91,-589.06 -427.57,-778.75z"/>
     <path id="_109" class="fil69" d="M1809.97 1314.43c1116.17,189.13 1307.04,536.76 426.3,776.45 -880.73,239.69 -2499.55,280.68 -3615.72,91.55 -1116.18,-189.13 -1307.04,-536.77 -426.31,-776.46 880.73,-239.69 2499.55,-280.68 3615.73,-91.54zm14.15 -3.86c-1126.08,-190.81 -2759.27,-149.46 -3647.82,92.36 -888.55,241.82 -695.99,592.54 430.09,783.35 1126.09,190.81 2759.27,149.46 3647.82,-92.36 888.55,-241.82 695.99,-592.54 -430.09,-783.35z"/>
     <path id="_110" class="fil70" d="M1819.4 1311.86c1122.78,190.25 1314.78,539.94 428.83,781.05 -885.94,241.11 -2514.34,282.34 -3637.12,92.09 -1122.78,-190.26 -1314.77,-539.94 -428.83,-781.05 885.95,-241.12 2514.34,-282.34 3637.12,-92.09zm14.16 -3.86c-1132.69,-191.92 -2775.46,-150.33 -3669.22,92.91 -893.76,243.23 -700.07,596.01 432.62,787.94 1132.69,191.93 2775.45,150.34 3669.21,-92.9 893.76,-243.24 700.07,-596.02 -432.61,-787.95z"/>
     <path id="_111" class="fil71" d="M1828.84 1309.29c1129.38,191.37 1322.51,543.11 431.35,785.64 -891.15,242.53 -2529.13,284.01 -3658.52,92.63 -1129.38,-191.37 -1322.51,-543.11 -431.35,-785.64 891.16,-242.53 2529.13,-284 3658.52,-92.63zm14.15 -3.85c-1139.29,-193.05 -2791.63,-151.22 -3690.61,93.44 -898.97,244.66 -704.15,599.49 435.14,792.54 1139.29,193.05 2791.64,151.21 3690.61,-93.45 898.97,-244.65 704.16,-599.48 -435.14,-792.53z"/>
     <path id="_112" class="fil72" d="M1838.27 1306.72c1136,192.49 1330.25,546.29 433.88,790.24 -896.37,243.95 -2543.92,285.66 -3679.91,93.17 -1135.99,-192.49 -1330.25,-546.29 -433.88,-790.24 896.37,-243.94 2543.92,-285.66 3679.91,-93.17zm14.16 -3.85c-1145.9,-194.17 -2807.82,-152.09 -3712.01,93.98 -904.18,246.08 -708.23,602.97 437.66,797.13 1145.9,194.17 2807.82,152.09 3712.01,-93.98 904.18,-246.07 708.24,-602.96 -437.66,-797.13z"/>
     <path id="_113" class="fil73" d="M1847.71 1304.15c1142.6,193.61 1337.98,549.47 436.4,794.84 -901.58,245.36 -2558.71,287.32 -3701.31,93.71 -1142.59,-193.61 -1337.98,-549.47 -436.4,-794.83 901.58,-245.37 2558.71,-287.33 3701.31,-93.72zm14.15 -3.85c-1152.5,-195.29 -2824,-152.97 -3733.39,94.53 -909.4,247.49 -712.32,606.43 440.18,801.72 1152.5,195.29 2824,152.97 3733.4,-94.52 909.39,-247.5 712.32,-606.44 -440.19,-801.73z"/>
     <path id="_114" class="fil74" d="M1857.15 1301.58c1149.2,194.73 1345.71,552.65 438.92,799.43 -906.79,246.79 -2573.5,288.99 -3722.7,94.26 -1149.2,-194.73 -1345.72,-552.65 -438.92,-799.43 906.79,-246.78 2573.5,-288.98 3722.7,-94.26zm14.15 -3.85c-1159.11,-196.4 -2840.18,-153.84 -3754.79,95.07 -914.61,248.91 -716.41,609.91 442.7,806.32 1159.11,196.41 2840.19,153.84 3754.8,-95.07 914.6,-248.91 716.4,-609.91 -442.71,-806.32z"/>
     <path id="_115" class="fil75" d="M1866.58 1299.02c1155.81,195.84 1353.45,555.82 441.45,804.02 -912.01,248.2 -2588.3,290.64 -3744.1,94.8 -1155.8,-195.85 -1353.45,-555.82 -441.44,-804.03 912,-248.2 2588.29,-290.64 3744.09,-94.79zm14.16 -3.86c-1165.71,-197.52 -2856.37,-154.72 -3776.19,95.61 -919.82,250.33 -720.49,613.39 445.23,810.92 1165.71,197.53 2856.36,154.72 3776.18,-95.61 919.82,-250.33 720.49,-613.39 -445.22,-810.92z"/>
     <path id="_116" class="fil76" d="M1876.02 1296.45c1162.41,196.96 1361.18,558.99 443.96,808.62 -917.21,249.62 -2603.08,292.3 -3765.49,95.34 -1162.41,-196.97 -1361.18,-559 -443.96,-808.62 917.21,-249.62 2603.08,-292.31 3765.49,-95.34zm14.15 -3.85c-1172.31,-198.65 -2872.55,-155.6 -3797.58,96.15 -925.03,251.75 -724.57,616.86 447.75,815.51 1172.32,198.64 2872.55,155.59 3797.58,-96.15 925.03,-251.75 724.57,-616.87 -447.75,-815.51z"/>
     <path id="_117" class="fil77" d="M1885.45 1293.88c1169.02,198.09 1368.92,562.17 446.49,813.21 -922.42,251.04 -2617.87,293.97 -3786.88,95.88 -1169.02,-198.08 -1368.92,-562.17 -446.49,-813.21 922.42,-251.04 2617.87,-293.97 3786.88,-95.88zm14.16 -3.85c-1178.92,-199.77 -2888.74,-156.47 -3818.98,96.69 -930.24,253.17 -728.65,620.34 450.27,820.11 1178.92,199.76 2888.74,156.47 3818.98,-96.7 930.24,-253.17 728.65,-620.34 -450.27,-820.1z"/>
     <path id="_118" class="fil78" d="M1894.89 1291.31c1175.62,199.21 1376.65,565.35 449.01,817.81 -927.63,252.46 -2632.66,295.63 -3808.28,96.42 -1175.62,-199.2 -1376.65,-565.35 -449.01,-817.81 927.64,-252.45 2632.66,-295.62 3808.28,-96.42zm14.16 -3.85c-1185.53,-200.88 -2904.92,-157.35 -3840.38,97.24 -935.45,254.58 -732.73,623.81 452.8,824.69 1185.52,200.89 2904.92,157.35 3840.37,-97.23 935.45,-254.59 732.73,-623.82 -452.79,-824.7z"/>
     <path id="_119" class="fil79" d="M1904.33 1288.74c1182.22,200.33 1384.38,568.53 451.53,822.41 -932.85,253.87 -2647.45,297.28 -3829.67,96.96 -1182.23,-200.33 -1384.39,-568.53 -451.54,-822.4 932.85,-253.88 2647.45,-297.29 3829.68,-96.97zm14.15 -3.85c-1192.13,-202 -2921.1,-158.22 -3861.77,97.78 -940.66,256 -736.81,627.29 455.32,829.29 1192.13,202 2921.1,158.23 3861.77,-97.78 940.66,-256 736.81,-627.29 -455.32,-829.29z"/>
     <path id="_120" class="fil80" d="M1913.76 1286.18c1188.83,201.44 1392.12,571.7 454.06,826.99 -938.06,255.3 -2662.24,298.95 -3851.07,97.51 -1188.83,-201.45 -1392.12,-571.7 -454.06,-827 938.06,-255.29 2662.25,-298.95 3851.07,-97.5zm14.16 -3.86c-1198.74,-203.12 -2937.29,-159.1 -3883.17,98.32 -945.87,257.42 -740.89,630.77 457.85,833.89 1198.73,203.12 2937.28,159.1 3883.16,-98.32 945.87,-257.42 740.89,-630.76 -457.84,-833.89z"/>
     <path id="_121" class="fil81" d="M1923.2 1283.61c1195.43,202.56 1399.85,574.88 456.58,831.59 -943.27,256.71 -2677.03,300.61 -3872.47,98.05 -1195.43,-202.57 -1399.85,-574.88 -456.58,-831.59 943.28,-256.72 2677.04,-300.61 3872.47,-98.05zm14.15 -3.85c-1205.34,-204.24 -2953.47,-159.98 -3904.55,98.86 -951.09,258.84 -744.98,634.24 460.36,838.48 1205.34,204.24 2953.47,159.98 3904.56,-98.86 951.08,-258.84 744.97,-634.24 -460.37,-838.48z"/>
     <path id="_122" class="fil82" d="M1932.64 1281.04c1202.03,203.68 1407.58,578.05 459.1,836.18 -948.49,258.13 -2691.83,302.27 -3893.86,98.59 -1202.04,-203.68 -1407.59,-578.05 -459.1,-836.18 948.48,-258.13 2691.82,-302.27 3893.86,-98.59zm14.15 -3.85c-1211.94,-205.36 -2969.65,-160.86 -3925.95,99.4 -956.3,260.26 -749.06,637.72 462.88,843.08 1211.95,205.36 2969.66,160.85 3925.95,-99.41 956.3,-260.25 749.06,-637.71 -462.88,-843.07z"/>
     <path id="_123" class="fil83" d="M1942.07 1278.47c1208.64,204.8 1415.32,581.23 461.63,840.78 -953.7,259.55 -2706.62,303.93 -3915.26,99.13 -1208.64,-204.8 -1415.32,-581.23 -461.62,-840.78 953.69,-259.55 2706.61,-303.93 3915.25,-99.13zm14.16 -3.85c-1218.55,-206.48 -2985.84,-161.73 -3947.35,99.94 -961.51,261.68 -753.14,641.19 465.41,847.67 1218.54,206.48 2985.83,161.74 3947.34,-99.94 961.51,-261.68 753.14,-641.19 -465.4,-847.67z"/>
     <path id="_124" class="fil84" d="M1951.51 1275.9c1215.24,205.92 1423.05,584.41 464.14,845.38 -958.9,260.96 -2721.4,305.59 -3936.65,99.67 -1215.24,-205.92 -1423.05,-584.41 -464.14,-845.37 958.9,-260.97 2721.4,-305.6 3936.65,-99.68zm14.15 -3.85c-1225.15,-207.6 -3002.02,-162.61 -3968.74,100.49 -966.72,263.09 -757.22,644.66 467.93,852.26 1225.15,207.6 3002.02,162.61 3968.74,-100.48 966.72,-263.1 757.23,-644.67 -467.93,-852.27z"/>
     <path id="_125" class="fil85" d="M1960.94 1273.34c1221.85,207.03 1430.79,587.58 466.67,849.96 -964.11,262.39 -2736.19,307.26 -3958.04,100.22 -1221.85,-207.04 -1430.79,-587.58 -466.67,-849.97 964.12,-262.39 2736.19,-307.25 3958.04,-100.21zm14.16 -3.86c-1231.76,-208.71 -3018.2,-163.48 -3990.14,101.03 -971.93,264.51 -761.3,648.14 470.45,856.86 1231.76,208.72 3018.21,163.49 3990.14,-101.03 971.93,-264.51 761.31,-648.14 -470.45,-856.86z"/>
     <path id="_126" class="fil86" d="M1970.38 1270.77c1228.46,208.16 1438.52,590.76 469.19,854.56 -969.33,263.8 -2750.98,308.91 -3979.44,100.75 -1228.45,-208.15 -1438.52,-590.75 -469.19,-854.56 969.33,-263.8 2750.98,-308.91 3979.44,-100.75zm14.15 -3.85c-1238.36,-209.84 -3034.38,-164.37 -4011.53,101.56 -977.14,265.94 -765.38,651.62 472.98,861.46 1238.36,209.83 3034.38,164.36 4011.53,-101.57 977.14,-265.93 765.39,-651.62 -472.98,-861.45z"/>
     <path id="_127" class="fil87" d="M1979.82 1268.2c1235.06,209.28 1446.25,593.93 471.71,859.16 -974.54,265.22 -2765.77,310.57 -4000.83,101.29 -1235.06,-209.27 -1446.26,-593.93 -471.72,-859.15 974.54,-265.22 2765.78,-310.58 4000.84,-101.3zm14.15 -3.85c-1244.97,-210.96 -3050.57,-165.24 -4032.93,102.11 -982.35,267.35 -769.46,655.09 475.5,866.05 1244.97,210.95 3050.57,165.23 4032.93,-102.11 982.35,-267.35 769.47,-655.1 -475.5,-866.05z"/>
     <path id="_128" class="fil88" d="M1989.25 1265.63c1241.67,210.4 1453.99,597.11 474.24,863.75 -979.75,266.64 -2780.57,312.24 -4022.23,101.84 -1241.66,-210.39 -1453.99,-597.11 -474.24,-863.75 979.75,-266.64 2780.57,-312.23 4022.23,-101.84zm14.16 -3.85c-1251.58,-212.07 -3066.76,-166.12 -4054.32,102.65 -987.57,268.77 -773.56,658.57 478.02,870.64 1251.57,212.08 3066.75,166.12 4054.32,-102.65 987.56,-268.77 773.55,-658.57 -478.02,-870.64z"/>
     <path id="_129" class="fil89" d="M1998.69 1263.06c1248.27,211.52 1461.72,600.29 476.76,868.35 -984.96,268.06 -2795.36,313.89 -4043.63,102.38 -1248.27,-211.52 -1461.72,-600.29 -476.76,-868.35 984.97,-268.05 2795.36,-313.89 4043.63,-102.38zm14.15 -3.85c-1258.17,-213.19 -3082.93,-166.99 -4075.71,103.2 -992.78,270.18 -777.64,662.04 480.54,875.23 1258.18,213.2 3082.94,166.99 4075.72,-103.19 992.77,-270.19 777.63,-662.04 -480.55,-875.24z"/>
     <path id="_130" class="fil90" d="M2008.12 1260.5c1254.88,212.63 1469.46,603.46 479.29,872.93 -990.18,269.48 -2810.15,315.56 -4065.02,102.93 -1254.88,-212.64 -1469.46,-603.46 -479.28,-872.94 990.17,-269.48 2810.14,-315.56 4065.01,-102.92zm14.16 -3.86c-1264.78,-214.31 -3099.12,-167.87 -4097.11,103.74 -997.99,271.6 -781.72,665.52 483.06,879.83 1264.78,214.31 3099.12,167.87 4097.11,-103.74 998,-271.6 781.72,-665.51 -483.06,-879.83z"/>
     <path id="_131" class="fil91" d="M2017.56 1257.93c1261.48,213.75 1477.19,606.64 481.8,877.53 -995.38,270.9 -2824.93,317.22 -4086.41,103.47 -1261.48,-213.76 -1477.19,-606.64 -481.8,-877.54 995.38,-270.89 2824.93,-317.22 4086.41,-103.46zm14.16 -3.85c-1271.39,-215.44 -3115.31,-168.75 -4118.51,104.27 -1003.2,273.03 -785.8,669 485.59,884.43 1271.38,215.43 3115.3,168.74 4118.5,-104.28 1003.21,-273.02 785.8,-668.99 -485.58,-884.42z"/>
     <path id="_132" class="fil92" d="M2027 1255.36c1268.08,214.87 1484.92,609.81 484.32,882.13 -1000.59,272.31 -2839.72,318.88 -4107.8,104 -1268.09,-214.87 -1484.93,-609.81 -484.33,-882.12 1000.6,-272.32 2839.72,-318.88 4107.81,-104.01zm14.15 -3.85c-1277.99,-216.55 -3131.49,-169.63 -4139.9,104.82 -1008.41,274.44 -789.88,672.46 488.11,889.02 1277.99,216.55 3131.49,169.62 4139.9,-104.82 1008.42,-274.44 789.88,-672.47 -488.11,-889.02z"/>
     <path id="_133" class="fil93" d="M2036.43 1252.79c1274.69,215.99 1492.66,612.99 486.85,886.72 -1005.81,273.74 -2854.51,320.54 -4129.2,104.55 -1274.69,-215.99 -1492.66,-612.99 -486.85,-886.72 1005.81,-273.73 2854.52,-320.54 4129.2,-104.55zm14.16 -3.85c-1284.6,-217.67 -3147.67,-170.5 -4161.3,105.36 -1013.62,275.86 -793.96,675.94 490.64,893.61 1284.59,217.67 3147.67,170.5 4161.29,-105.36 1013.63,-275.86 793.96,-675.94 -490.63,-893.61z"/>
     <path id="_134" class="fil94" d="M2045.87 1250.22c1281.29,217.11 1500.39,616.17 489.37,891.32 -1011.02,275.15 -2869.3,322.2 -4150.6,105.09 -1281.29,-217.11 -1500.39,-616.17 -489.37,-891.32 1011.02,-275.15 2869.31,-322.2 4150.6,-105.09zm14.15 -3.85c-1291.2,-218.79 -3163.85,-171.37 -4182.69,105.9 -1018.83,277.28 -798.04,679.42 493.16,898.21 1291.2,218.79 3163.85,171.38 4182.69,-105.9 1018.84,-277.28 798.04,-679.42 -493.16,-898.21z"/>
     <path id="_135" class="fil95" d="M2055.31 1247.65c1287.89,218.24 1508.12,619.35 491.89,895.92 -1016.23,276.57 -2884.1,323.86 -4171.99,105.63 -1287.9,-218.23 -1508.13,-619.34 -491.9,-895.91 1016.23,-276.57 2884.1,-323.86 4172,-105.64zm14.15 -3.85c-1297.8,-219.91 -3180.04,-172.25 -4204.09,106.45 -1024.04,278.69 -802.12,682.89 495.68,902.8 1297.81,219.91 3180.04,172.25 4204.09,-106.44 1024.05,-278.7 802.12,-682.9 -495.68,-902.81z"/>
     <path id="_136" class="fil96" d="M2064.74 1245.09c1294.5,219.35 1515.86,622.52 494.42,900.5 -1021.44,277.99 -2898.89,325.52 -4193.39,106.18 -1294.5,-219.35 -1515.86,-622.52 -494.42,-900.51 1021.45,-277.99 2898.89,-325.52 4193.39,-106.17zm14.16 -3.85c-1304.41,-221.03 -3196.22,-173.13 -4225.48,106.98 -1029.26,280.11 -806.21,686.37 498.2,907.4 1304.41,221.03 3196.22,173.13 4225.48,-106.99 1029.26,-280.11 806.2,-686.37 -498.2,-907.39z"/>
     <path id="_137" class="fil97" d="M2074.18 1242.52c1301.1,220.47 1523.59,625.69 496.94,905.1 -1026.66,279.4 -2913.68,327.18 -4214.79,106.71 -1301.1,-220.46 -1523.59,-625.69 -496.93,-905.1 1026.65,-279.4 2913.67,-327.18 4214.78,-106.71zm14.15 -3.85c-1311.01,-222.15 -3212.4,-174.01 -4246.87,107.53 -1034.47,281.53 -810.29,689.84 500.72,911.99 1311.01,222.14 3212.4,174 4246.87,-107.53 1034.48,-281.53 810.29,-689.85 -500.72,-911.99z"/>
     <path id="_138" class="fil98" d="M2083.61 1239.95c1307.71,221.59 1531.33,628.87 499.47,909.7 -1031.87,280.82 -2928.47,328.84 -4236.18,107.25 -1307.71,-221.59 -1531.33,-628.87 -499.46,-909.69 1031.86,-280.83 2928.46,-328.85 4236.17,-107.26zm14.16 -3.85c-1317.62,-223.27 -3228.59,-174.88 -4268.27,108.07 -1039.68,282.95 -814.37,693.32 503.24,916.58 1317.62,223.27 3228.59,174.89 4268.27,-108.06 1039.69,-282.96 814.38,-693.32 -503.24,-916.59z"/>
     <path id="_139" class="fil99" d="M2093.05 1237.38c1314.32,222.71 1539.06,632.05 501.98,914.29 -1037.07,282.24 -2943.25,330.51 -4257.57,107.8 -1314.31,-222.71 -1539.06,-632.05 -501.98,-914.29 1037.08,-282.24 2943.25,-330.5 4257.57,-107.8zm14.15 -3.85c-1324.22,-224.38 -3244.77,-175.76 -4289.66,108.61 -1044.89,284.37 -818.45,696.8 505.77,921.18 1324.22,224.39 3244.77,175.76 4289.66,-108.61 1044.9,-284.37 818.46,-696.79 -505.77,-921.18z"/>
     <path id="_140" class="fil100" d="M2102.49 1234.82c1320.92,223.82 1546.79,635.22 504.5,918.88 -1042.28,283.66 -2958.04,332.16 -4278.96,108.34 -1320.92,-223.83 -1546.8,-635.23 -504.51,-918.88 1042.29,-283.66 2958.05,-332.17 4278.97,-108.34zm14.15 -3.86c-1330.83,-225.5 -3260.95,-176.63 -4311.06,109.16 -1050.1,285.78 -822.54,700.27 508.29,925.77 1330.83,225.5 3260.96,176.64 4311.06,-109.15 1050.11,-285.79 822.54,-700.27 -508.29,-925.78z"/>
     <path id="_141" class="fil101" d="M2111.92 1232.25c1327.53,224.94 1554.53,638.4 507.03,923.48 -1047.5,285.07 -2972.84,333.82 -4300.36,108.88 -1327.52,-224.95 -1554.53,-638.4 -507.03,-923.48 1047.5,-285.08 2972.84,-333.83 4300.36,-108.88zm14.16 -3.85c-1337.43,-226.63 -3277.14,-177.52 -4332.46,109.69 -1055.31,287.21 -826.62,703.75 510.82,930.37 1337.43,226.62 3277.13,177.51 4332.45,-109.7 1055.32,-287.2 826.62,-703.74 -510.81,-930.36z"/>
     <path id="_142" class="fil102" d="M2121.36 1229.68c1334.13,226.06 1562.26,641.57 509.55,928.07 -1052.71,286.5 -2987.63,335.49 -4321.76,109.42 -1334.12,-226.06 -1562.26,-641.57 -509.55,-928.07 1052.71,-286.49 2987.63,-335.48 4321.76,-109.42zm14.15 -3.85c-1344.03,-227.75 -3293.32,-178.39 -4353.85,110.23 -1060.52,288.63 -830.7,707.22 513.34,934.97 1344.04,227.74 3293.32,178.38 4353.85,-110.24 1060.53,-288.62 830.7,-707.22 -513.34,-934.96z"/>
     <path id="_143" class="fil103" d="M2130.79 1227.11c1340.74,227.18 1570,644.75 512.08,932.67 -1057.92,287.91 -3002.42,337.14 -4343.15,109.96 -1340.74,-227.18 -1570,-644.75 -512.08,-932.66 1057.93,-287.92 3002.42,-337.15 4343.15,-109.97zm14.16 -3.85c-1350.64,-228.86 -3309.5,-179.27 -4375.24,110.78 -1065.74,290.04 -834.79,710.69 515.85,939.55 1350.64,228.87 3309.51,179.27 4375.25,-110.77 1065.74,-290.05 834.78,-710.7 -515.86,-939.56z"/>
     <path id="_144" class="fil104" d="M2140.23 1224.54c1347.34,228.31 1577.73,647.93 514.6,937.26 -1063.14,289.34 -3017.21,338.81 -4364.55,110.51 -1347.34,-228.3 -1577.73,-647.93 -514.6,-937.26 1063.14,-289.33 3017.21,-338.81 4364.55,-110.51zm14.16 -3.85c-1357.25,-229.98 -3325.69,-180.14 -4396.64,111.32 -1070.95,291.46 -838.87,714.17 518.38,944.15 1357.24,229.98 3325.69,180.14 4396.64,-111.32 1070.95,-291.46 838.86,-714.17 -518.38,-944.15z"/>
     <path id="_145" class="fil105" d="M2149.67 1221.97c1353.94,229.43 1585.46,651.11 517.12,941.86 -1068.35,290.75 -3032,340.47 -4385.94,111.05 -1353.95,-229.42 -1585.47,-651.11 -517.12,-941.86 1068.34,-290.75 3031.99,-340.47 4385.94,-111.05zm14.15 -3.85c-1363.85,-231.1 -3341.87,-181.02 -4418.03,111.86 -1076.16,292.88 -842.95,717.65 520.9,948.75 1363.85,231.1 3341.87,181.02 4418.03,-111.86 1076.17,-292.88 842.95,-717.65 -520.9,-948.75z"/>
     <path id="_146" class="fil106" d="M2159.1 1219.41c1360.55,230.54 1593.2,654.28 519.65,946.45 -1073.56,292.17 -3046.79,342.13 -4407.34,111.59 -1360.55,-230.54 -1593.2,-654.28 -519.64,-946.45 1073.55,-292.17 3046.79,-342.13 4407.33,-111.59zm14.16 -3.86c-1370.46,-232.21 -3358.06,-181.89 -4439.43,112.41 -1081.37,294.29 -847.03,721.12 523.43,953.34 1370.45,232.22 3358.05,181.89 4439.42,-112.4 1081.38,-294.3 847.03,-721.13 -523.42,-953.35z"/>
     <path id="_147" class="fil107" d="M2168.54 1216.84c1367.15,231.66 1600.93,657.46 522.16,951.04 -1078.76,293.59 -3061.57,343.79 -4428.73,112.13 -1367.15,-231.65 -1600.93,-657.45 -522.16,-951.04 1078.77,-293.59 3061.58,-343.79 4428.73,-112.13zm14.15 -3.85c-1377.05,-233.34 -3374.23,-182.77 -4460.82,112.94 -1086.58,295.72 -851.11,724.6 525.95,957.94 1377.06,233.33 3374.24,182.77 4460.82,-112.95 1086.59,-295.71 851.11,-724.6 -525.95,-957.93z"/>
     <path id="_148" class="fil108" d="M2177.98 1214.27c1373.75,232.78 1608.66,660.63 524.68,955.64 -1083.98,295.01 -3076.37,345.45 -4450.12,112.67 -1373.76,-232.78 -1608.67,-660.63 -524.69,-955.64 1083.98,-295 3076.37,-345.45 4450.13,-112.67zm14.15 -3.85c-1383.66,-234.46 -3390.42,-183.65 -4482.22,113.48 -1091.8,297.14 -855.19,728.08 528.47,962.53 1383.67,234.46 3390.42,183.65 4482.22,-113.48 1091.8,-297.13 855.19,-728.07 -528.47,-962.53z"/>
     <path id="_149" class="fil109" d="M2187.41 1211.7c1380.36,233.9 1616.4,663.81 527.21,960.24 -1089.19,296.42 -3091.16,347.11 -4471.52,113.21 -1380.36,-233.9 -1616.4,-663.81 -527.21,-960.23 1089.19,-296.43 3091.16,-347.11 4471.52,-113.22zm14.16 -3.85c-1390.27,-235.58 -3406.61,-184.52 -4503.62,114.03 -1097.01,298.55 -859.27,731.55 531,967.12 1390.26,235.58 3406.6,184.53 4503.61,-114.02 1097.01,-298.56 859.27,-731.55 -530.99,-967.13z"/>
     <path id="_150" class="fil110" d="M2196.85 1209.13c1386.96,235.02 1624.13,666.99 529.73,964.83 -1094.4,297.84 -3105.95,348.77 -4492.92,113.76 -1386.96,-235.02 -1624.13,-666.99 -529.73,-964.83 1094.41,-297.84 3105.95,-348.77 4492.92,-113.76zm14.15 -3.85c-1396.87,-236.69 -3422.79,-185.4 -4525.01,114.57 -1102.22,299.97 -863.35,735.03 533.52,971.72 1396.87,236.7 3422.79,185.4 4525.01,-114.57 1102.22,-299.97 863.36,-735.02 -533.52,-971.72z"/>
     <path id="_151" class="fil111" d="M2206.28 1206.57c1393.57,236.13 1631.87,670.16 532.26,969.42 -1099.62,299.26 -3120.74,350.43 -4514.31,114.3 -1393.57,-236.14 -1631.87,-670.16 -532.26,-969.43 1099.62,-299.26 3120.74,-350.43 4514.31,-114.29zm14.16 -3.86c-1403.48,-237.81 -3438.97,-186.27 -4546.4,115.12 -1107.44,301.38 -867.44,738.49 536.03,976.31 1403.48,237.81 3438.98,186.28 4546.41,-115.11 1107.43,-301.39 867.44,-738.5 -536.04,-976.32z"/>
     <path id="_152" class="fil112" d="M2215.72 1204c1400.17,237.25 1639.6,673.33 534.78,974.01 -1104.83,300.68 -3135.53,352.1 -4535.71,114.85 -1400.17,-237.26 -1639.6,-673.34 -534.77,-974.02 1104.82,-300.68 3135.53,-352.1 4535.7,-114.84zm14.15 -3.85c-1410.08,-238.94 -3455.15,-187.16 -4567.79,115.65 -1112.65,302.81 -871.52,741.97 538.56,980.91 1410.08,238.93 3455.15,187.15 4567.8,-115.66 1112.64,-302.8 871.52,-741.97 -538.57,-980.9z"/>
     <path id="_153" class="fil113" d="M2225.16 1201.43c1406.78,238.37 1647.33,676.51 537.3,978.61 -1110.04,302.1 -3150.32,353.76 -4557.1,115.38 -1406.78,-238.37 -1647.34,-676.51 -537.3,-978.61 1110.03,-302.09 3150.32,-353.75 4557.1,-115.38zm14.15 -3.85c-1416.69,-240.05 -3471.34,-188.03 -4589.19,116.19 -1117.86,304.23 -875.6,745.45 541.08,985.51 1416.69,240.05 3471.34,188.03 4589.19,-116.2 1117.86,-304.22 875.61,-745.45 -541.08,-985.5z"/>
     <path id="_154" class="fil114" d="M2234.59 1198.86c1413.39,239.5 1655.07,679.69 539.82,983.21 -1115.24,303.51 -3165.11,355.41 -4578.49,115.92 -1413.38,-239.49 -1655.07,-679.69 -539.82,-983.2 1115.25,-303.52 3165.11,-355.42 4578.49,-115.93zm14.16 -3.85c-1423.29,-241.17 -3487.52,-188.91 -4610.59,116.74 -1123.07,305.64 -879.68,748.92 543.61,990.09 1423.29,241.18 3487.52,188.91 4610.58,-116.73 1123.07,-305.65 879.69,-748.93 -543.6,-990.1z"/>
     <path id="_155" class="fil115" d="M2244.03 1196.29c1419.99,240.62 1662.8,682.87 542.34,987.8 -1120.46,304.94 -3179.9,357.08 -4599.89,116.47 -1419.99,-240.61 -1662.8,-682.87 -542.34,-987.8 1120.46,-304.93 3179.9,-357.08 4599.89,-116.47zm14.15 -3.85c-1429.89,-242.29 -3503.7,-189.78 -4631.98,117.28 -1128.28,307.06 -883.77,752.4 546.13,994.69 1429.9,242.29 3503.7,189.79 4631.98,-117.28 1128.28,-307.06 883.77,-752.4 -546.13,-994.69z"/>
     <path id="_156" class="fil116" d="M2253.46 1193.73c1426.6,241.73 1670.54,686.04 544.87,992.39 -1125.67,306.35 -3194.69,358.74 -4621.28,117.01 -1426.6,-241.73 -1670.54,-686.04 -544.87,-992.4 1125.67,-306.35 3194.69,-358.73 4621.28,-117zm14.16 -3.86c-1436.5,-243.41 -3519.89,-190.66 -4653.38,117.82 -1133.49,308.48 -887.85,755.88 548.65,999.29 1436.5,243.41 3519.89,190.66 4653.38,-117.82 1133.49,-308.48 887.85,-755.88 -548.65,-999.29z"/>
     <path id="_157" class="fil117" d="M2262.9 1191.16c1433.2,242.85 1678.27,689.22 547.39,996.99 -1130.88,307.77 -3209.48,360.4 -4642.68,117.55 -1433.2,-242.86 -1678.27,-689.22 -547.39,-996.99 1130.88,-307.77 3209.48,-360.4 4642.68,-117.55zm14.16 -3.85c-1443.11,-244.53 -3536.08,-191.54 -4674.78,118.36 -1138.7,309.9 -891.93,759.35 551.18,1003.88 1443.1,244.53 3536.07,191.53 4674.77,-118.36 1138.7,-309.9 891.93,-759.35 -551.17,-1003.88z"/>
     <path id="_158" class="fil118" d="M2272.34 1188.59c1439.8,243.97 1686,692.39 549.91,1001.58 -1136.09,309.19 -3224.27,362.06 -4664.07,118.09 -1439.81,-243.97 -1686.01,-692.39 -549.92,-1001.58 1136.1,-309.19 3224.27,-362.06 4664.08,-118.09zm14.15 -3.85c-1449.71,-245.65 -3552.25,-192.42 -4696.16,118.9 -1143.92,311.32 -896.02,762.83 553.69,1008.48 1449.71,245.64 3552.26,192.41 4696.17,-118.91 1143.91,-311.31 896.01,-762.82 -553.7,-1008.47z"/>
     <path id="_159" class="fil119" d="M2281.77 1186.02c1446.41,245.09 1693.74,695.57 552.44,1006.18 -1141.31,310.61 -3239.06,363.72 -4685.47,118.63 -1446.41,-245.09 -1693.74,-695.57 -552.44,-1006.18 1141.31,-310.6 3239.07,-363.72 4685.47,-118.63zm14.16 -3.85c-1456.32,-246.77 -3568.44,-193.29 -4717.56,119.45 -1149.13,312.73 -900.1,766.3 556.22,1013.06 1456.31,246.77 3568.43,193.29 4717.56,-119.44 1149.12,-312.74 900.09,-766.3 -556.22,-1013.07z"/>
     <path id="_160" class="fil120" d="M2291.21 1183.45c1453.01,246.21 1701.47,698.75 554.96,1010.78 -1146.52,312.02 -3253.85,365.38 -4706.87,119.17 -1453.01,-246.21 -1701.47,-698.75 -554.95,-1010.77 1146.51,-312.03 3253.85,-365.38 4706.86,-119.18zm14.15 -3.85c-1462.92,-247.89 -3584.62,-194.16 -4738.95,119.99 -1154.34,314.15 -904.18,769.78 558.74,1017.66 1462.92,247.89 3584.62,194.17 4738.95,-119.99 1154.34,-314.15 904.18,-769.77 -558.74,-1017.66z"/>
     <path id="_161" class="fil121" d="M2300.65 1180.89c1459.61,247.32 1709.2,701.92 557.48,1015.36 -1151.73,313.45 -3268.65,367.04 -4728.26,119.72 -1459.62,-247.33 -1709.21,-701.92 -557.48,-1015.37 1151.73,-313.44 3268.64,-367.04 4728.26,-119.71zm14.15 -3.86c-1469.52,-249 -3600.81,-195.04 -4760.35,120.53 -1159.55,315.57 -908.26,773.25 561.26,1022.26 1469.53,249.01 3600.81,195.04 4760.35,-120.53 1159.55,-315.57 908.26,-773.25 -561.26,-1022.26z"/>
     <path id="_162" class="fil122" d="M2310.08 1178.32c1466.22,248.44 1716.94,705.1 560,1019.96 -1156.94,314.86 -3283.43,368.7 -4749.65,120.26 -1466.22,-248.45 -1716.94,-705.1 -560,-1019.96 1156.94,-314.87 3283.43,-368.71 4749.65,-120.26zm14.16 -3.85c-1476.13,-250.13 -3616.99,-195.92 -4781.75,121.07 -1164.76,316.99 -912.34,776.72 563.79,1026.85 1476.12,250.12 3616.99,195.92 4781.74,-121.07 1164.76,-316.99 912.34,-776.73 -563.78,-1026.85z"/>
     <path id="_163" class="fil123" d="M2319.52 1175.75c1472.82,249.56 1724.67,708.27 562.52,1024.55 -1162.15,316.28 -3298.22,370.37 -4771.05,120.8 -1472.82,-249.56 -1724.67,-708.27 -562.52,-1024.55 1162.15,-316.28 3298.22,-370.37 4771.05,-120.8zm14.15 -3.85c-1482.73,-251.25 -3633.17,-196.8 -4803.14,121.61 -1169.97,318.41 -916.42,780.2 566.31,1031.45 1482.73,251.24 3633.17,196.79 4803.14,-121.62 1169.97,-318.4 916.42,-780.2 -566.31,-1031.44z"/>
     <path id="_164" class="fil124" d="M2328.95 1173.18c1479.43,250.69 1732.41,711.45 565.05,1029.15 -1167.36,317.7 -3313.01,372.03 -4792.44,121.34 -1479.43,-250.68 -1732.41,-711.45 -565.05,-1029.15 1167.36,-317.7 3313.01,-372.02 4792.44,-121.34zm14.16 -3.85c-1489.34,-252.36 -3649.36,-197.67 -4824.54,122.15 -1175.18,319.83 -920.5,783.68 568.83,1036.04 1489.34,252.37 3649.36,197.68 4824.54,-122.15 1175.18,-319.83 920.5,-783.68 -568.83,-1036.04z"/>
     <path id="_165" class="fil125" d="M2338.39 1170.61c1486.04,251.81 1740.14,714.63 567.57,1033.75 -1172.57,319.11 -3327.8,373.68 -4813.84,121.88 -1486.03,-251.8 -1740.14,-714.63 -567.57,-1033.74 1172.58,-319.12 3327.8,-373.69 4813.84,-121.89zm14.15 -3.85c-1495.94,-253.48 -3665.53,-198.55 -4845.93,122.7 -1180.39,321.24 -924.58,787.15 571.36,1040.63 1495.94,253.48 3665.54,198.55 4845.93,-122.69 1180.39,-321.25 924.59,-787.16 -571.36,-1040.64z"/>
     <path id="_166" class="fil126" d="M2347.83 1168.05c1492.64,252.92 1747.87,717.8 570.09,1038.33 -1177.79,320.54 -3342.59,375.35 -4835.23,122.43 -1492.64,-252.92 -1747.88,-717.8 -570.1,-1038.34 1177.79,-320.54 3342.6,-375.35 4835.24,-122.42zm14.15 -3.86c-1502.55,-254.6 -3681.72,-199.42 -4867.32,123.24 -1185.61,322.66 -928.67,790.63 573.87,1045.23 1502.55,254.6 3681.72,199.43 4867.33,-123.24 1185.6,-322.66 928.67,-790.63 -573.88,-1045.23z"/>
     <path id="_167" class="fil127" d="M2357.26 1165.48c1499.25,254.04 1755.61,720.98 572.62,1042.93 -1183,321.95 -3357.39,377.01 -4856.63,122.97 -1499.24,-254.05 -1755.61,-720.98 -572.61,-1042.94 1182.99,-321.95 3357.38,-377 4856.62,-122.96zm14.16 -3.85c-1509.15,-255.73 -3697.91,-200.31 -4888.72,123.77 -1190.82,324.09 -932.76,794.11 576.4,1049.83 1509.15,255.72 3697.9,200.3 4888.72,-123.78 1190.81,-324.08 932.75,-794.1 -576.4,-1049.82z"/>
     <path id="_168" class="fil128" d="M2366.7 1162.91c1505.85,255.16 1763.34,724.15 575.14,1047.53 -1188.21,323.37 -3372.18,378.66 -4878.03,123.5 -1505.84,-255.16 -1763.34,-724.15 -575.13,-1047.52 1188.2,-323.38 3372.17,-378.67 4878.02,-123.51zm14.15 -3.85c-1515.75,-256.84 -3714.09,-201.18 -4910.11,124.32 -1196.03,325.5 -936.84,797.58 578.92,1054.42 1515.76,256.84 3714.09,201.18 4910.11,-124.32 1196.03,-325.5 936.84,-797.58 -578.92,-1054.42z"/>
     <path id="_169" class="fil129" d="M2376.13 1160.34c1512.46,256.28 1771.08,727.33 577.66,1052.12 -1193.41,324.79 -3386.96,380.33 -4899.41,124.05 -1512.45,-256.28 -1771.08,-727.33 -577.66,-1052.12 1193.42,-324.79 3386.96,-380.33 4899.41,-124.05zm14.16 -3.85c-1522.36,-257.96 -3730.27,-202.06 -4931.51,124.86 -1201.24,326.92 -940.92,801.06 581.44,1059.01 1522.36,257.96 3730.28,202.06 4931.51,-124.86 1201.24,-326.92 940.92,-801.05 -581.44,-1059.01z"/>
     <path id="_170" class="fil130" d="M2385.57 1157.77c1519.06,257.4 1778.82,730.51 580.18,1056.72 -1198.63,326.21 -3401.75,381.99 -4920.81,124.59 -1519.06,-257.4 -1778.81,-730.51 -580.18,-1056.72 1198.63,-326.2 3401.75,-381.99 4920.81,-124.59zm14.16 -3.85c-1528.97,-259.08 -3746.46,-202.93 -4952.91,125.4 -1206.45,328.34 -945,804.53 583.97,1063.61 1528.96,259.08 3746.45,202.93 4952.9,-125.4 1206.45,-328.34 945,-804.53 -583.96,-1063.61z"/>
     <path id="_171" class="fil131" d="M2395.01 1155.2c1525.66,258.52 1786.55,733.69 582.7,1061.32 -1203.84,327.62 -3416.54,383.65 -4942.2,125.13 -1525.67,-258.52 -1786.55,-733.68 -582.71,-1061.31 1203.84,-327.63 3416.54,-383.65 4942.21,-125.14zm14.15 -3.85c-1535.57,-260.19 -3762.64,-203.81 -4974.3,125.95 -1211.66,329.75 -949.08,808 586.49,1068.2 1535.57,260.2 3762.64,203.81 4974.3,-125.94 1211.66,-329.76 949.08,-808.01 -586.49,-1068.21z"/>
     <path id="_172" class="fil132" d="M2404.44 1152.64c1532.27,259.63 1794.29,736.86 585.23,1065.9 -1209.05,329.05 -3431.33,385.31 -4963.6,125.68 -1532.27,-259.64 -1794.28,-736.86 -585.23,-1065.91 1209.06,-329.04 3431.34,-385.31 4963.6,-125.67zm14.16 -3.86c-1542.18,-261.31 -3778.82,-204.68 -4995.7,126.49 -1216.87,331.17 -953.16,811.48 589.02,1072.8 1542.17,261.31 3778.82,204.68 4995.69,-126.49 1216.87,-331.17 953.16,-811.48 -589.01,-1072.8z"/>
     <path id="_173" class="fil133" d="M2413.88 1150.07c1538.87,260.76 1802.02,740.03 587.75,1070.5 -1214.27,330.46 -3446.12,386.97 -4985,126.21 -1538.87,-260.75 -1802.01,-740.03 -587.75,-1070.5 1214.27,-330.46 3446.13,-386.97 4985,-126.21zm14.15 -3.85c-1548.77,-262.44 -3795,-205.57 -5017.08,127.03 -1222.09,332.59 -957.25,814.95 591.53,1077.39 1548.78,262.43 3795,205.56 5017.09,-127.03 1222.08,-332.59 957.24,-814.96 -591.54,-1077.39z"/>
     <path id="_174" class="fil134" d="M2423.32 1147.5c1545.47,261.88 1809.75,743.21 590.27,1075.09 -1219.48,331.89 -3460.92,388.64 -5006.39,126.76 -1545.48,-261.87 -1809.75,-743.21 -590.28,-1075.09 1219.48,-331.88 3460.92,-388.63 5006.4,-126.76zm14.15 -3.85c-1555.38,-263.56 -3811.19,-206.44 -5038.48,127.57 -1227.3,334.01 -961.33,818.43 594.05,1081.98 1555.39,263.56 3811.19,206.44 5038.49,-127.57 1227.29,-334.01 961.32,-818.43 -594.06,-1081.98z"/>
     <path id="_175" class="fil135" d="M2432.75 1144.93c1552.08,263 1817.49,746.39 592.8,1079.69 -1224.69,333.3 -3475.71,390.3 -5027.79,127.3 -1552.08,-262.99 -1817.48,-746.39 -592.79,-1079.69 1224.68,-333.3 3475.7,-390.29 5027.78,-127.3zm14.16 -3.85c-1561.99,-264.67 -3827.38,-207.31 -5059.88,128.11 -1232.51,335.43 -965.41,821.91 596.58,1086.58 1561.98,264.68 3827.37,207.32 5059.87,-128.11 1232.51,-335.43 965.41,-821.91 -596.57,-1086.58z"/>
     <path id="_176" class="fil136" d="M2442.19 1142.37c1558.68,264.11 1825.22,749.56 595.32,1084.28 -1229.9,334.72 -3490.5,391.95 -5049.19,127.84 -1558.68,-264.12 -1825.21,-749.57 -595.31,-1084.28 1229.9,-334.72 3490.49,-391.96 5049.18,-127.84zm14.15 -3.86c-1568.59,-265.79 -3843.55,-208.19 -5081.27,128.66 -1237.72,336.84 -969.49,825.38 599.1,1091.17 1568.59,265.79 3843.56,208.19 5081.27,-128.65 1237.72,-336.85 969.49,-825.38 -599.1,-1091.18z"/>
     <path id="_177" class="fil137" d="M2451.62 1139.8c1565.29,265.23 1832.96,752.74 597.84,1088.87 -1235.11,336.14 -3505.28,393.62 -5070.57,128.39 -1565.29,-265.24 -1832.95,-752.74 -597.84,-1088.88 1235.11,-336.14 3505.28,-393.62 5070.57,-128.38zm14.16 -3.85c-1575.2,-266.92 -3859.74,-209.07 -5102.67,129.19 -1242.93,338.27 -973.57,828.86 601.62,1095.77 1575.2,266.91 3859.74,209.07 5102.67,-129.2 1242.93,-338.26 973.58,-828.85 -601.62,-1095.76z"/>
     <path id="_178" class="fil138" d="M2461.06 1137.23c1571.89,266.35 1840.69,755.91 600.36,1093.47 -1240.32,337.56 -3520.07,395.28 -5091.97,128.92 -1571.89,-266.35 -1840.68,-755.91 -600.36,-1093.47 1240.32,-337.55 3520.08,-395.27 5091.97,-128.92zm14.15 -3.85c-1581.8,-268.03 -3875.92,-209.95 -5124.06,129.73 -1248.14,339.69 -977.65,832.34 604.15,1100.37 1581.8,268.03 3875.92,209.94 5124.06,-129.74 1248.14,-339.68 977.66,-832.33 -604.15,-1100.36z"/>
     <path id="_179" class="fil139" d="M2470.5 1134.66c1578.49,267.47 1848.42,759.09 602.88,1098.07 -1245.53,338.97 -3534.86,396.93 -5113.36,129.46 -1578.5,-267.47 -1848.42,-759.09 -602.89,-1098.06 1245.54,-338.98 3534.87,-396.94 5113.37,-129.47zm14.15 -3.85c-1588.41,-269.15 -3892.11,-210.82 -5145.46,130.28 -1253.35,341.1 -981.73,835.8 606.67,1104.95 1588.41,269.15 3892.11,210.83 5145.46,-130.27 1253.35,-341.11 981.74,-835.81 -606.67,-1104.96z"/>
     <path id="_180" class="fil140" d="M2479.93 1132.09c1585.11,268.59 1856.16,762.27 605.41,1102.66 -1250.75,340.39 -3549.66,398.6 -5134.76,130.01 -1585.1,-268.59 -1856.15,-762.27 -605.41,-1102.66 1250.75,-340.39 3549.66,-398.6 5134.76,-130.01zm14.16 -3.85c-1595.01,-270.27 -3908.29,-211.7 -5166.86,130.82 -1258.56,342.52 -985.81,839.28 609.2,1109.55 1595.01,270.27 3908.29,211.7 5166.85,-130.82 1258.56,-342.52 985.82,-839.28 -609.19,-1109.55z"/>
     <path id="_181" class="fil141" d="M2489.37 1129.52c1591.71,269.71 1863.89,765.45 607.93,1107.26 -1255.96,341.81 -3564.45,400.26 -5156.16,130.55 -1591.7,-269.71 -1863.88,-765.45 -607.93,-1107.26 1255.96,-341.81 3564.45,-400.25 5156.16,-130.55zm14.15 -3.85c-1601.61,-271.39 -3924.47,-212.57 -5188.24,131.36 -1263.78,343.94 -989.9,842.76 611.71,1114.15 1601.61,271.39 3924.47,212.58 5188.25,-131.36 1263.77,-343.94 989.9,-842.76 -611.72,-1114.15z"/>
     <path id="_182" class="fil142" d="M2498.8 1126.96c1598.32,270.82 1871.63,768.62 610.46,1111.84 -1261.17,343.23 -3579.24,401.93 -5177.55,131.1 -1598.32,-270.83 -1871.62,-768.62 -610.46,-1111.85 1261.17,-343.23 3579.24,-401.92 5177.55,-131.09zm14.16 -3.86c-1608.22,-272.5 -3940.66,-213.45 -5209.64,131.91 -1268.99,345.35 -993.99,846.23 614.23,1118.74 1608.22,272.51 3940.66,213.45 5209.65,-131.91 1268.98,-345.35 993.98,-846.23 -614.24,-1118.74z"/>
     <path id="_183" class="fil143" d="M2508.24 1124.39c1604.92,271.95 1879.36,771.8 612.98,1116.44 -1266.38,344.65 -3594.03,403.58 -5198.95,131.63 -1604.92,-271.94 -1879.35,-771.79 -612.97,-1116.44 1266.38,-344.65 3594.02,-403.58 5198.94,-131.63zm14.16 -3.85c-1614.83,-273.63 -3956.84,-214.33 -5231.04,132.44 -1274.2,346.78 -998.07,849.71 616.76,1123.34 1614.82,273.62 3956.84,214.32 5231.03,-132.45 1274.2,-346.77 998.07,-849.71 -616.75,-1123.33z"/>
     <path id="_184" class="fil144" d="M2517.68 1121.82c1611.52,273.07 1887.09,774.97 615.49,1121.04 -1271.59,346.06 -3608.81,405.24 -5220.33,132.17 -1611.53,-273.06 -1887.09,-774.97 -615.5,-1121.03 1271.59,-346.07 3608.81,-405.25 5220.34,-132.18zm14.15 -3.85c-1621.43,-274.75 -3973.02,-215.21 -5252.43,132.99 -1279.41,348.19 -1002.15,853.18 619.28,1127.92 1621.43,274.75 3973.02,215.21 5252.43,-132.98 1279.41,-348.19 1002.15,-853.19 -619.28,-1127.93z"/>
     <path id="_185" class="fil145" d="M2527.11 1119.25c1618.13,274.19 1894.83,778.15 618.02,1125.63 -1276.8,347.49 -3623.6,406.91 -5241.73,132.72 -1618.13,-274.19 -1894.82,-778.15 -618.02,-1125.63 1276.8,-347.48 3623.61,-406.9 5241.73,-132.72zm14.16 -3.85c-1628.04,-275.86 -3989.21,-216.08 -5273.83,133.53 -1284.62,349.61 -1006.23,856.66 621.81,1132.52 1628.03,275.87 3989.2,216.08 5273.82,-133.53 1284.62,-349.61 1006.23,-856.66 -621.8,-1132.52z"/>
     <path id="_186" class="fil146" d="M2536.55 1116.68c1624.73,275.31 1902.56,781.33 620.54,1130.23 -1282.01,348.9 -3638.4,408.56 -5263.13,133.26 -1624.73,-275.31 -1902.55,-781.33 -620.54,-1130.23 1282.01,-348.9 3638.4,-408.56 5263.13,-133.26zm14.15 -3.85c-1634.64,-276.98 -4005.39,-216.96 -5295.22,134.07 -1289.83,351.03 -1010.31,860.14 624.33,1137.12 1634.64,276.98 4005.39,216.96 5295.22,-134.07 1289.83,-351.03 1010.31,-860.13 -624.33,-1137.12z"/>
     <path id="_187" class="fil147" d="M2545.99 1114.12c1631.33,276.42 1910.29,784.5 623.06,1134.82 -1287.23,350.32 -3653.19,410.22 -5284.52,133.8 -1631.34,-276.43 -1910.29,-784.5 -623.07,-1134.82 1287.23,-350.32 3653.19,-410.23 5284.53,-133.8zm14.15 -3.86c-1641.24,-278.1 -4021.57,-217.83 -5316.62,134.62 -1295.04,352.44 -1014.39,863.61 626.85,1141.71 1641.25,278.1 4021.58,217.83 5316.62,-134.61 1295.04,-352.45 1014.39,-863.61 -626.85,-1141.72z"/>
     <path id="_188" class="fil148" d="M2555.42 1111.55c1637.94,277.54 1918.03,787.68 625.59,1139.41 -1292.44,351.74 -3667.98,411.89 -5305.92,134.35 -1637.94,-277.55 -1918.03,-787.68 -625.59,-1139.42 1292.44,-351.74 3667.98,-411.89 5305.92,-134.34zm14.16 -3.85c-1647.85,-279.23 -4037.76,-218.72 -5338.02,135.15 -1300.25,353.87 -1018.47,867.08 629.38,1146.31 1647.84,279.22 4037.75,218.71 5338.01,-135.16 1300.25,-353.86 1018.47,-867.08 -629.37,-1146.3z"/>
     <path id="_189" class="fil149" d="M2564.86 1108.98c1644.54,278.66 1925.76,790.85 628.11,1144.01 -1297.65,353.16 -3682.77,413.55 -5327.32,134.88 -1644.54,-278.66 -1925.76,-790.85 -628.11,-1144.01 1297.65,-353.15 3682.77,-413.54 5327.32,-134.88zm14.15 -3.85c-1654.45,-280.34 -4053.94,-219.59 -5359.4,135.69 -1305.47,355.29 -1022.56,870.56 631.89,1150.91 1654.45,280.34 4053.94,219.58 5359.41,-135.7 1305.46,-355.28 1022.55,-870.56 -631.9,-1150.9z"/>
     <path id="_190" class="fil150" d="M2574.29 1106.41c1651.15,279.78 1933.5,794.03 630.64,1148.61 -1302.86,354.57 -3697.56,415.2 -5348.71,135.42 -1651.15,-279.78 -1933.5,-794.03 -630.63,-1148.6 1302.86,-354.58 3697.55,-415.21 5348.7,-135.43zm14.16 -3.85c-1661.06,-281.46 -4070.13,-220.46 -5380.8,136.24 -1310.68,356.7 -1026.64,874.03 634.41,1155.49 1661.06,281.46 4070.13,220.47 5380.8,-136.23 1310.68,-356.71 1026.64,-874.04 -634.41,-1155.5z"/>
     <path id="_191" class="fil151" d="M2583.73 1103.84c1657.75,280.9 1941.23,797.21 633.16,1153.2 -1308.08,356 -3712.35,416.87 -5370.11,135.97 -1657.75,-280.9 -1941.23,-797.21 -633.15,-1153.2 1308.07,-355.99 3712.35,-416.87 5370.1,-135.97zm14.15 -3.85c-1667.66,-282.58 -4086.3,-221.34 -5402.19,136.78 -1315.89,358.12 -1030.72,877.51 636.94,1160.09 1667.66,282.58 4086.3,221.34 5402.19,-136.78 1315.89,-358.12 1030.72,-877.51 -636.94,-1160.09z"/>
     <path id="_192" class="fil0" d="M2593.17 1101.28c1664.36,282.02 1948.96,800.38 635.67,1157.79 -1313.28,357.41 -3727.13,418.53 -5391.49,136.51 -1664.36,-282.02 -1948.97,-800.38 -635.68,-1157.8 1313.28,-357.41 3727.14,-418.52 5391.5,-136.5zm14.15 -3.86c-1674.27,-283.69 -4102.49,-222.21 -5423.59,137.32 -1321.1,359.54 -1034.8,880.99 639.46,1164.69 1674.27,283.7 4102.49,222.22 5423.59,-137.32 1321.1,-359.54 1034.81,-880.99 -639.46,-1164.69z"/>
     <path id="_193" class="fil0" d="M2602.6 1098.71c1670.97,283.14 1956.7,803.56 638.2,1162.39 -1318.49,358.82 -3741.93,420.18 -5412.89,137.05 -1670.96,-283.14 -1956.7,-803.56 -638.2,-1162.39 1318.49,-358.83 3741.93,-420.19 5412.89,-137.05zm14.16 -3.85c-1680.87,-284.82 -4118.68,-223.1 -5444.99,137.86 -1326.31,360.96 -1038.88,884.46 641.99,1169.28 1680.87,284.81 4118.67,223.09 5444.98,-137.86 1326.31,-360.96 1038.89,-884.47 -641.98,-1169.28z"/>
     <path id="_194" class="fil0" d="M2612.04 1096.14c1677.57,284.26 1964.43,806.73 640.72,1166.98 -1323.7,360.25 -3756.72,421.85 -5434.29,137.59 -1677.56,-284.26 -1964.43,-806.73 -640.72,-1166.98 1323.71,-360.25 3756.72,-421.85 5434.29,-137.59zm14.15 -3.85c-1687.47,-285.94 -4134.85,-223.97 -5466.38,138.4 -1331.52,362.38 -1042.97,887.94 644.51,1173.88 1687.48,285.93 4134.86,223.97 5466.38,-138.41 1331.52,-362.37 1042.97,-887.94 -644.51,-1173.87z"/>
     <path id="_195" class="fil0" d="M2621.47 1093.57c1684.18,285.38 1972.17,809.91 643.25,1171.58 -1328.92,361.66 -3771.51,423.51 -5455.68,138.13 -1684.17,-285.38 -1972.17,-809.91 -643.25,-1171.57 1328.92,-361.67 3771.51,-423.52 5455.68,-138.14zm9.44 -2.57c-1690.78,-286.49 -4142.95,-224.41 -5477.08,138.68 -1334.13,363.08 -1045,889.67 645.77,1176.17 1690.78,286.5 4142.95,224.41 5477.08,-138.68 1334.13,-363.08 1045.01,-889.67 -645.77,-1176.17z"/>
    </g>
   </g>
   <path class="fil152" d="M0 389.12l0 1068.63 2152.56 0c0,-104.07 0,-262.36 0,-366.43 -357.17,14.24 -1429.14,937.82 -2152.56,-702.2z"/>
   <path class="fil153" d="M0 0l0 1457.75 482.3 0c-395.69,-378.39 -71.43,-1254.4 -482.3,-1457.75z"/>
   <path class="fil154" d="M0 35.41l0 1422.34 437.75 0c-379.66,-414.35 -67.28,-1171.95 -437.75,-1422.34z"/>
  </g>
 </g>
</svg>
